<svg width="64" height="64" viewBox="0 0 64 64" fill="none" xmlns="http://www.w3.org/2000/svg">
<path d="M55.9342 26.5254V18.8117C55.9307 15.7787 53.4726 13.3207 50.4396 13.3171H48.9928V12.4496C48.9803 9.98805 46.9813 8 44.5201 8C42.0589 8 40.0603 9.98805 40.047 12.4496V13.3171H23.8872V12.4496C23.8747 9.98805 21.8756 8 19.4145 8C16.9533 8 14.9547 9.98805 14.9413 12.4496V13.3171H13.4942C10.4616 13.3207 8.00352 15.7787 8 18.8117V52.5123C8.00352 55.5453 10.4616 58.0033 13.4942 58.0068H50.4396C53.4726 58.0033 55.9307 55.5453 55.9342 52.5123V27.3185C56.0211 27.0612 56.0211 26.7827 55.9342 26.5254ZM44.5201 10.478C45.6081 10.4796 46.4898 11.3608 46.4909 12.4496V15.0839C46.4827 16.1661 45.6023 17.0391 44.5193 17.0391C43.4368 17.0391 42.5567 16.1661 42.5481 15.0839V12.4496C42.5493 11.3608 43.4313 10.4792 44.5201 10.478ZM17.4425 12.4496C17.4511 11.3667 18.3311 10.4937 19.4137 10.4937C20.4966 10.4937 21.3763 11.3667 21.3853 12.4496V15.0839C21.3763 16.1661 20.4966 17.0391 19.4137 17.0391C18.3311 17.0391 17.4511 16.1661 17.4425 15.0839V12.4496ZM13.4942 15.8187H15.0024C15.362 17.9751 17.2275 19.5559 19.4137 19.5559C21.6003 19.5559 23.4658 17.9751 23.8253 15.8187H40.1085C40.468 17.9751 42.3339 19.5559 44.5201 19.5559C46.7063 19.5559 48.5722 17.9751 48.9313 15.8187H50.4396C52.092 15.8206 53.4307 17.1593 53.4327 18.8117V25.6708H10.5015V18.8121C10.5031 17.1597 11.8426 15.8206 13.4942 15.8187ZM50.4396 55.5053H13.4942C11.8426 55.5034 10.5035 54.1647 10.5015 52.5123V28.1723H53.4327V52.5123C53.4307 54.1647 52.092 55.5034 50.4396 55.5053Z" fill="#007FA4"/>
<path d="M39.5874 39.325L35.0904 38.6842L33.0843 34.6991C32.8721 34.2769 32.4401 34.0106 31.9669 34.0106C31.4946 34.0106 31.0626 34.2769 30.8503 34.6991L28.8435 38.6842L24.3472 39.325C23.8729 39.3923 23.4789 39.7249 23.3324 40.1807C23.1863 40.6366 23.3129 41.1364 23.6595 41.4673L26.8981 44.5626L26.1351 48.9261C26.0533 49.3941 26.2432 49.868 26.6263 50.1492C27.0089 50.4308 27.5181 50.4708 27.9403 50.2534L31.9677 48.178L35.9951 50.2534C36.417 50.4708 36.9261 50.4304 37.3084 50.1488C37.6906 49.868 37.8814 49.3941 37.7999 48.9265L37.0366 44.563L40.2756 41.4677C40.6218 41.1372 40.7487 40.637 40.6022 40.1815C40.4557 39.7256 40.0617 39.3923 39.5874 39.325ZM34.8249 43.2149C34.5229 43.5032 34.385 43.9234 34.4571 44.3347L34.9016 46.8754L32.5403 45.6585C32.1812 45.4732 31.7543 45.4732 31.3943 45.6585L29.033 46.8754L29.4772 44.3347C29.5496 43.9234 29.4114 43.5032 29.1094 43.2149L27.2498 41.4384L29.8434 41.069C30.2487 41.0115 30.6001 40.7588 30.7841 40.3934L31.9669 38.0435L33.1505 40.3934C33.3346 40.7588 33.6859 41.0115 34.0909 41.069L36.6849 41.4384L34.8249 43.2149Z" fill="#007FA4"/>
</svg>
