<svg width="138" height="105" viewBox="0 0 138 105" fill="none" xmlns="http://www.w3.org/2000/svg">
<path d="M130.893 14.793H6.65557C2.99501 14.793 0 17.8845 0 21.6631V97.2341C0 101.013 2.99501 104.104 6.65557 104.104H130.893C134.554 104.104 137.549 101.013 137.549 97.2341V21.6631C137.549 17.8845 134.554 14.793 130.893 14.793Z" fill="#9B292B"/>
<path d="M75.4298 92.6543H62.1187V104.104H75.4298V92.6543Z" fill="#007FA4"/>
<path d="M128.73 85.7842V92.6543C128.73 93.9138 127.732 94.9443 126.511 94.9443H11.1481C9.9279 94.9443 8.92957 93.9138 8.92957 92.6543V85.7842L22.1853 78.9141L75.4299 81.2041L119.8 78.9141L128.73 85.7842Z" fill="#231F20"/>
<path d="M12.0355 88.9614C30.2551 81.2039 50.8874 81.6619 68.8297 90.3927V7.95153C50.305 -1.06547 28.924 -1.26585 10.2607 7.32177C9.45646 7.6939 8.92957 8.52404 8.92957 9.44005V86.8717C8.92957 88.532 10.5657 89.5912 12.0355 88.9614Z" fill="white" stroke="#231F20" stroke-width="1.5" stroke-miterlimit="10"/>
<path d="M68.8297 90.3645C86.772 81.6623 107.377 81.1757 125.624 88.9332C127.094 89.563 128.73 88.5038 128.73 86.8435V9.44046C128.73 8.52445 128.203 7.69431 127.399 7.32218C108.763 -1.26544 87.3544 -1.06506 68.8297 7.92331V90.3645Z" fill="white" stroke="#231F20" stroke-width="1.5" stroke-miterlimit="10"/>
<path d="M77.7038 75.4222C76.7609 75.4222 75.8735 74.7925 75.5962 73.8192C75.2357 72.617 75.8735 71.3288 77.0382 70.9567C79.2845 70.2411 81.5862 69.6113 83.9157 69.0961C85.1081 68.8384 86.3006 69.6399 86.5502 70.8708C86.7998 72.1017 86.0233 73.3326 84.8308 73.5902C82.6678 74.0482 80.5047 74.6494 78.3971 75.3364C78.1475 75.3936 77.9257 75.4222 77.7038 75.4222Z" fill="#D1D3D4"/>
<path d="M119.856 75.4222C119.634 75.4222 119.412 75.3936 119.19 75.3077C110.815 72.5883 102.135 71.5864 93.3998 72.3021C92.1519 72.3879 91.0981 71.4719 91.0149 70.2124C90.9317 68.9529 91.8191 67.8365 93.0393 67.7506C102.357 67.0064 111.592 68.0655 120.494 70.9567C121.658 71.3288 122.324 72.6169 121.936 73.8192C121.686 74.7925 120.799 75.4222 119.856 75.4222Z" fill="#D1D3D4"/>
<path d="M119.856 66.2336C119.634 66.2336 119.412 66.205 119.19 66.1191C105.824 61.7967 91.736 61.7967 78.3694 66.1191C77.2046 66.4912 75.9567 65.8328 75.5962 64.6306C75.2357 63.4283 75.8735 62.1402 77.0382 61.768C91.2645 57.1594 106.295 57.1594 120.521 61.768C121.686 62.1402 122.352 63.4283 121.963 64.6306C121.686 65.6038 120.799 66.2336 119.856 66.2336Z" fill="#D1D3D4"/>
<path d="M77.7038 57.102C76.7609 57.102 75.8735 56.4722 75.5962 55.499C75.2357 54.2967 75.8735 53.0086 77.0382 52.6364C85.1913 50.0029 93.6772 48.8579 102.219 49.2873C103.439 49.3445 104.382 50.4323 104.326 51.6918C104.271 52.9513 103.245 53.9246 101.997 53.8673C93.9822 53.4666 86.0233 54.5257 78.3694 57.0161C78.1475 57.0734 77.9257 57.102 77.7038 57.102Z" fill="#D1D3D4"/>
<path d="M119.856 57.1018C119.634 57.1018 119.412 57.0732 119.19 56.9873C116.389 56.0713 113.505 55.3557 110.593 54.8118C109.373 54.5828 108.569 53.4092 108.791 52.1496C109.013 50.9188 110.15 50.06 111.37 50.289C114.448 50.8615 117.526 51.6344 120.521 52.6076C121.686 52.9798 122.352 54.2679 121.963 55.4702C121.686 56.4721 120.799 57.1018 119.856 57.1018Z" fill="#D1D3D4"/>
<path d="M119.856 47.9133C119.634 47.9133 119.412 47.8847 119.19 47.7988C105.824 43.4763 91.736 43.4763 78.3694 47.7988C77.2046 48.1709 75.9567 47.5125 75.5962 46.3103C75.2357 45.108 75.8735 43.8199 77.0382 43.4477C91.2645 38.839 106.295 38.839 120.521 43.4477C121.686 43.8199 122.352 45.108 121.963 46.3103C121.686 47.2835 120.799 47.9133 119.856 47.9133Z" fill="#D1D3D4"/>
<path d="M77.7038 38.7532C76.7609 38.7532 75.8735 38.1235 75.5962 37.1502C75.2357 35.9479 75.8735 34.6598 77.0382 34.2877C81.503 32.8278 86.1342 31.8259 90.7654 31.3106C92.0133 31.1675 93.0948 32.0835 93.2058 33.343C93.3444 34.6025 92.457 35.7189 91.2368 35.8621C86.883 36.3773 82.5291 37.2933 78.3416 38.6673C78.1475 38.7246 77.9257 38.7532 77.7038 38.7532Z" fill="#D1D3D4"/>
<path d="M119.856 38.7527C119.634 38.7527 119.412 38.7241 119.19 38.6382C112.923 36.6058 106.434 35.5181 99.8613 35.4036C98.6411 35.3749 97.6705 34.3444 97.6705 33.0849C97.6983 31.8254 98.7521 30.7663 99.9168 30.8235C106.905 30.938 113.838 32.083 120.521 34.2585C121.686 34.6307 122.352 35.9188 121.963 37.1211C121.686 38.123 120.799 38.7527 119.856 38.7527Z" fill="#D1D3D4"/>
<path d="M77.7038 29.6215C76.7609 29.6215 75.8735 28.9917 75.5962 28.0185C75.2357 26.8162 75.8735 25.5281 77.0382 25.1559C86.7166 22.0358 96.6999 21.0052 106.794 22.1789C108.014 22.322 108.902 23.4384 108.763 24.6979C108.624 25.9574 107.543 26.8735 106.323 26.7303C96.8663 25.6426 87.4653 26.5872 78.3971 29.5356C78.1475 29.5929 77.9257 29.6215 77.7038 29.6215Z" fill="#D1D3D4"/>
<path d="M119.856 29.6212C119.634 29.6212 119.412 29.5925 119.19 29.5067C117.776 29.0486 116.334 28.6479 114.892 28.2758C113.699 27.9895 112.978 26.73 113.256 25.4991C113.533 24.2682 114.725 23.5239 115.946 23.8102C117.471 24.211 119.024 24.6403 120.521 25.127C121.686 25.4991 122.352 26.7872 121.963 27.9895C121.686 28.9914 120.799 29.6212 119.856 29.6212Z" fill="#D1D3D4"/>
<path d="M77.7038 20.4328C76.7609 20.4328 75.8735 19.8031 75.5962 18.8298C75.2357 17.6275 75.8735 16.3394 77.0383 15.9673C78.5635 15.4806 80.0887 15.0226 81.614 14.6505C82.8064 14.3356 83.9989 15.1085 84.304 16.3394C84.5813 17.5703 83.8602 18.8012 82.6678 19.1161C81.2535 19.4596 79.8114 19.8889 78.3694 20.347C78.1475 20.4042 77.9257 20.4328 77.7038 20.4328Z" fill="#D1D3D4"/>
<path d="M119.856 20.4327C119.634 20.4327 119.412 20.4041 119.19 20.3182C110.122 17.3698 100.721 16.4252 91.2645 17.5129C90.0443 17.6561 88.935 16.74 88.8241 15.4805C88.6854 14.221 89.5728 13.1046 90.793 12.9615C100.86 11.8165 110.871 12.8184 120.549 15.9385C121.714 16.3107 122.379 17.5988 121.991 18.8011C121.686 19.803 120.799 20.4327 119.856 20.4327Z" fill="#D1D3D4"/>
<path d="M17.8037 75.4222C16.8608 75.4222 15.9734 74.7925 15.6961 73.8192C15.3356 72.617 15.9734 71.3288 17.1381 70.9567C19.3844 70.2411 21.6861 69.6113 24.0155 69.0961C25.208 68.8384 26.4004 69.6399 26.65 70.8708C26.8996 72.1017 26.1231 73.3326 24.9307 73.5902C22.7676 74.0482 20.6045 74.6494 18.497 75.3364C18.2474 75.3936 18.0255 75.4222 17.8037 75.4222Z" fill="#D1D3D4"/>
<path d="M59.9556 75.4222C59.7337 75.4222 59.5119 75.3936 59.29 75.3077C50.9151 72.5883 42.2351 71.5864 33.4997 72.3021C32.2518 72.3879 31.198 71.4719 31.1148 70.2124C31.0316 68.9529 31.919 67.8365 33.1392 67.7506C42.457 67.0064 51.6916 68.0655 60.5934 70.9567C61.7581 71.3288 62.4237 72.6169 62.0355 73.8192C61.7859 74.7925 60.8985 75.4222 59.9556 75.4222Z" fill="#D1D3D4"/>
<path d="M59.9556 66.2336C59.7338 66.2336 59.5119 66.205 59.2901 66.1191C45.9235 61.7967 31.8358 61.7967 18.4692 66.1191C17.3045 66.4912 16.0566 65.8328 15.6961 64.6306C15.3356 63.4283 15.9734 62.1402 17.1381 61.768C31.3644 57.1594 46.3949 57.1594 60.6212 61.768C61.7859 62.1402 62.4515 63.4283 62.0632 64.6306C61.7859 65.6038 60.8985 66.2336 59.9556 66.2336Z" fill="#D1D3D4"/>
<path d="M17.8037 57.102C16.8608 57.102 15.9734 56.4722 15.6961 55.499C15.3356 54.2967 15.9734 53.0086 17.1381 52.6364C25.2912 50.0029 33.777 48.8579 42.3184 49.2873C43.5386 49.3445 44.4814 50.4323 44.426 51.6918C44.3705 52.9513 43.3444 53.9246 42.0965 53.8673C34.0821 53.4666 26.1231 54.5257 18.4692 57.0161C18.2474 57.0734 18.0255 57.102 17.8037 57.102Z" fill="#D1D3D4"/>
<path d="M59.9557 57.1018C59.7338 57.1018 59.512 57.0732 59.2901 56.9873C56.4892 56.0713 53.6052 55.3557 50.6933 54.8118C49.4732 54.5828 48.6689 53.4092 48.8908 52.1496C49.1126 50.9188 50.2496 50.06 51.4698 50.289C54.548 50.8615 57.6262 51.6344 60.6213 52.6076C61.786 52.9798 62.4515 54.2679 62.0633 55.4702C61.786 56.4721 60.8986 57.1018 59.9557 57.1018Z" fill="#D1D3D4"/>
<path d="M17.8037 47.9133C16.8608 47.9133 15.9734 47.2835 15.6961 46.3102C15.3356 45.108 15.9734 43.8198 17.1381 43.4477C29.756 39.3542 43.2058 38.8962 56.0455 42.1309C57.2379 42.4172 57.959 43.6767 57.6816 44.9076C57.4043 46.1385 56.1841 46.8827 54.9917 46.5965C42.9285 43.5622 30.3106 43.9916 18.4692 47.8274C18.2474 47.8846 18.0255 47.9133 17.8037 47.9133Z" fill="#D1D3D4"/>
<path d="M17.8037 38.7532C16.8608 38.7532 15.9734 38.1235 15.6961 37.1502C15.3356 35.9479 15.9734 34.6598 17.1381 34.2877C21.6029 32.8278 26.2341 31.8259 30.8652 31.3106C32.0854 31.1675 33.1947 32.0835 33.3056 33.343C33.4443 34.6025 32.5569 35.7189 31.3367 35.8621C26.9828 36.3773 22.629 37.2933 18.4415 38.6673C18.2474 38.7246 18.0255 38.7532 17.8037 38.7532Z" fill="#D1D3D4"/>
<path d="M55.5186 37.4643C55.3522 37.4643 55.1581 37.4357 54.9917 37.407C50.0832 36.1762 45.0083 35.4891 39.9612 35.4319C38.741 35.4033 37.7704 34.3728 37.7704 33.1132C37.7981 31.8537 38.741 30.7946 40.0166 30.8518C45.3966 30.9377 50.8042 31.6533 56.0455 32.9701C57.2379 33.2564 57.959 34.5159 57.6816 35.7468C57.4321 36.7773 56.5169 37.4643 55.5186 37.4643Z" fill="#D1D3D4"/>
<path d="M17.8037 29.6215C16.8608 29.6215 15.9734 28.9917 15.6961 28.0185C15.3356 26.8162 15.9734 25.5281 17.1381 25.1559C26.8164 22.0358 36.7998 21.0052 46.8941 22.1789C48.1143 22.322 49.0017 23.4384 48.863 24.6979C48.7244 25.9574 47.6429 26.8735 46.4227 26.7303C36.9662 25.6426 27.5652 26.5872 18.497 29.5356C18.2474 29.5929 18.0255 29.6215 17.8037 29.6215Z" fill="#D1D3D4"/>
<path d="M17.8037 20.4328C16.8608 20.4328 15.9734 19.8031 15.6961 18.8298C15.3356 17.6275 15.9734 16.3394 17.1381 15.9673C18.6634 15.4806 20.1886 15.0226 21.7138 14.6505C22.9063 14.3356 24.0988 15.1085 24.4038 16.3394C24.6811 17.5703 23.9601 18.8012 22.7676 19.1161C21.3533 19.4596 19.9113 19.8889 18.4692 20.347C18.2474 20.4042 18.0255 20.4328 17.8037 20.4328Z" fill="#D1D3D4"/>
<path d="M55.5185 19.1445C55.3521 19.1445 55.158 19.1159 54.9916 19.0872C47.2268 17.1407 39.2955 16.6255 31.3643 17.5128C30.1441 17.656 29.0349 16.74 28.9239 15.4804C28.7853 14.2209 29.6727 13.1045 30.8929 12.9614C39.3233 11.9881 47.8091 12.5606 56.0731 14.6217C57.2656 14.9079 57.9866 16.1675 57.7093 17.3983C57.432 18.4575 56.5168 19.1445 55.5185 19.1445Z" fill="#D1D3D4"/>
<path d="M55.5186 43.4185C55.5186 44.3345 56.5169 44.8784 57.2379 44.3631L62.1741 40.9567L67.1104 44.3918C67.8591 44.907 68.8297 44.3631 68.8297 43.4471V8.12337C68.8297 7.20736 68.3305 6.37722 67.5263 6.00509C64.0599 4.43069 60.5102 3.17118 56.9051 2.16929C56.2118 1.96891 55.5186 2.54142 55.5186 3.28568V43.4185Z" fill="#007FA4"/>
</svg>
