<svg width="214" height="200" viewBox="0 0 214 200" fill="none" xmlns="http://www.w3.org/2000/svg">
<path d="M196.018 174.154C196.018 174.154 190.944 164.082 190.677 157.576C190.41 151.07 185.87 116.845 182.31 105.348C178.749 93.8508 164.061 78.0755 150.352 68.6281C147.325 66.5782 133.527 58.8242 133.527 58.8242L131.302 99.4658C131.302 99.4658 151.242 122.995 152.31 133.156C153.468 143.227 147.592 161.23 151.42 167.915C158.186 179.858 154.18 173.886 162.369 185.74L196.018 174.154Z" fill="white"/>
<path d="M162.369 186.185C162.191 186.185 162.102 186.096 162.013 186.007L160.411 183.69C156.405 177.807 156.405 177.807 154.981 175.134C154.269 173.797 153.201 171.836 151.064 168.182C148.75 164.171 149.818 156.595 150.886 148.574C151.598 143.048 152.399 137.433 151.954 133.244C150.886 123.351 131.213 100.089 131.035 99.8218C130.946 99.7327 130.946 99.6436 130.946 99.4653L133.171 58.8237C133.171 58.6455 133.26 58.5564 133.438 58.4672C133.527 58.3781 133.705 58.3781 133.884 58.4672C134.418 58.8237 147.77 66.2212 150.708 68.2711C163.349 77.0055 178.927 92.87 182.844 105.259C186.493 116.845 190.944 150.98 191.3 157.665C191.567 163.993 196.552 173.975 196.552 174.064C196.641 174.153 196.641 174.331 196.552 174.421C196.463 174.51 196.374 174.599 196.285 174.688L162.547 186.274C162.547 186.185 162.458 186.185 162.369 186.185ZM131.836 99.2871C133.616 101.426 151.776 123.262 152.844 133.066C153.29 137.344 152.577 143.048 151.776 148.663C150.797 156.15 149.729 163.904 151.865 167.736C154.002 171.569 155.07 173.44 155.782 174.777C157.206 177.451 157.206 177.451 161.212 183.244L162.636 185.294L195.573 173.975C194.594 171.925 190.677 163.458 190.41 157.665C190.143 151.248 185.603 116.845 182.042 105.526C178.66 94.8308 165.04 79.1445 150.263 68.9841C147.681 67.2016 136.821 61.0519 134.151 59.5368L131.836 99.2871Z" fill="#231F20"/>
<path d="M17.9817 174.154C17.9817 174.154 23.0558 164.082 23.3228 157.576C23.5899 151.07 28.0408 116.845 31.6905 105.348C35.3403 93.8508 49.9393 78.0755 63.7371 68.6281C66.7637 66.5782 80.5616 58.8242 80.5616 58.8242L82.787 99.4658C82.787 99.4658 62.8469 122.995 61.7787 133.156C60.7105 143.316 66.4967 161.23 62.6689 167.915C55.9035 179.858 59.9093 173.886 51.7197 185.74L17.9817 174.154Z" fill="white"/>
<path d="M51.7197 186.185C51.6306 186.185 51.6306 186.185 51.5416 186.185L17.8927 174.599C17.8037 174.599 17.7147 174.421 17.6256 174.332C17.5366 174.243 17.5366 174.064 17.6256 173.975C17.7147 173.886 22.6107 163.904 22.8777 157.576C23.1448 150.891 27.5957 116.845 31.3345 105.17C35.2513 92.7811 50.8295 76.9166 63.4701 68.1823C66.4967 66.1324 79.7604 58.6457 80.2945 58.3784C80.3836 58.2892 80.5616 58.2892 80.7396 58.3784C80.9177 58.4675 80.9177 58.5566 81.0067 58.7349L83.2321 99.3765C83.2321 99.4656 83.2321 99.5547 83.1431 99.733C82.9651 100 63.292 123.262 62.2238 133.155C61.7787 137.344 62.4909 143.048 63.292 148.485C64.3603 156.506 65.4285 163.993 63.114 168.093C60.9776 171.747 59.9093 173.797 59.1972 175.045C57.7729 177.718 57.7729 177.718 53.7671 183.601L52.1648 185.918C51.9867 186.185 51.8087 186.185 51.7197 186.185ZM18.6048 173.886L51.5416 185.205L52.9659 183.155C56.9717 177.362 56.9717 177.362 58.396 174.688C59.1082 173.351 60.1764 171.391 62.3128 167.647C64.4493 163.904 63.3811 156.15 62.4019 148.574C61.6007 143.048 60.8885 137.344 61.3336 132.977C62.4019 123.173 80.5616 101.337 82.342 99.1982L80.1165 59.537C77.3569 61.0522 66.5857 67.2019 64.0042 68.9844C49.2272 79.1448 35.6073 94.831 32.2247 105.526C28.6639 116.845 24.124 151.159 23.8569 157.665C23.5009 163.369 19.5841 171.836 18.6048 173.886Z" fill="#231F20"/>
<path d="M74.9534 0.446289H139.136C141.717 0.446289 143.854 2.58532 143.854 5.16998V142.603C143.854 145.187 141.717 147.326 139.136 147.326H74.9534C72.3718 147.326 70.2354 145.187 70.2354 142.603V5.16998C70.2354 2.58532 72.3718 0.446289 74.9534 0.446289Z" fill="white"/>
<path d="M139.136 147.771H74.9534C72.1048 147.771 69.7903 145.454 69.7903 142.602V5.16933C69.7903 2.31728 72.1048 0 74.9534 0H139.136C141.984 0 144.299 2.31728 144.299 5.16933V142.602C144.299 145.454 141.984 147.771 139.136 147.771ZM74.9534 0.891263C72.6389 0.891263 70.6805 2.76292 70.6805 5.16933V142.602C70.6805 144.919 72.5499 146.88 74.9534 146.88H139.136C141.45 146.88 143.408 145.008 143.408 142.602V5.16933C143.408 2.85204 141.539 0.891263 139.136 0.891263H74.9534Z" fill="#231F20"/>
<path d="M139.937 13.7256H74.0632V126.738H139.937V13.7256Z" fill="white"/>
<path d="M139.937 127.184H74.0632C73.7962 127.184 73.6181 127.005 73.6181 126.738V13.7259C73.6181 13.4585 73.7962 13.2803 74.0632 13.2803H139.937C140.204 13.2803 140.382 13.4585 140.382 13.7259V126.738C140.382 127.005 140.204 127.184 139.937 127.184ZM74.5083 126.292H139.492V14.1715H74.5083V126.292Z" fill="#231F20"/>
<path d="M100.769 132.264H113.32C114.923 132.264 116.169 133.601 116.169 135.116V139.929C116.169 141.533 114.834 142.781 113.32 142.781H100.769C99.1664 142.781 97.9201 141.444 97.9201 139.929V135.116C97.9201 133.601 99.1664 132.264 100.769 132.264Z" fill="white"/>
<path d="M113.231 143.316H100.769C98.8993 143.316 97.475 141.801 97.475 140.018V135.205C97.475 133.334 98.9883 131.907 100.769 131.818H113.231C115.101 131.818 116.525 133.334 116.525 135.205V140.018C116.614 141.801 115.101 143.316 113.231 143.316ZM100.769 132.71C99.4334 132.71 98.3652 133.779 98.3652 135.205V140.018C98.3652 141.355 99.4334 142.424 100.769 142.424H113.231C114.567 142.424 115.635 141.355 115.635 140.018V135.205C115.635 133.868 114.567 132.799 113.231 132.71H100.769Z" fill="#E6E7E8"/>
<path d="M113.676 7.21841H94.8935C94.6264 7.21841 94.4484 7.04016 94.4484 6.77278C94.4484 6.5054 94.6264 6.32715 94.8935 6.32715H113.676C113.943 6.32715 114.121 6.5054 114.121 6.77278C114.121 7.04016 113.943 7.21841 113.676 7.21841Z" fill="#E6E7E8"/>
<path d="M118.839 7.21841H116.347C116.08 7.21841 115.902 7.04016 115.902 6.77278C115.902 6.5054 116.08 6.32715 116.347 6.32715H118.839C119.107 6.32715 119.285 6.5054 119.285 6.77278C119.285 7.04016 119.107 7.21841 118.839 7.21841Z" fill="#E6E7E8"/>
<path d="M139.937 20.5885H74.0632C73.7962 20.5885 73.6181 20.4103 73.6181 20.1429C73.6181 19.8755 73.7962 19.6973 74.0632 19.6973H139.937C140.204 19.6973 140.382 19.8755 140.382 20.1429C140.382 20.3211 140.204 20.5885 139.937 20.5885Z" fill="#231F20"/>
<path d="M137.088 25.1338H133.438H133.26H106.911C106.021 25.1338 105.22 25.9359 105.22 26.8272V33.5117C105.22 34.492 106.021 35.2051 106.911 35.2051H133.26C134.24 35.2051 134.952 34.4029 134.952 33.5117V27.2728L137.088 25.1338Z" fill="#E6E7E8"/>
<path d="M80.7396 58.1992H84.3894H84.5674H110.917C111.896 58.1992 112.608 59.0013 112.608 59.8926V70.2313C112.608 71.1225 111.896 71.9247 110.917 71.9247H84.4784C83.4992 71.9247 82.787 71.1225 82.787 70.2313V60.2491L80.7396 58.1992Z" fill="#E6E7E8"/>
<path d="M80.7396 91.623H84.3894H84.5674H115.635C116.614 91.623 117.326 92.4252 117.326 93.3164V107.666C117.326 108.646 116.614 109.359 115.635 109.359H84.4784C83.4992 109.359 82.787 108.557 82.787 107.666V93.6729L80.7396 91.623Z" fill="#E6E7E8"/>
<path d="M137.088 76.2031H133.438H133.26H106.911C105.932 76.2031 105.22 77.0053 105.22 77.8965V84.581C105.22 85.5614 106.021 86.2744 106.911 86.2744H133.26C134.151 86.2744 134.952 85.5614 134.952 84.581V78.3422L137.088 76.2031Z" fill="#E6E7E8"/>
<path d="M100.235 37.5215H132.637C133.973 37.5215 134.952 38.591 134.952 39.8388V50.8013C134.952 52.1382 133.884 53.1186 132.637 53.1186H100.235C98.8993 53.1186 97.9201 52.0491 97.9201 50.8013V39.9279C97.8311 38.591 98.8993 37.5215 100.235 37.5215Z" fill="#E6E7E8"/>
<path d="M81.5408 115.15H132.637C134.685 115.15 136.287 116.844 136.287 118.805C136.287 120.854 134.596 122.459 132.637 122.459H81.5408C79.4934 122.459 77.891 120.765 77.891 118.805C77.802 116.844 79.4934 115.15 81.5408 115.15Z" fill="white"/>
<path d="M132.548 122.994H81.5407C79.2263 122.994 77.4459 121.122 77.4459 118.894C77.4459 116.577 79.3153 114.705 81.5407 114.705H132.637C134.952 114.705 136.732 116.577 136.732 118.894C136.732 121.122 134.863 122.994 132.548 122.994ZM81.5407 115.596C79.7604 115.596 78.2471 117.022 78.2471 118.894C78.2471 120.677 79.6714 122.103 81.5407 122.103H132.637C134.418 122.103 135.842 120.677 135.842 118.894C135.842 117.111 134.418 115.596 132.637 115.596H81.5407Z" fill="#E6E7E8"/>
<path d="M56.0815 179.321C56.0815 179.321 70.5915 167.289 71.7487 153.564C72.906 139.838 70.5915 125.578 72.2828 122.458C73.9742 119.339 85.7246 102.583 88.3061 98.0379C91.6888 92.1555 86.6148 86.8079 82.965 89.0361C79.3153 91.2643 65.0724 99.3748 57.5058 110.337C54.1231 114.259 51.2745 118.715 49.1381 123.528" fill="white"/>
<path d="M56.0816 179.767C55.9035 179.767 55.8145 179.678 55.7255 179.589C55.5474 179.411 55.6365 179.143 55.8145 178.965C55.9925 178.876 70.2355 166.933 71.3037 153.564C71.7488 147.236 71.7488 140.819 71.3927 134.491C71.1257 128.43 71.0366 123.974 71.9268 122.281C72.728 120.766 75.9326 116.131 79.2263 111.14C82.8761 105.792 86.6148 100.177 87.9501 97.8601C89.7305 94.6516 88.9293 91.7104 87.416 90.1953C86.3478 89.0366 84.6564 88.7693 83.3212 89.4823L82.342 90.1061C77.535 92.9582 64.8944 100.623 57.9509 110.694C54.5682 114.616 51.7197 119.072 49.5832 123.796C49.4942 123.974 49.2272 124.152 48.9601 123.974C48.7821 123.885 48.604 123.618 48.7821 123.35C50.9185 118.537 53.8561 114.081 57.2388 110.07C64.2712 99.91 77.0009 92.1561 81.8079 89.304L82.7871 88.6801C84.4784 87.6997 86.7039 88.0562 88.0391 89.4823C89.9085 91.2648 90.7987 94.6516 88.7513 98.3058C87.416 100.623 83.6772 106.238 80.0275 111.586C76.7338 116.488 73.6182 121.211 72.817 122.637C72.0158 124.063 72.1939 128.609 72.3719 134.313C72.728 140.73 72.728 147.058 72.2829 153.475C71.1257 167.29 56.6157 179.411 56.4376 179.5C56.3486 179.678 56.2596 179.767 56.0816 179.767Z" fill="#231F20"/>
<path d="M59.8203 200C60.2654 198.039 60.5324 195.989 60.6215 193.939C60.6215 191.354 57.9509 187.611 57.9509 187.611L59.5532 179.322C59.5532 179.322 17.7146 163.012 16.0233 165.24C14.3319 167.469 10.9493 179.322 10.9493 179.322C10.9493 179.322 5.60815 182.531 3.91681 185.739C2.9376 187.611 1.24626 194.474 0 200H59.8203Z" fill="#9B292B"/>
<path d="M157.918 179.321C157.918 179.321 143.409 167.289 142.251 153.564C141.094 139.838 143.409 125.578 141.717 122.458C140.026 119.339 128.275 102.583 125.694 98.0379C122.311 92.1555 127.385 86.8079 131.035 89.0361C134.685 91.2643 148.928 99.3748 156.494 110.337C159.877 114.259 162.725 118.715 164.862 123.528" fill="white"/>
<path d="M157.918 179.769C157.829 179.769 157.74 179.769 157.651 179.68C157.473 179.59 142.963 167.38 141.806 153.655C141.361 147.238 141.361 140.91 141.717 134.492C141.895 128.788 142.073 124.243 141.272 122.817C140.471 121.391 137.355 116.667 134.062 111.765C130.412 106.329 126.673 100.803 125.338 98.4855C123.29 94.9204 124.27 91.4445 126.05 89.662C127.385 88.2359 129.522 87.8794 131.302 88.8598L132.281 89.4837C137.088 92.4249 149.907 100.09 156.939 110.339C160.411 114.35 163.26 118.806 165.396 123.53C165.485 123.797 165.396 123.976 165.218 124.154C164.951 124.243 164.773 124.154 164.595 123.976C162.458 119.252 159.61 114.885 156.227 110.874C149.195 100.803 136.554 93.1379 131.836 90.1967L130.857 89.5728C129.522 88.7707 127.741 89.0381 126.762 90.2858C125.16 91.801 124.359 94.8313 126.228 97.9507C127.563 100.268 131.302 105.883 134.952 111.231C138.245 116.222 141.45 120.856 142.251 122.371C143.141 124.065 143.052 128.432 142.785 134.582C142.429 140.91 142.429 147.327 142.874 153.655C143.943 167.024 158.275 178.966 158.364 179.056C158.542 179.234 158.542 179.501 158.453 179.68C158.186 179.68 158.097 179.769 157.918 179.769Z" fill="#231F20"/>
<path d="M53.589 191.264H53.5L15.4002 179.767C15.1331 179.678 15.0441 179.5 15.1331 179.232C15.2221 178.965 15.4892 178.876 15.6672 178.965L53.7671 190.462C54.0341 190.551 54.1231 190.819 54.0341 190.997C53.9451 191.175 53.8561 191.264 53.589 191.264Z" fill="#231F20"/>
<path d="M154.269 200H214C212.754 194.563 210.973 187.7 209.994 185.739C208.303 182.442 202.962 179.322 202.962 179.322C202.962 179.322 199.579 167.469 197.888 165.24C196.196 163.012 154.358 179.322 154.358 179.322L155.96 187.611C155.96 187.611 153.29 191.354 153.29 193.939C153.557 195.9 153.824 197.95 154.269 200Z" fill="#9B292B"/>
<path d="M196.018 180.391L161.657 190.818L196.018 180.391Z" fill="white"/>
<path d="M161.746 191.264C161.568 191.264 161.39 191.175 161.301 190.908C161.212 190.64 161.39 190.462 161.568 190.373L195.929 179.945C196.196 179.856 196.463 180.034 196.463 180.302C196.552 180.569 196.374 180.836 196.107 180.836L161.746 191.264Z" fill="#231F20"/>
<path d="M20.8303 23.2617H79.4933C83.1431 23.2617 86.1697 26.292 86.1697 29.9462V56.8623C86.1697 60.5165 83.1431 63.5468 79.4933 63.5468H20.8303C17.1805 63.5468 14.1539 60.5165 14.1539 56.8623V29.8571C14.1539 26.2029 17.0915 23.2617 20.8303 23.2617Z" fill="#007FA4"/>
<path d="M32.7587 54.2781C39.6908 54.2781 45.3103 48.6518 45.3103 41.7113C45.3103 34.7709 39.6908 29.1445 32.7587 29.1445C25.8267 29.1445 20.2072 34.7709 20.2072 41.7113C20.2072 48.6518 25.8267 54.2781 32.7587 54.2781Z" fill="white"/>
<mask id="mask0_1324_210" style="mask-type:alpha" maskUnits="userSpaceOnUse" x="20" y="29" width="26" height="26">
<path d="M32.7587 54.2781C39.6908 54.2781 45.3103 48.6518 45.3103 41.7113C45.3103 34.7709 39.6908 29.1445 32.7587 29.1445C25.8267 29.1445 20.2072 34.7709 20.2072 41.7113C20.2072 48.6518 25.8267 54.2781 32.7587 54.2781Z" fill="white"/>
</mask>
<g mask="url(#mask0_1324_210)">
<path d="M27.5956 35.0276C27.4176 36.721 27.6847 38.5035 28.2188 40.1078C28.3968 40.5534 28.5748 40.9991 28.9309 41.3556C29.376 41.7121 29.9101 41.9794 30.4442 41.9794C31.3344 42.1577 32.2246 42.2468 33.2038 42.2468C34.183 42.3359 35.0732 42.0686 35.8743 41.5338C36.7645 40.8208 36.6755 39.8404 37.0316 38.86C37.2986 38.147 38.1888 37.8796 38.4559 36.9884C38.5449 36.5427 38.6339 36.0971 38.5449 35.6515C38.4559 34.4037 37.9218 33.3342 37.1206 32.3538C36.0524 31.3734 34.6281 30.8387 33.1148 30.9278C31.7795 30.9278 30.2662 30.5713 30.0882 32.2647C29.554 32.0864 29.0199 32.2647 28.6639 32.5321C28.0407 33.3342 27.5956 34.1363 27.5956 35.0276Z" fill="white"/>
<path d="M33.2928 42.7816H33.2038C32.2246 42.7816 31.3344 42.6925 30.3552 42.5143C29.7321 42.4251 29.1089 42.1578 28.5748 41.7121C28.2188 41.2665 27.8627 40.8209 27.7737 40.197C27.1505 38.5036 26.9725 36.6319 27.1505 34.8494C27.2396 33.869 27.6847 32.9777 28.3968 32.2647C28.7529 31.9974 29.287 31.8191 29.7321 31.8191C30.0882 30.3931 31.5124 30.4822 32.5807 30.4822H33.1148C34.7171 30.3931 36.3194 30.9278 37.4767 32.0865C38.3669 33.0669 38.901 34.3146 38.99 35.6515C39.079 36.1863 38.99 36.721 38.901 37.1667C38.7229 37.6123 38.3669 38.0579 38.0108 38.3253C37.7437 38.5036 37.5657 38.771 37.4767 39.0383C37.3877 39.3057 37.2986 39.6622 37.2096 39.9296C37.1206 40.7317 36.7645 41.4447 36.1414 41.8904C35.2512 42.6034 34.272 42.8708 33.2928 42.7816ZM28.0407 35.1168C27.8627 36.8102 28.1297 38.4144 28.6639 40.0187C28.7529 40.4644 29.0199 40.8209 29.287 41.0882C29.6431 41.3556 30.0882 41.5339 30.5332 41.623C31.4234 41.8012 32.3136 41.8904 33.2038 41.8904C34.094 41.9795 34.8951 41.7121 35.6073 41.2665C36.0524 40.91 36.3194 40.3752 36.3194 39.7513C36.4085 39.3948 36.4975 39.0383 36.5865 38.771C36.7645 38.3253 37.0316 38.0579 37.3877 37.7014C37.6547 37.5232 37.8327 37.2558 38.0108 36.8993C38.0998 36.5428 38.1888 36.1863 38.0998 35.7407C38.0108 34.6711 37.5657 33.6016 36.8535 32.7104C35.7853 31.8191 34.45 31.3735 33.1148 31.4626H32.4916C31.0674 31.3735 30.6223 31.4626 30.5332 32.443C30.5332 32.6212 30.4442 32.7104 30.3552 32.7995C30.2662 32.9777 30.0882 32.9777 29.9991 32.9777C29.6431 32.8886 29.287 32.9777 28.9309 33.156C28.3968 33.6908 28.0407 34.4038 28.0407 35.1168Z" fill="#231F20"/>
<path d="M31.8685 57.6656L30.0882 44.5641L36.3195 45.3662L38.5449 57.5765L43.886 57.1309C43.708 50.8029 41.4825 45.4553 39.7912 44.2967C37.7437 42.8707 30.2662 43.1381 30.2662 43.1381C30.2662 43.1381 24.213 45.7227 22.6997 48.5748C21.9875 49.8225 21.6314 53.2985 21.8095 57.7548H31.8685V57.6656Z" fill="#9B292B"/>
<path d="M36.3195 41.7115L36.9426 45.0983C36.4975 46.346 35.2512 47.1482 33.916 47.0591C32.5807 46.8808 31.4235 46.0787 30.6223 44.92L29.9992 38.6812C29.9992 38.6812 31.5125 37.6117 30.7113 34.1357C32.5807 34.7596 34.6281 34.7596 36.4975 34.314C36.4975 34.314 37.9218 38.0573 37.8328 39.8398C37.8328 40.7311 37.2096 41.5332 36.3195 41.7115Z" fill="white"/>
<path d="M34.272 47.5939C34.094 47.5939 34.005 47.5939 33.827 47.5939C32.3136 47.4157 31.0674 46.5244 30.2662 45.1875C30.2662 45.0984 30.2662 45.0984 30.1772 45.0093L29.5541 38.7704C29.5541 38.5922 29.6431 38.4139 29.7321 38.3248C29.7321 38.3248 30.9784 37.3444 30.2662 34.225C30.2662 34.0467 30.2662 33.8685 30.4443 33.7794C30.5333 33.6902 30.7113 33.6011 30.8894 33.6902C32.6697 34.225 34.6281 34.3141 36.4085 33.8685C36.6755 33.7794 36.8536 33.9576 36.9426 34.1359C37.0316 34.3141 38.3669 37.9683 38.2779 39.84C38.2779 40.8203 37.7438 41.7116 36.8536 42.0681L37.3877 45.0984C37.3877 45.1875 37.3877 45.2767 37.3877 45.3658C36.9426 46.6136 35.6963 47.5048 34.272 47.5939ZM31.0674 44.7419C31.6905 45.7223 32.7587 46.4353 33.916 46.6136C34.9842 46.7027 36.0524 46.0788 36.4085 45.0984L35.7854 41.8007C35.7854 41.7116 35.7854 41.5334 35.8744 41.4442C35.9634 41.3551 36.0524 41.266 36.1414 41.266C36.8536 41.0877 37.2987 40.4638 37.2097 39.7508C37.2987 38.4139 36.4085 35.8293 36.0524 34.8489C34.4501 35.2054 32.7587 35.1163 31.1564 34.7598C31.6015 37.2553 30.8003 38.4139 30.3552 38.8596L31.0674 44.7419Z" fill="#231F20"/>
<path d="M33.8269 36.7207C33.8269 36.7207 35.0732 38.5032 34.8061 38.8597C34.5391 39.2162 33.7379 38.9489 33.7379 38.9489" fill="white"/>
<path d="M34.183 39.4834C34.0049 39.4834 33.7379 39.4834 33.5599 39.3943C33.2928 39.3052 33.2038 39.1269 33.2038 38.8596C33.2928 38.5922 33.4708 38.5031 33.7379 38.5031C33.9159 38.5031 34.094 38.5031 34.361 38.5031C34.094 37.9683 33.8269 37.3444 33.4708 36.8988C33.2928 36.7205 33.3818 36.4532 33.5599 36.2749C33.7379 36.0966 34.0049 36.1858 34.183 36.364C35.6073 38.5031 35.2512 38.8596 35.0732 39.0378C34.8951 39.3943 34.5391 39.4834 34.183 39.4834Z" fill="#231F20"/>
<path d="M32.6869 36.9854C32.7855 36.9823 32.8581 36.7406 32.849 36.4454C32.8399 36.1502 32.7527 35.9134 32.6541 35.9164C32.5555 35.9194 32.483 36.1612 32.492 36.4564C32.5011 36.7516 32.5883 36.9884 32.6869 36.9854Z" fill="#231F20"/>
<path d="M35.5329 36.7188C35.6315 36.7157 35.704 36.474 35.695 36.1788C35.6859 35.8836 35.5987 35.6467 35.5001 35.6498C35.4015 35.6528 35.329 35.8946 35.338 36.1898C35.3471 36.485 35.4343 36.7218 35.5329 36.7188Z" fill="#231F20"/>
<path d="M31.3344 37.6113C31.0674 37.2547 30.8003 36.9874 30.4442 36.8091C30.2662 36.72 30.0882 36.6309 29.8211 36.6309C29.6431 36.6309 29.465 36.72 29.376 36.8091C28.9309 37.0765 28.6639 37.6113 28.6639 38.0569C28.6639 38.3243 28.6639 38.5025 28.7529 38.7699C28.9309 39.1264 29.198 39.3938 29.5541 39.4829C29.9101 39.6612 30.2662 39.7503 30.6223 39.8394" fill="white"/>
<path d="M30.5333 40.3752H30.4442C30.0882 40.2861 29.6431 40.1969 29.287 40.0187C28.8419 39.8404 28.4858 39.4839 28.3078 39.0383C28.2188 38.7709 28.1298 38.4144 28.2188 38.147C28.3078 37.5232 28.5749 36.8993 29.109 36.5428C29.5541 36.1863 30.1772 36.1863 30.7113 36.5428C31.0674 36.8101 31.4234 37.0775 31.6905 37.434C31.8685 37.6123 31.7795 37.8797 31.6015 38.0579C31.4234 38.2362 31.1564 38.147 30.9784 37.9688C30.8003 37.7014 30.5333 37.5232 30.2662 37.2558C30.1772 37.1667 30.0882 37.1667 29.9101 37.1667C29.8211 37.1667 29.7321 37.2558 29.6431 37.2558C29.376 37.5232 29.109 37.7905 29.109 38.2362C29.109 38.4144 29.109 38.5927 29.198 38.6818C29.287 38.9492 29.5541 39.1274 29.7321 39.2166C29.9992 39.3948 30.3552 39.4839 30.7113 39.4839C30.9784 39.5731 31.0674 39.8404 30.9784 40.1078C30.8003 40.2861 30.7113 40.3752 30.5333 40.3752Z" fill="#231F20"/>
<path d="M35.8743 40.0186L32.8477 40.2859C33.1148 40.7316 33.6489 41.0881 34.272 41.0881C34.9842 40.9098 35.5183 40.5533 35.8743 40.0186Z" fill="#231F20"/>
</g>
<path d="M79.1373 36.0963H49.9393C49.6722 36.0963 49.4942 35.9181 49.4942 35.6507C49.4942 35.3833 49.6722 35.2051 49.9393 35.2051H79.1373C79.4043 35.2051 79.5824 35.3833 79.5824 35.6507C79.5824 35.9181 79.3153 36.0963 79.1373 36.0963Z" fill="white"/>
<path d="M79.1373 43.7604H49.9393C49.6722 43.7604 49.4942 43.5822 49.4942 43.3148C49.4942 43.0474 49.6722 42.8691 49.9393 42.8691H79.1373C79.4043 42.8691 79.5824 43.0474 79.5824 43.3148C79.5824 43.5822 79.3153 43.7604 79.1373 43.7604Z" fill="white"/>
<path d="M72.1048 51.5143H49.8503C49.5832 51.5143 49.4052 51.3361 49.4052 51.0687C49.4052 50.8013 49.5832 50.623 49.8503 50.623H72.1048C72.3719 50.623 72.5499 50.8013 72.5499 51.0687C72.5499 51.3361 72.3719 51.5143 72.1048 51.5143Z" fill="white"/>
<path d="M79.4933 63.4582C79.4933 63.4582 93.2021 63.6364 93.0241 63.4582C92.8461 63.2799 82.1639 53.6543 82.1639 53.6543L79.4933 63.4582Z" fill="#007FA4"/>
<path d="M192.191 46.3456H133.438C129.789 46.3456 126.762 43.3153 126.762 39.6612V12.745C126.762 9.09084 129.789 6.06055 133.438 6.06055H192.191C195.84 6.06055 198.867 9.09084 198.867 12.745V39.6612C198.867 43.3153 195.84 46.3456 192.191 46.3456Z" fill="#007FA4"/>
<path d="M192.369 18.8952H163.171C162.904 18.8952 162.725 18.7169 162.725 18.4495C162.725 18.1822 162.904 18.0039 163.171 18.0039H192.28C192.547 18.0039 192.725 18.1822 192.725 18.4495C192.725 18.7169 192.547 18.8952 192.369 18.8952Z" fill="white"/>
<path d="M192.369 26.6491H163.171C162.904 26.6491 162.725 26.4708 162.725 26.2034C162.725 25.9361 162.904 25.7578 163.171 25.7578H192.28C192.547 25.7578 192.725 25.9361 192.725 26.2034C192.725 26.4708 192.547 26.6491 192.369 26.6491Z" fill="white"/>
<path d="M185.336 34.3141H163.082C162.814 34.3141 162.636 34.1359 162.636 33.8685C162.636 33.6011 162.814 33.4229 163.082 33.4229H185.336C185.603 33.4229 185.781 33.6011 185.781 33.8685C185.781 34.1359 185.603 34.3141 185.336 34.3141Z" fill="white"/>
<path d="M133.438 46.3459C133.438 46.3459 119.73 46.5241 119.908 46.3459C120.086 46.1676 130.768 36.542 130.768 36.542L133.438 46.3459Z" fill="#007FA4"/>
<path d="M143.497 14.1719H143.854C144.388 14.261 144.922 14.4393 145.367 14.7066C146.257 14.261 147.236 14.1719 148.215 14.6175C151.242 15.687 156.227 22.1041 153.379 25.3127C152.666 25.8474 151.865 26.2039 150.975 26.2931C148.483 26.7387 145.99 26.8278 143.497 26.6496C142.607 26.6496 141.628 26.4713 140.827 26.0257C138.334 24.6888 139.848 19.3412 140.738 17.2913C141.183 16.3109 141.717 15.4196 142.34 14.6175C142.696 14.3501 143.052 14.261 143.497 14.1719Z" fill="white"/>
<path d="M145.99 37.1649C152.922 37.1649 158.542 31.5385 158.542 24.5981C158.542 17.6576 152.922 12.0312 145.99 12.0312C139.058 12.0312 133.438 17.6576 133.438 24.5981C133.438 31.5385 139.058 37.1649 145.99 37.1649Z" fill="white"/>
<mask id="mask1_1324_210" style="mask-type:alpha" maskUnits="userSpaceOnUse" x="133" y="12" width="26" height="26">
<path d="M158.042 24.5981C158.042 31.2629 152.645 36.6649 145.99 36.6649C139.335 36.6649 133.938 31.2629 133.938 24.5981C133.938 17.9332 139.335 12.5312 145.99 12.5312C152.645 12.5312 158.042 17.9332 158.042 24.5981Z" fill="white" stroke="black"/>
</mask>
<g mask="url(#mask1_1324_210)">
<path d="M145.456 27.0943C144.744 27.0943 144.121 27.0943 143.409 27.0051C142.429 27.0051 141.45 26.7378 140.56 26.3813C137.889 24.8661 139.225 19.5185 140.293 17.2013C140.738 16.2209 141.272 15.2405 141.984 14.4383C142.429 14.0818 142.874 13.8145 143.409 13.8145H143.765C144.299 13.9036 144.833 14.0818 145.278 14.2601C146.257 13.8145 147.325 13.8145 148.216 14.2601C150.352 15.0622 153.557 18.449 154.358 21.5684C154.803 22.9053 154.536 24.4205 153.557 25.5791C152.844 26.2921 151.865 26.6486 150.886 26.7378C149.195 27.0051 147.325 27.1834 145.456 27.0943ZM143.587 14.6166C143.23 14.6166 142.874 14.7948 142.607 14.9731C141.984 15.7752 141.45 16.5774 141.094 17.4686C140.026 19.7859 138.958 24.5096 141.005 25.6683C141.806 26.0248 142.607 26.203 143.498 26.203C145.99 26.3813 148.483 26.203 150.886 25.8465C151.687 25.7574 152.488 25.49 153.112 24.9552C153.913 24.064 154.091 22.8162 153.735 21.7467C153.022 18.8947 150.085 15.6861 148.126 14.9731C147.325 14.6166 146.435 14.6166 145.634 15.0622C145.456 15.1513 145.278 15.1513 145.189 15.0622C144.744 14.884 144.299 14.7948 143.854 14.6166H143.587Z" fill="#231F20"/>
<path d="M141.717 37.8783C142.073 33.9568 142.34 28.9657 142.34 28.8766L147.859 29.0548L147.503 37.7892L158.097 35.9176C157.206 33.9568 156.138 32.1742 154.892 30.4808C152.399 27.094 146.969 27.094 146.791 27.094C146.969 27.094 149.373 27.094 142.34 26.7375C134.685 26.2919 132.459 35.3828 132.459 35.3828L133.527 35.9176L141.717 37.8783Z" fill="#9B292B"/>
</g>
<path d="M143.141 25.7568L142.518 29.1436C142.518 30.124 143.23 30.9262 144.299 30.9262C144.477 30.9262 144.566 30.9262 144.744 30.9262C146.079 30.837 147.236 30.124 148.037 29.0545L148.75 24.7764C149.106 23.1722 149.373 21.5679 149.551 19.9636C147.859 20.4984 145.901 18.3594 145.367 17.0225C145.1 17.9137 145.278 18.805 145.901 19.518C145.011 19.1615 144.21 18.4485 143.943 17.4681C143.408 17.8246 142.963 18.2702 142.607 18.7159C142.251 19.2506 141.984 19.7854 141.806 20.4093C141.45 21.4788 141.183 23.083 141.717 24.0634C141.806 24.8656 142.34 25.4895 143.141 25.7568Z" fill="white"/>
<path d="M144.388 31.462C143.765 31.462 143.23 31.2837 142.785 30.8381C142.34 30.3924 142.073 29.7686 142.073 29.1447C142.073 29.0555 142.518 26.8274 142.607 25.9361C141.984 25.5796 141.45 24.9557 141.094 24.3319C140.382 22.995 140.916 21.1233 141.094 20.3212C141.272 19.6973 141.628 19.0734 141.984 18.5386C141.984 18.5386 143.319 17.1126 143.765 17.1126C143.943 17.1126 144.032 17.2017 144.121 17.38C144.21 17.7365 144.388 18.093 144.655 18.3604C144.566 17.9148 144.566 17.38 144.744 16.9344C144.833 16.7561 144.922 16.667 145.1 16.667C145.278 16.667 145.456 16.7561 145.456 16.9344C145.901 18.093 147.77 20.0538 149.195 19.6082C149.284 19.6082 149.462 19.6082 149.551 19.6973C149.64 19.7864 149.729 19.8755 149.729 20.0538C149.64 21.2124 149.462 22.2819 149.195 23.4406C149.106 23.9753 149.017 24.421 148.928 24.9557L148.215 29.2338C148.215 29.3229 148.215 29.3229 148.126 29.4121C147.325 30.5707 145.99 31.3728 144.566 31.462H144.388ZM142.874 29.3229C142.874 29.6794 143.052 30.0359 143.319 30.3033C143.676 30.5707 144.121 30.7489 144.655 30.6598C145.812 30.5707 146.88 29.9468 147.592 29.0555L148.304 24.8666C148.394 24.3319 148.483 23.8862 148.572 23.3515C148.75 22.4602 148.928 21.5689 149.017 20.5885C147.681 20.4994 146.435 19.7864 145.634 18.6278C145.723 18.8951 145.901 19.1625 146.079 19.3408C146.168 19.519 146.168 19.6973 146.079 19.7864C145.99 19.9647 145.812 20.0538 145.634 19.9647C144.744 19.6082 144.032 18.9843 143.676 18.1821C143.319 18.4495 142.874 18.8951 142.785 18.9843C142.429 19.4299 142.162 19.9647 141.984 20.5885C141.539 21.6581 141.539 22.8167 141.895 23.9753C142.162 24.5992 142.607 25.134 143.23 25.4014C143.408 25.4905 143.587 25.6687 143.497 25.847C143.497 25.9361 142.874 29.1447 142.874 29.3229Z" fill="#231F20"/>
<path d="M148.483 22.4601C148.572 22.1927 148.75 22.0144 149.017 21.9253C149.195 21.8362 149.462 21.7471 149.729 21.7471C149.818 21.7471 149.996 21.7471 150.085 21.7471C150.174 21.7471 150.263 21.8362 150.352 21.9253C150.53 22.0144 150.708 22.2818 150.708 22.4601C150.708 22.6383 150.708 22.8166 150.619 22.9948C150.53 23.1731 150.53 23.3513 150.352 23.5296C150.174 23.8861 149.818 24.0644 149.462 24.1535C149.106 24.2426 148.661 24.1535 148.305 23.9752" fill="white"/>
<path d="M149.195 24.4216C148.839 24.4216 148.483 24.3325 148.215 24.1542C148.037 24.0651 147.948 23.8869 148.037 23.7086C148.126 23.5304 148.305 23.4412 148.483 23.5304C148.483 23.5304 148.483 23.5304 148.572 23.5304C149.106 23.8869 149.818 23.7086 150.085 23.1738C150.174 22.9956 150.263 22.9065 150.263 22.7282C150.352 22.6391 150.352 22.4608 150.352 22.3717C150.352 22.1935 150.263 22.1043 150.085 22.0152L149.996 21.9261C149.907 21.9261 149.818 21.9261 149.729 21.9261C149.551 21.9261 149.284 22.0152 149.106 22.1043C148.928 22.1935 148.839 22.3717 148.75 22.55C148.661 22.7282 148.483 22.8173 148.305 22.8173C148.126 22.7282 148.037 22.55 148.037 22.3717V22.2826C148.215 21.9261 148.394 21.7478 148.75 21.5696C149.017 21.3913 149.284 21.3022 149.551 21.3022C149.729 21.2131 149.907 21.2131 150.085 21.3022C150.174 21.3022 150.352 21.3913 150.441 21.4804C150.708 21.6587 150.886 21.9261 150.975 22.1935C150.975 22.4608 150.975 22.6391 150.886 22.9065C150.797 23.0847 150.708 23.3521 150.619 23.5304C150.352 24.1542 149.818 24.5107 149.195 24.4216Z" fill="#231F20"/>
<path d="M144.121 20.6777C144.121 20.6777 142.696 22.1038 142.874 22.4603C143.052 22.8168 143.854 22.7276 143.854 22.7276" fill="white"/>
<path d="M143.765 23.0829C143.319 23.0829 142.874 22.9046 142.518 22.6372C142.429 22.459 142.162 22.0134 143.765 20.4091C143.943 20.2308 144.121 20.2308 144.299 20.4091C144.477 20.5873 144.477 20.8547 144.299 20.9438C143.854 21.3003 143.497 21.746 143.23 22.1916C143.408 22.2807 143.587 22.2807 143.765 22.2807C143.943 22.2807 144.121 22.5481 144.121 22.7264C144.121 22.9046 143.943 22.9937 143.765 23.0829Z" fill="#231F20"/>
<path d="M146.216 21.2146C146.298 21.0357 146.256 20.8404 146.122 20.7783C145.988 20.7162 145.812 20.8108 145.73 20.9897C145.647 21.1685 145.689 21.3638 145.823 21.4259C145.957 21.488 146.133 21.3934 146.216 21.2146Z" fill="#231F20"/>
<path d="M143.183 20.6774C143.266 20.4986 143.224 20.3033 143.089 20.2412C142.955 20.1791 142.78 20.2737 142.697 20.4526C142.614 20.6314 142.656 20.8267 142.791 20.8888C142.925 20.9509 143.101 20.8563 143.183 20.6774Z" fill="#231F20"/>
<path d="M142.607 23.3516L145.1 23.5298C145.1 24.1537 144.655 24.5993 144.032 24.5993C143.943 24.5993 143.854 24.5993 143.765 24.5993C143.141 24.5102 142.696 23.9754 142.607 23.3516Z" fill="#231F20"/>
</svg>
