<svg width="8" height="17" viewBox="0 0 8 17" fill="none" xmlns="http://www.w3.org/2000/svg">
<path fill-rule="evenodd" clip-rule="evenodd" d="M1.8 8.8075V16.5251C1.8 16.6193 1.9 16.7134 2 16.7134H5.1C5.2 16.7134 5.3 16.6193 5.3 16.5251V8.61926H7.5C7.6 8.61926 7.7 8.52514 7.7 8.43103L8 6.1722C8 6.07808 7.9 5.98397 7.8 5.98397H5.3V4.19573C5.3 3.81926 5.6 3.44279 6.1 3.44279H7.8C7.9 3.44279 8 3.34867 8 3.25456V0.901614C8 0.807497 7.9 0.713379 7.8 0.713379H4.9C3.2 0.713379 1.8 2.03103 1.8 3.63103V5.88985H0.2C0.0999998 5.88985 0 5.98397 0 6.07808V8.43103C0 8.52514 0.0999998 8.61926 0.2 8.61926H1.7V8.8075H1.8Z" fill="#007FA4"/>
</svg>
