<svg width="16" height="16" viewBox="0 0 16 16" fill="none" xmlns="http://www.w3.org/2000/svg">
<path d="M14.1111 11.889H12.6316C12.3911 11.0884 11.6555 10.5001 10.7778 10.5001C9.90001 10.5001 9.16498 11.0884 8.92389 11.889H1.88886C1.58219 11.889 1.33331 12.1379 1.33331 12.4445C1.33331 12.7512 1.58219 13.0001 1.88886 13.0001H8.92386C9.16441 13.8006 9.89998 14.3889 10.7777 14.3889C11.6555 14.3889 12.3905 13.8006 12.6316 13.0001H14.1111C14.4183 13.0001 14.6666 12.7512 14.6666 12.4445C14.6666 12.1379 14.4183 11.889 14.1111 11.889ZM10.7778 13.2778C10.3183 13.2778 9.94443 12.904 9.94443 12.4445C9.94443 11.9851 10.3183 11.6112 10.7778 11.6112C11.2372 11.6112 11.6111 11.9851 11.6111 12.4445C11.6111 12.904 11.2372 13.2778 10.7778 13.2778Z" fill="#007FA4"/>
<path d="M14.1111 3.00019H12.6316C12.3905 2.19965 11.6555 1.61133 10.7778 1.61133C9.90001 1.61133 9.16498 2.19965 8.92386 3.00019H1.88886C1.58219 3.00019 1.33331 3.24907 1.33331 3.55573C1.33331 3.86239 1.58219 4.11127 1.88886 4.11127H8.92386C9.16498 4.91183 9.89998 5.50016 10.7778 5.50016C11.6556 5.50016 12.3906 4.91183 12.6316 4.1113H14.1111C14.4183 4.1113 14.6666 3.86242 14.6666 3.55576C14.6666 3.24909 14.4183 3.00019 14.1111 3.00019ZM10.7778 4.38905C10.3183 4.38905 9.94443 4.01518 9.94443 3.55573C9.94443 3.09628 10.3183 2.72241 10.7778 2.72241C11.2372 2.72241 11.6111 3.09628 11.6111 3.55573C11.6111 4.01518 11.2372 4.38905 10.7778 4.38905Z" fill="#007FA4"/>
<path d="M14.1111 7.4446H7.0761C6.83498 6.64406 6.09998 6.05573 5.22222 6.05573C4.34446 6.05573 3.60943 6.64406 3.36834 7.4446H1.88886C1.58219 7.4446 1.33331 7.69347 1.33331 8.00014C1.33331 8.3068 1.58219 8.55568 1.88886 8.55568H3.36831C3.60943 9.35622 4.34443 9.94454 5.22219 9.94454C6.09995 9.94454 6.83498 9.35622 7.07607 8.55568H14.1111C14.4183 8.55568 14.6666 8.3068 14.6666 8.00014C14.6666 7.69347 14.4183 7.4446 14.1111 7.4446ZM5.22219 8.83346C4.76274 8.83346 4.38886 8.45959 4.38886 8.00014C4.38886 7.54069 4.76274 7.16681 5.22219 7.16681C5.68165 7.16681 6.05553 7.54069 6.05553 8.00014C6.05553 8.45959 5.68165 8.83346 5.22219 8.83346Z" fill="#007FA4"/>
</svg>
