<svg width="16" height="17" viewBox="0 0 16 17" fill="none" xmlns="http://www.w3.org/2000/svg">
<path d="M8 6.31338C6.6 6.31338 5.5 7.41338 5.5 8.81338C5.5 10.2134 6.6 11.3134 8 11.3134C9.4 11.3134 10.5 10.2134 10.5 8.81338C10.5 7.41338 9.4 6.31338 8 6.31338ZM11.6 0.713379H4.4C2 0.713379 0 2.71338 0 5.11338V12.3134C0 14.7134 2 16.7134 4.4 16.7134H11.6C14 16.7134 16 14.7134 16 12.3134V5.11338C16 2.71338 14 0.713379 11.6 0.713379ZM8 12.8134C5.8 12.8134 4 11.0134 4 8.81338C4 6.61338 5.8 4.81338 8 4.81338C10.2 4.81338 12 6.61338 12 8.81338C12 11.0134 10.2 12.8134 8 12.8134ZM13.7 5.11338C13.5 5.31338 13.3 5.41338 13 5.41338C12.7 5.41338 12.5 5.31338 12.3 5.11338C12.1 4.91338 12 4.71338 12 4.41338C12 4.11338 12.1 3.91338 12.3 3.71338C12.5 3.51338 12.7 3.41338 13 3.41338C13.3 3.41338 13.5 3.51338 13.7 3.71338C13.9 3.91338 14 4.21338 14 4.41338C14 4.71338 13.9 4.91338 13.7 5.11338Z" fill="#007FA4"/>
</svg>
