<svg width="183" height="200" viewBox="0 0 183 200" fill="none" xmlns="http://www.w3.org/2000/svg">
<g clip-path="url(#clip0_1252_224)">
<path d="M180.356 103.446C180.356 103.446 180.04 105.505 172.752 111.525C165.545 130.773 150.257 153.505 140.04 158.495C129.584 163.565 117.228 125.149 117.228 125.149L135.05 110.733C134.099 107.802 136.317 117.941 140.752 130.297C146.455 123.881 159.208 107.089 159.208 107.089C159.208 107.089 158.416 102.258 158.178 100.119C158.02 98.931 158.02 97.7429 158.178 96.5547C158.257 95.2874 158.97 92.1191 160.554 91.8023C161.03 91.723 161.505 92.0399 161.822 92.4359C162.059 92.832 162.218 93.3072 162.297 93.7825L163.01 97.1884C163.089 97.9013 163.327 98.5349 163.723 99.1686C164.673 100.674 166.812 100.753 168.317 101.07L173.782 102.099C174.257 102.178 180.356 103.367 180.356 103.446Z" fill="white"/>
<path d="M138.059 159.367C137.267 159.367 136.554 159.209 135.842 158.892C126.416 154.852 117.228 126.496 116.832 125.308C116.752 125.149 116.832 124.991 116.99 124.832L134.574 110.654C134.495 110.258 134.495 110.02 134.574 109.941C134.653 109.862 134.812 109.783 134.97 109.783C135.208 109.862 135.287 110.1 135.446 110.575C135.525 110.733 135.446 110.813 135.366 110.971C136.871 117.228 138.772 123.407 140.911 129.506C146.455 123.169 157.545 108.595 158.733 107.011C158.574 106.139 157.941 102.1 157.782 100.199C157.703 99.1689 157.703 98.1392 157.782 97.1095V96.5551C157.861 95.6046 158.495 91.8026 160.554 91.4066C161.188 91.3274 161.822 91.6442 162.218 92.1987C162.535 92.6739 162.693 93.1492 162.772 93.7036L163.564 97.1095C163.644 97.7432 163.881 98.3769 164.198 98.9313C164.911 100.04 166.416 100.278 167.762 100.515L168.554 100.674L174.733 101.862C180.99 103.05 180.99 103.05 180.911 103.446C180.832 103.842 180.119 105.981 173.228 111.684C165.624 131.961 150.257 153.981 140.356 158.813C139.564 159.129 138.851 159.367 138.059 159.367ZM117.703 125.308C118.653 128.238 127.525 154.456 136.158 158.179C137.347 158.733 138.693 158.733 139.881 158.179C149.624 153.426 164.832 131.565 172.436 111.446C172.436 111.367 172.515 111.288 172.515 111.288C177.901 106.852 179.406 104.634 179.802 103.842C178.693 103.605 175.604 103.05 174.495 102.813L168.317 101.624L167.525 101.466C166.099 101.228 164.277 100.912 163.406 99.4858C163.01 98.8521 162.772 98.1392 162.693 97.4264L161.901 94.0204C161.822 93.6244 161.663 93.1491 161.505 92.7531C161.347 92.4363 161.03 92.2779 160.713 92.2779C159.525 92.4363 158.733 95.2086 158.653 96.6343V97.1887C158.574 98.1392 158.574 99.169 158.653 100.119C158.891 102.258 159.604 107.011 159.683 107.09C159.683 107.169 159.683 107.327 159.604 107.407C159.446 107.565 146.772 124.278 141.149 130.614C141.069 130.694 140.911 130.773 140.752 130.773C140.594 130.773 140.515 130.614 140.436 130.535C138.218 124.357 136.317 118.02 134.733 111.684L117.703 125.308Z" fill="#231F20"/>
<path d="M166.337 101.466C167.287 103.367 167.762 105.505 167.842 107.644L166.337 101.466Z" fill="white"/>
<path d="M167.762 107.961C167.525 107.961 167.366 107.802 167.366 107.565C167.366 105.505 166.891 103.446 165.941 101.624C165.782 101.466 165.861 101.149 166.02 101.07C166.178 100.911 166.495 100.991 166.574 101.149C166.574 101.149 166.574 101.228 166.653 101.228C167.604 103.208 168.158 105.347 168.158 107.565C168.158 107.802 168 107.961 167.762 107.961Z" fill="#231F20"/>
<path d="M19.6436 134.178L32.8713 123.327L22.4158 103.842L19.6436 134.178Z" fill="white"/>
<path d="M19.6436 134.574C19.5644 134.574 19.4852 134.574 19.4852 134.495C19.3267 134.416 19.2475 134.257 19.2475 134.099L21.9406 103.841C21.9406 103.604 22.099 103.445 22.3366 103.445C22.4951 103.445 22.6535 103.525 22.7327 103.683L33.2673 123.089C33.3465 123.247 33.3465 123.485 33.1881 123.564L19.9604 134.416C19.8812 134.495 19.7228 134.574 19.6436 134.574ZM22.6535 105.267L20.1188 133.228L32.3168 123.247L22.6535 105.267Z" fill="#231F20"/>
<path d="M125.782 172.595H45.9406V198.258H125.782V172.595Z" fill="#9B292B"/>
<path d="M55.9208 76.04C53.2277 76.7529 50.6931 77.7826 48.2376 79.1291C44.8317 81.1093 22.4158 99.9608 22.4158 99.9608L36.3564 121.505L63.2079 102.971L55.9208 76.04Z" fill="#9B292B"/>
<path d="M36.9109 122.931L21.0693 97.584L14.0198 102.02L29.3069 128.237L36.9109 122.931Z" fill="#9B292B"/>
<path d="M29.3069 128.634C29.1485 128.634 28.9901 128.554 28.9901 128.475L13.703 102.178C13.6237 102.02 13.6237 101.782 13.8614 101.624L20.9109 97.188C21.0693 97.1088 21.3069 97.1088 21.4653 97.3464L37.3069 122.693C37.3861 122.851 37.3861 123.089 37.2277 123.247L29.703 128.554C29.5445 128.554 29.4653 128.634 29.3069 128.634ZM14.5742 102.099L29.4653 127.604L36.3564 122.772L20.9901 98.0593L14.5742 102.099Z" fill="#231F20"/>
<path d="M122.851 80.5547C124.99 82.2973 126.97 84.2775 128.713 86.4161C131.089 89.5844 140.04 118.574 140.04 118.574L122.931 130.06V80.5547H122.851Z" fill="#9B292B"/>
<path d="M115.723 127.366L141.624 115.723L145.03 123.327L115.564 137.505L115.723 127.366Z" fill="#9B292B"/>
<path d="M115.564 137.901C115.485 137.901 115.406 137.901 115.327 137.822C115.248 137.743 115.168 137.584 115.168 137.505L115.327 127.366C115.327 127.208 115.406 127.05 115.564 127.05L141.465 115.406C141.703 115.327 141.861 115.406 142.02 115.564L145.505 123.168C145.584 123.327 145.505 123.564 145.347 123.723L115.881 137.901C115.644 137.901 115.644 137.901 115.564 137.901ZM116.119 127.604L115.96 136.871L144.554 123.168L141.386 116.277L116.119 127.604Z" fill="#231F20"/>
<path d="M70.2574 67.3271H101.465L97.2673 77.1489H79.1287L70.2574 72.9509V67.3271Z" fill="#9B292B"/>
<path d="M97.2673 77.5444H79.1287C79.0495 77.5444 79.0495 77.5444 78.9703 77.5444L70.1782 73.3464C70.0198 73.2672 69.9406 73.1088 69.9406 73.0296V67.4058C69.9406 67.1682 70.099 67.0098 70.3366 67.0098H101.545C101.703 67.0098 101.782 67.089 101.861 67.1682C101.941 67.2474 101.941 67.4058 101.861 67.5642L97.6634 77.386C97.5049 77.4652 97.4257 77.5444 97.2673 77.5444ZM79.2079 76.7523H97.0297L100.911 67.7226H70.6534V72.6335L79.2079 76.7523Z" fill="#231F20"/>
<path d="M77.2277 69.6235C71.2079 70.0196 65.2673 71.3661 59.6436 73.5839C50.4554 77.2275 46.5743 80.1582 46.2574 84.3562C45.9406 88.5542 46.2574 162.376 46.2574 162.376H125.624V86.0988C125.624 78.4948 118.337 76.8315 116.515 75.3265C114.693 73.8216 90.1386 67.3265 77.2277 69.6235Z" fill="#9B292B"/>
<path d="M105.98 42.2975C105.98 42.2975 110.812 24.9509 107.96 21.3074C105.109 17.6638 105.98 21.3074 105.98 21.3866C108.832 19.1688 105.188 15.0499 103.287 13.6242C101.782 12.5945 100.119 11.8816 98.3762 11.3272C94.099 9.82222 89.5841 9.10935 84.9901 9.18856C80.396 9.26777 76.0396 10.9311 72.4752 13.8618C67.0891 18.6143 65.5049 24.3173 66.3762 31.2876C67.0099 36.1985 68.6733 41.1094 69.1485 46.0202C74.8515 46.3371 80.6336 46.8915 86.4158 46.8123C91.0891 46.7331 103.525 47.7628 105.98 42.2975Z" fill="white"/>
<path d="M91.1683 47.2078H88.7129C87.8416 47.2078 87.1287 47.2078 86.495 47.2078C81.8218 47.287 77.0693 46.9702 72.4752 46.6534L69.2277 46.4157C68.9901 46.4157 68.8317 46.2573 68.8317 46.0197C68.5148 43.485 68.0396 40.8712 67.4059 38.4157C66.8515 36.1187 66.297 33.7425 66.0594 31.3662C65.1089 23.8415 67.0891 18.1385 72.3168 13.6237C75.8812 10.693 80.396 8.95038 85.0693 8.87117C89.6634 8.79197 94.2574 9.50484 98.6139 11.0098C100.436 11.485 102.099 12.2771 103.683 13.3068C105.188 14.4157 107.564 16.9504 107.564 19.2474C107.564 19.485 107.564 19.7227 107.485 19.9603C107.802 20.2771 108.119 20.6732 108.436 21.0692C111.446 24.8712 106.693 41.9009 106.535 42.4553C104.475 46.7326 96.8713 47.2078 91.1683 47.2078ZM87.0495 46.3365H88.7129C93.9406 46.4157 103.604 46.4949 105.584 42.1385C106.931 37.386 109.861 24.3959 107.644 21.5444C107.406 21.2276 107.168 20.99 107.01 20.7524C106.772 21.0692 106.535 21.386 106.218 21.6237C106.059 21.7821 105.822 21.7029 105.663 21.5444C105.584 21.4652 105.584 21.386 105.584 21.3068C105.426 20.4355 105.347 19.5642 105.98 19.2474C106.218 19.1682 106.455 19.1682 106.614 19.2474C106.614 19.1682 106.614 19.1682 106.614 19.089C106.614 17.188 104.475 14.8118 103.05 13.7821C101.545 12.8316 99.9604 12.0395 98.2178 11.5642C93.9406 10.0593 89.5049 9.34642 84.9901 9.42563C80.4752 9.50484 76.198 11.1682 72.7129 14.0197C67.7228 18.3761 65.901 23.7623 66.7723 31.0494C67.0891 33.4256 67.5643 35.8019 68.1188 38.0989C68.7525 40.5543 69.2277 43.0098 69.5445 45.4652L72.4752 45.6236C77.0693 45.9405 81.7426 46.2573 86.4158 46.1781H87.0495V46.3365ZM106.297 20.1979C106.297 20.2771 106.297 20.3563 106.297 20.5147C106.376 20.4355 106.376 20.3563 106.455 20.2771L106.297 20.1979Z" fill="#231F20"/>
<path d="M100.515 44.0397C101.703 37.8615 112.158 36.6734 111.366 43.9605C111.208 46.4951 110.099 48.9506 108.356 50.7724C106.535 52.5149 103.604 53.307 101.386 52.1981" fill="white"/>
<path d="M103.762 53.1486C102.891 53.1486 102.02 52.9902 101.228 52.5942C100.99 52.515 100.911 52.2774 101.069 52.0397C101.148 51.8021 101.386 51.7229 101.624 51.8813C103.842 52.8318 106.455 52.2774 108.198 50.5348C109.861 48.713 110.891 46.416 111.049 43.9605C111.446 40.317 108.99 39.5249 107.881 39.3665C105.109 38.9704 101.624 40.7922 100.99 44.1189C100.911 44.3566 100.673 44.4358 100.436 44.3566C100.277 44.2774 100.198 44.1189 100.198 43.9605C100.911 40.2378 104.95 38.0991 108.04 38.5744C110.099 38.8912 112.238 40.4754 111.842 44.0397C111.604 46.0991 110.891 49.0298 108.752 51.0892C107.327 52.3566 105.584 53.0694 103.762 53.1486Z" fill="#231F20"/>
<path d="M74.7723 43.1685C73.9802 36.9111 63.6832 35.0101 63.9208 42.3765C63.9208 44.9111 64.7921 47.3666 66.4555 49.3468C68.198 51.2477 70.9703 52.1982 73.3465 51.2477" fill="white"/>
<path d="M71.3663 52.0401C69.3861 52.0401 67.4851 51.1688 66.1386 49.6639C64.4752 47.6045 63.5247 45.0698 63.5247 42.3767C63.3663 38.8124 65.5841 37.3866 67.7228 37.2282C70.8911 36.9906 74.6931 39.3668 75.1683 43.1688C75.2475 43.4064 75.0891 43.6441 74.9307 43.6441C74.6931 43.7233 74.4554 43.5649 74.4554 43.4064C74.4554 43.4064 74.4554 43.3272 74.4554 43.248C74.0594 39.9213 70.6535 37.8619 67.8812 38.0203C66.7723 38.0995 64.3168 38.7332 64.396 42.3767C64.396 44.8322 65.1881 47.2084 66.7723 49.1094C68.3564 50.9312 70.8911 51.6441 73.1881 50.852C73.4257 50.7728 73.6634 50.852 73.7426 51.0896C73.8218 51.3272 73.7426 51.4857 73.5049 51.6441C72.7921 51.8817 72.0792 52.0401 71.3663 52.0401Z" fill="#231F20"/>
<path d="M74.5346 74.3767C74.5346 74.3767 79.2871 76.8322 87.4455 77.0698C95.6039 77.3074 96.9505 75.1688 96.9505 75.1688L96.7921 70.8124L96.3168 60.6738L95.9208 51.1688L77.2277 50.5352L76.3564 58.2975L76.0396 60.8322L74.5346 74.3767Z" fill="white"/>
<path d="M88.9505 77.5447H87.5247C79.3663 77.2279 74.6139 74.8517 74.3762 74.7724C74.2178 74.6932 74.1386 74.5348 74.1386 74.3764L76.8317 50.4556C76.8317 50.218 77.0693 50.0596 77.2277 50.0596L95.9208 50.6932C96.1584 50.6932 96.3168 50.8516 96.3168 51.0893L97.4257 75.1685C97.4257 75.2477 97.4257 75.3269 97.3465 75.4061C97.2673 75.5645 95.8416 77.5447 88.9505 77.5447ZM75.0099 74.1388C78.9703 75.7229 83.2475 76.5942 87.5247 76.6734C94.3366 76.9111 96.2376 75.4061 96.6337 75.0101L95.604 51.4853L77.6238 50.8516L75.0099 74.1388Z" fill="#231F20"/>
<path d="M76.1188 60.6732C77.6238 62.9702 79.6832 64.9504 82.0594 66.297C86.0198 68.6732 91.8812 71.3663 96.7921 70.8118L96.3168 60.6732C92.7525 60.99 89.1089 60.9108 85.5446 60.3564C82.3762 59.9603 79.1287 59.5643 76.3564 58.2178L76.1188 60.6732Z" fill="#231F20"/>
<path d="M95.4455 71.2082C90.3762 71.2082 84.8317 68.3568 81.901 66.6142C79.4456 65.2676 77.3069 63.2875 75.802 60.9112C75.7228 60.832 75.7228 60.7528 75.7228 60.6736L76.0396 58.1389C76.0396 57.9805 76.1188 57.9013 76.198 57.8221C76.2772 57.7429 76.4356 57.7429 76.5149 57.8221C79.3663 59.1686 82.6931 59.5647 85.6238 59.8815C89.1881 60.436 92.7525 60.5152 96.3168 60.1983C96.396 60.1983 96.5545 60.1983 96.6337 60.2775C96.7129 60.3568 96.7921 60.436 96.7921 60.5944L97.2673 70.733C97.2673 70.9706 97.1089 71.129 96.9505 71.129C96.396 71.2082 95.9208 71.2082 95.4455 71.2082ZM76.5149 60.5944C77.9406 62.8122 79.9208 64.634 82.2178 65.9013C85.3861 67.8023 91.2475 70.8122 96.396 70.4162L96 61.0696C92.5149 61.3073 89.0297 61.228 85.5446 60.7528C82.7723 60.436 79.604 60.0399 76.7525 58.8518L76.5149 60.5944Z" fill="#231F20"/>
<path d="M85.7029 62.6538L87.3663 62.733C95.2871 62.9707 101.861 56.7924 102.178 48.9509L102.97 26.2974L86.3366 29.7825L72.6336 25.1885L71.8416 47.8419C71.6039 55.6835 77.7822 62.337 85.7029 62.6538Z" fill="white"/>
<path d="M87.8416 63.1286H87.2871L85.6237 63.0494C77.5445 62.7326 71.1287 55.9207 71.4455 47.8415L72.2376 25.188C72.2376 25.0296 72.3168 24.9504 72.396 24.8712C72.4752 24.792 72.6336 24.792 72.7128 24.792L86.3366 29.3068L102.812 25.8217C102.97 25.8217 103.049 25.8217 103.129 25.9009C103.208 25.9801 103.287 26.1385 103.287 26.2177L102.495 48.8712C102.257 56.792 95.7623 63.0494 87.8416 63.1286ZM73.0297 25.7425L72.2376 47.8415C72 55.5247 78.0198 61.9405 85.7029 62.1781L87.3663 62.2573C95.0495 62.495 101.465 56.4752 101.703 48.8712L102.495 26.7722L86.4158 30.0989C86.3366 30.0989 86.2574 30.0989 86.1782 30.0989L73.0297 25.7425Z" fill="#231F20"/>
<path d="M86.8119 52.5151C85.8614 52.5151 84.9109 52.4359 83.9604 52.2774C83.7228 52.2774 83.5644 52.0398 83.6436 51.8022C83.6436 51.5646 83.8812 51.4061 84.1188 51.4854C85.4653 51.6438 86.8119 51.723 88.1584 51.6438C88.1584 51.6438 88.2376 51.6438 88.2376 51.5646C88.9505 50.4557 87.3663 44.7527 86.2574 41.426C86.1782 41.1883 86.2574 40.9507 86.495 40.8715C86.7327 40.7923 86.9703 40.8715 86.9703 41.1091C87.5248 42.6141 90.0594 50.218 88.8713 51.9606C88.7129 52.1982 88.4752 52.3566 88.1584 52.4358C87.6832 52.4358 87.2079 52.5151 86.8119 52.5151Z" fill="#231F20"/>
<path d="M94.3903 39.9189C94.431 38.5634 94.0386 37.4517 93.5138 37.436C92.9891 37.4202 92.5307 38.5064 92.4901 39.8619C92.4494 41.2175 92.8418 42.3292 93.3666 42.3449C93.8913 42.3606 94.3496 41.2745 94.3903 39.9189Z" fill="#231F20"/>
<path d="M82.4263 39.3269C82.4734 37.9716 82.0863 36.8581 81.5617 36.8399C81.037 36.8217 80.5736 37.9056 80.5265 39.2609C80.4794 40.6162 80.8665 41.7296 81.3911 41.7478C81.9158 41.7661 82.3792 40.6822 82.4263 39.3269Z" fill="#231F20"/>
<path d="M93.2277 57.8216C93.1485 57.8216 93.1485 57.8216 93.0693 57.8216C92.9901 57.8216 83.4851 54.7325 77.7822 54.7325C77.5445 54.8117 77.3069 54.6533 77.3069 54.4157C77.2277 54.1781 77.3861 53.9404 77.6238 53.9404C77.703 53.9404 77.7822 53.9404 77.8614 53.9404C83.7228 53.9404 92.9901 56.9503 93.3861 57.1087C93.6238 57.188 93.703 57.4256 93.6237 57.6632C93.5445 57.7424 93.3861 57.9008 93.2277 57.8216Z" fill="#231F20"/>
<path d="M65.901 22.8123L57.5049 13.941L68.6733 6.49549C68.6733 6.49549 82.7723 6.41629 87.5247 0.396484C87.5247 0.396484 98.7723 7.92124 107.168 6.97074C107.168 6.97074 115.881 13.545 118.099 13.4658L109.228 23.446L65.901 22.8123Z" fill="#9B292B"/>
<path d="M109.228 23.8418L65.901 23.2081C65.8218 23.2081 65.6633 23.1289 65.5841 23.0497L57.1881 14.2576C57.1089 14.1784 57.0297 14.02 57.1089 13.9408C57.1089 13.8616 57.1881 13.7032 57.2673 13.7032L68.4356 6.25763C68.5148 6.17842 68.594 6.17842 68.6732 6.17842C68.8317 6.17842 82.6138 6.02 87.2079 0.237824C87.3663 0.0794078 87.6039 0.000199877 87.7624 0.158616C87.8416 0.237824 99.0099 7.60416 107.089 6.65366C107.168 6.65366 107.327 6.65366 107.406 6.73287C110.812 9.34673 116.594 13.1487 118.099 13.1487C118.257 13.1487 118.416 13.2279 118.495 13.3863C118.574 13.5448 118.574 13.7032 118.416 13.7824L109.545 23.7626C109.465 23.7626 109.386 23.8418 109.228 23.8418ZM66.0594 22.416L109.069 23.0497L117.307 13.7824C114.455 12.9903 108.277 8.39624 107.01 7.44574C99.2475 8.23782 89.4257 2.21802 87.6039 0.950695C82.7723 6.49525 70.2574 6.89129 68.7525 6.89129L58.0594 14.02L66.0594 22.416Z" fill="#231F20"/>
<path d="M87.2871 18.1391C87.2871 18.1391 83.6436 16.8718 82.9307 15.8421C82.2178 14.8124 81.7426 13.6242 82.297 12.5945C82.8515 11.5648 83.406 11.1688 83.406 10.1391C83.406 9.10938 81.901 7.92127 81.901 7.92127L83.802 5.86186C84.1188 6.33711 84.6733 6.65394 85.3069 6.57473C86.099 6.41632 86.8119 6.02028 87.3663 5.46582C87.8416 6.09948 88.4753 6.41632 89.2673 6.49552C89.901 6.49552 90.5347 6.33711 91.0099 5.86186L93.0693 7.92127C93.0693 7.92127 91.4059 9.2678 91.7228 11.0104C92.0396 12.7529 92.9901 12.5153 92.6733 14.7331C92.3564 16.951 87.2871 18.1391 87.2871 18.1391Z" fill="white"/>
<path d="M87.0495 16.3959C87.0495 16.3959 84.5941 15.4454 84.0396 14.8118C83.5644 14.2573 83.5644 13.4652 84.0396 12.9108C84.5148 12.2771 84.7525 11.5642 84.8317 10.7722C84.7525 9.74245 84.4356 8.71275 83.9604 7.84146C85.0693 8.07908 86.3366 7.92067 87.3663 7.36621C88.396 7.99987 89.5842 8.15829 90.7723 7.92067C90.297 8.63354 89.9802 9.50483 89.9802 10.3761C90.0594 11.5642 90.9307 12.5939 90.9307 13.3068C90.9307 14.0989 90.9307 14.4157 90.4554 14.7325C89.9802 15.0494 87.0495 16.3959 87.0495 16.3959Z" fill="#D1D3D4"/>
<path d="M65.3465 27.0098C65.3465 27.0098 75.4059 36.5939 87.7624 36.0395C95.2871 35.6434 102.574 33.0296 108.673 28.5939V23.1286C108.673 23.1286 101.307 21.386 97.3465 20.7523C93.3861 20.1187 78.3366 20.5147 75.8812 20.7523C73.4257 20.99 65.3465 22.4949 65.3465 22.4949V27.0098Z" fill="#231F20"/>
<path d="M86.8119 36.5152C74.8515 36.5152 65.1881 27.4063 65.1089 27.3271C65.0297 27.2479 64.9505 27.1687 65.0297 27.0103V22.4954C65.0297 22.337 65.1881 22.0994 65.3465 22.0994C65.6634 22.0202 73.5049 20.5945 75.9604 20.3568C78.5742 20.1192 93.5445 19.7232 97.5049 20.3568C101.465 20.9905 108.832 22.7331 108.911 22.7331C109.069 22.8123 109.228 22.9707 109.228 23.1291V28.5944C109.228 28.6737 109.148 28.8321 109.069 28.9113C102.891 33.4261 95.5247 36.04 87.9208 36.5152H86.8119ZM65.7426 26.8519C66.9307 27.8816 76.3564 36.1984 87.7624 35.644C95.2079 35.2479 102.337 32.7133 108.356 28.3568V23.3667C106.931 23.0499 100.832 21.6242 97.3465 21.0697C93.3861 20.436 78.5742 20.8321 76.0396 21.0697C73.901 21.3865 67.3267 22.5746 65.8218 22.8123L65.7426 26.8519Z" fill="#231F20"/>
<path d="M108.752 28.9905C102.495 28.5945 65.8218 27.4063 65.4257 27.4063C65.1881 27.4063 65.0297 27.2479 65.0297 27.0103C65.0297 26.7727 65.1881 26.6143 65.4257 26.6143C65.8218 26.6143 102.574 27.8024 108.752 28.1984C108.99 28.1984 109.148 28.3568 109.148 28.5945C109.148 28.8321 108.99 28.9905 108.752 28.9905Z" fill="white"/>
<path d="M70.2574 67.3271C70.6535 67.3271 85.9406 77.0697 85.9406 77.0697L82.4554 80.0796L66.6931 76.3569L70.2574 67.3271Z" fill="#9B292B"/>
<path d="M82.4554 80.5543H82.3762L66.5346 76.7523C66.4554 76.7523 66.297 76.6731 66.297 76.5939C66.2178 76.5147 66.2178 76.3563 66.297 76.2771L69.9406 67.2474C70.0198 67.089 70.1782 67.0098 70.3366 67.0098C70.495 67.0098 70.8119 67.0098 86.1782 76.8316C86.2574 76.9108 86.3366 76.99 86.3366 77.1484C86.3366 77.3068 86.2574 77.386 86.1782 77.4652L82.693 80.4751C82.6138 80.4751 82.5346 80.5543 82.4554 80.5543ZM67.1683 76.1187L82.297 79.683L85.2277 77.1484C79.8416 73.6632 72.1584 68.8315 70.495 67.8811L67.1683 76.1187Z" fill="#231F20"/>
<path d="M101.465 67.3271C101.069 67.3271 85.8614 77.0697 85.8614 77.0697L89.3465 80.0796L105.109 76.3569L101.465 67.3271Z" fill="#9B292B"/>
<path d="M89.3465 80.5543C89.2673 80.5543 89.1881 80.5543 89.1089 80.4751L85.6238 77.4652C85.4653 77.3068 85.4653 77.0692 85.5446 76.9108L85.6238 76.8316C100.99 67.0098 101.307 67.0098 101.465 67.0098C101.624 67.0098 101.782 67.089 101.861 67.2474L105.505 76.2771C105.584 76.5147 105.505 76.6731 105.267 76.7523C105.267 76.7523 105.267 76.7523 105.188 76.7523L89.3465 80.5543ZM86.495 77.1484L89.4257 79.683L104.554 76.1187L101.228 67.8811C99.5644 68.8315 91.8812 73.6632 86.495 77.1484Z" fill="#231F20"/>
<path d="M85.7822 162.772C85.5446 162.772 85.3861 162.614 85.3861 162.376V77.0691C85.3069 76.8315 85.4653 76.5938 85.703 76.5938C85.9406 76.5146 86.1782 76.6731 86.1782 76.9107C86.1782 76.9899 86.1782 77.0691 86.1782 77.1483V162.376C86.1782 162.614 86.0198 162.772 85.7822 162.772Z" fill="#231F20"/>
<path d="M46.2574 159.129C46.2574 159.129 45.5445 89.6637 46.2574 90.3765V159.129Z" fill="#9B292B"/>
<path d="M46.2574 159.525C46.0198 159.525 45.8614 159.366 45.8614 159.129C45.8614 158.97 45.703 141.782 45.6237 124.832C45.4653 90.2969 45.703 90.1385 46.099 89.9801C46.2574 89.9009 46.4158 89.9801 46.5742 90.0593C46.7327 90.2177 46.7327 90.4553 46.5742 90.5345C46.099 93.2276 46.495 140.752 46.6534 159.049C46.6534 159.287 46.495 159.525 46.2574 159.525Z" fill="#231F20"/>
<path d="M125.782 159.129C125.782 159.129 125.069 89.6637 125.782 90.3765V159.129Z" fill="#9B292B"/>
<path d="M125.782 159.525C125.545 159.525 125.386 159.366 125.386 159.129C125.386 158.97 125.228 141.782 125.148 124.832C124.99 90.2969 125.228 90.1385 125.624 89.9801C125.782 89.9009 125.941 89.9801 126.099 90.0593C126.257 90.2177 126.257 90.3761 126.178 90.5345C125.703 93.2276 126.099 140.752 126.257 159.049C126.178 159.287 126.02 159.445 125.782 159.525Z" fill="#231F20"/>
<path d="M125.465 162.376H44.2772V172.594H125.465V162.376Z" fill="#D1D3D4"/>
<path d="M125.465 172.99H44.2772C44.0396 172.99 43.8812 172.832 43.8812 172.594V162.377C43.8812 162.139 44.0396 161.98 44.2772 161.98H125.465C125.703 161.98 125.861 162.139 125.861 162.377V172.594C125.941 172.832 125.703 172.99 125.465 172.99ZM44.6732 172.198H125.069V162.773H44.6732V172.198Z" fill="#231F20"/>
<path d="M95.2079 162.376H74.5346V172.594H95.2079V162.376Z" fill="white"/>
<path d="M95.2871 172.99H74.5347C74.297 172.99 74.1386 172.832 74.1386 172.594V162.377C74.1386 162.139 74.297 161.98 74.5347 161.98H95.2079C95.4455 161.98 95.604 162.139 95.604 162.377V172.594C95.6832 172.832 95.5248 172.99 95.2871 172.99ZM74.9307 172.198H94.8119V162.773H74.9307V172.198Z" fill="#231F20"/>
<path d="M85.9406 198.654C85.703 198.654 85.5446 198.495 85.5446 198.258V189.703V172.594C85.5446 172.357 85.703 172.198 85.9406 172.198H89.8218C90.0594 172.198 90.2178 172.357 90.2178 172.594L89.6634 187.248C89.6634 187.406 89.5842 187.485 89.505 187.565L86.3366 189.941V198.258C86.3366 198.495 86.1782 198.654 85.9406 198.654ZM86.3366 172.99V188.911L88.7921 187.01L89.3465 172.99H86.3366Z" fill="#231F20"/>
<path d="M46.4158 199.604L55.1287 147.248C55.4455 145.505 54.2574 143.842 52.5148 143.525C50.7723 143.208 49.1089 144.396 48.7921 146.139L39.9208 199.604H46.4158Z" fill="#231F20"/>
<path d="M46.4158 200H39.9208C39.8416 200 39.6832 199.921 39.604 199.842C39.5247 199.763 39.5247 199.604 39.5247 199.525L48.396 146.139C48.7129 144.159 50.6139 142.812 52.5149 143.129C54.495 143.446 55.8416 145.347 55.5247 147.248L46.8119 199.604C46.7327 199.921 46.5743 200 46.4158 200ZM40.396 199.208H46.099L54.7327 147.169C54.9703 145.664 53.9406 144.159 52.4356 143.921C50.9307 143.684 49.4257 144.713 49.1881 146.218L40.396 199.208Z" fill="#231F20"/>
<path d="M30.495 163.089C30.8119 161.346 32.396 160.158 34.1386 160.475L48.0792 162.772C49.8218 163.089 51.0099 164.673 50.6931 166.416C50.3762 168.158 48.7921 169.346 47.0495 169.029L33.1089 166.732C31.3663 166.495 30.2574 164.831 30.495 163.089Z" fill="#231F20"/>
<path d="M47.6039 169.505C47.3663 169.505 47.2079 169.505 46.9703 169.426L33.1089 167.128C32.1584 166.97 31.2871 166.495 30.7327 165.703C30.1782 164.911 29.9406 163.96 30.099 163.01C30.4158 161.029 32.3168 159.683 34.2178 160.079L48.1584 162.376C50.1386 162.693 51.4059 164.515 51.0891 166.495C50.7723 168.237 49.2673 169.505 47.6039 169.505ZM33.6633 160.792C32.3168 160.792 31.1287 161.822 30.8911 163.168C30.6534 164.673 31.6831 166.099 33.1881 166.416L47.1287 168.713C48.6336 168.95 50.0594 167.921 50.3762 166.416C50.6138 164.911 49.5841 163.406 48.0792 163.168L34.1386 160.871C33.9802 160.792 33.8218 160.792 33.6633 160.792Z" fill="#231F20"/>
<path d="M33.0297 52.0395L45.703 45.9405C46.8911 45.386 48.396 45.8613 48.9505 47.0494L64.2376 78.4157C64.7921 79.6038 64.3168 81.1088 63.1287 81.6632L50.5347 87.7623C49.3465 88.3167 47.8416 87.8415 47.2871 86.6533L31.9208 55.3662C31.3663 54.0989 31.8416 52.6731 33.0297 52.0395Z" fill="#007FA4"/>
<path d="M49.4257 88.5548C48.3168 88.5548 47.3663 87.9211 46.8911 86.9706L31.604 55.5251C30.8911 54.0993 31.5247 52.436 32.8713 51.7231L45.4653 45.6241C46.8911 44.9904 48.5544 45.5449 49.2673 46.9706L64.5544 78.337C64.8713 79.0498 64.9505 79.7627 64.7129 80.5548C64.4752 81.2676 63.9208 81.8221 63.2871 82.2181L50.6931 88.3172C50.297 88.3964 49.8218 88.4756 49.4257 88.5548ZM46.7327 46.0993C46.4158 46.0993 46.099 46.1785 45.8614 46.3369L33.2673 52.436C32.7921 52.6736 32.396 53.0696 32.2376 53.6241C32.0792 54.1785 32.0792 54.733 32.3168 55.2082L47.604 86.5746C47.8416 87.0498 48.2376 87.4459 48.7921 87.6043C49.3465 87.7627 49.901 87.7627 50.3762 87.5251L62.9703 81.3469C63.4455 81.1092 63.8416 80.7132 64 80.1587C64.1584 79.6043 64.1584 79.0498 63.9208 78.5746L48.6337 47.2082C48.2376 46.4954 47.5247 46.0993 46.7327 46.0993Z" fill="#007FA4"/>
<path d="M43.5238 44.3452L40.4615 45.8359L41.9523 48.8982L45.0146 47.4074L43.5238 44.3452Z" fill="#007FA4"/>
<path d="M41.9802 49.268C41.8218 49.268 41.6633 49.1888 41.6633 49.0303L40.1584 45.9412C40.0792 45.7828 40.1584 45.5452 40.3168 45.3868L43.4059 43.8818C43.4851 43.8818 43.6435 43.8818 43.7227 43.8818C43.802 43.8818 43.8812 43.961 43.9604 44.0402L45.4653 47.1294C45.5445 47.2878 45.4653 47.5254 45.3069 47.6838L42.2178 49.1888C42.0594 49.268 42.0594 49.268 41.9802 49.268ZM41.0297 46.0204L42.1386 48.3967L44.5148 47.2878L43.4059 44.9115L41.0297 46.0204Z" fill="#007FA4"/>
<path d="M28.2342 33.3261L26.7398 34.0566L38.0459 57.1838L39.5403 56.4532L28.2342 33.3261Z" fill="#007FA4"/>
<path d="M37.7822 57.7428C37.6238 57.7428 37.4654 57.6636 37.4654 57.5051L26.1386 34.4556C26.0594 34.2972 26.1386 34.0596 26.297 33.9012L27.802 33.1883C27.8812 33.1091 28.0396 33.1091 28.1188 33.1883C28.198 33.2675 28.2772 33.2675 28.3564 33.4259L39.604 56.4754C39.6832 56.5546 39.6832 56.7131 39.604 56.7923C39.604 56.8715 39.5248 56.9507 39.4456 57.0299L37.9406 57.7428C37.8614 57.7428 37.7822 57.7428 37.7822 57.7428ZM27.0099 34.4556L37.8614 56.7923L38.6535 56.3962L27.802 34.0596L27.0099 34.4556Z" fill="#007FA4"/>
<path d="M36.4356 74.9313C36.4356 74.9313 -2.21784 116.991 0.55444 128.238C3.32672 139.486 16.396 140.199 24.7921 129.268C33.1881 118.337 44.0396 84.2778 44.0396 84.2778C44.0396 84.2778 51.7228 76.1986 52.9109 70.3372C54.4158 62.7333 51.2475 51.1689 44.198 57.1095C41.4257 59.4857 35.9604 66.7729 36.4356 74.9313Z" fill="white"/>
<path d="M11.1683 137.426C10.3762 137.426 9.50494 137.347 8.71286 137.188C4.43564 136.317 1.34653 133.069 0.158409 128.317C-2.53466 117.228 33.2673 77.7824 36.0396 74.7725C35.6436 66.9309 40.7129 59.6437 43.9604 56.7923C46.6535 54.4952 48.5544 54.8913 49.7426 55.5249C53.2277 57.5843 54.4158 64.9507 53.3069 70.3368C52.1188 76.119 45.1485 83.6437 44.3564 84.4358C43.7228 86.416 33.1881 118.891 25.0297 129.505C21.1485 134.574 16 137.426 11.1683 137.426ZM47.8416 55.8418C46.5743 55.921 45.3861 56.5546 44.5148 57.4259C42.3762 59.2477 36.4356 66.3764 36.9109 74.9309C36.9109 75.0101 36.9109 75.1685 36.8317 75.2477C36.3564 75.6437 -1.74258 117.228 0.950489 128.159C2.0594 132.594 4.91088 135.604 8.87128 136.396C14.099 137.505 20.1188 134.654 24.4752 129.03C32.6337 118.258 43.5643 84.515 43.6436 84.119C43.6436 84.0398 43.7228 84.0398 43.7228 83.9606C43.802 83.8814 51.3267 75.9606 52.5148 70.2576C53.5445 65.1883 52.4356 58.1388 49.3465 56.317C48.8713 56.0002 48.396 55.8418 47.8416 55.8418Z" fill="#231F20"/>
<path d="M170.693 99.4854C164.356 99.4854 159.287 104.634 159.287 110.891C159.287 117.228 164.436 122.297 170.693 122.297C177.03 122.297 182.099 117.149 182.099 110.891C182.099 104.555 176.95 99.4854 170.693 99.4854ZM170.693 118.654C166.416 118.654 162.851 115.169 162.851 110.812C162.851 106.456 166.337 102.971 170.693 102.971C174.97 102.971 178.535 106.456 178.535 110.733C178.455 115.169 174.97 118.654 170.693 118.654Z" fill="#231F20"/>
<path d="M163.644 119.525H176.475V121.743C176.475 123.407 175.129 124.753 173.465 124.753H166.653C164.99 124.753 163.644 123.407 163.644 121.743V119.525Z" fill="#231F20"/>
<path d="M182.099 149.782C182.099 143.445 176.95 138.376 170.693 138.376C164.356 138.376 159.287 143.524 159.287 149.782C159.287 156.119 164.436 161.188 170.693 161.188C176.95 161.267 182.099 156.119 182.099 149.782ZM178.455 149.782C178.455 154.059 174.97 157.544 170.614 157.544C166.257 157.544 162.772 154.059 162.772 149.703C162.772 145.346 166.257 141.94 170.614 141.94C174.97 142.02 178.455 145.505 178.455 149.782Z" fill="#231F20"/>
<path d="M166.653 136H173.465C175.129 136 176.475 137.347 176.475 139.01V141.228H163.644V139.01C163.644 137.347 164.99 136 166.653 136Z" fill="#231F20"/>
<path d="M170.059 129.664C169.822 129.664 169.663 129.505 169.663 129.267V126.02C169.743 125.782 169.98 125.703 170.139 125.703C170.297 125.703 170.376 125.862 170.455 126.02V129.267C170.455 129.505 170.297 129.664 170.059 129.664Z" fill="#231F20"/>
<path d="M170.059 134.258C169.822 134.258 169.663 134.099 169.663 133.862V130.614C169.584 130.376 169.743 130.139 169.98 130.139C170.218 130.06 170.455 130.218 170.455 130.456C170.455 130.535 170.455 130.614 170.455 130.693V133.941C170.455 134.02 170.297 134.258 170.059 134.258Z" fill="#231F20"/>
<path d="M170.059 132.595C169.03 132.595 168.158 131.723 168.158 130.694V130.06C168.238 129.03 169.109 128.238 170.218 128.238C171.168 128.317 171.96 129.03 172.04 130.06V130.694C172.04 131.803 171.168 132.595 170.059 132.595ZM170.059 128.951C169.426 128.951 168.95 129.426 168.95 130.06V130.694C168.871 131.327 169.347 131.803 169.98 131.882C170.614 131.961 171.089 131.486 171.168 130.852C171.168 130.773 171.168 130.694 171.168 130.694V130.06C171.168 129.506 170.693 128.951 170.059 128.951Z" fill="#231F20"/>
<path d="M170.059 137.267C169.03 137.267 168.158 136.396 168.158 135.366V134.733C168.079 133.703 168.871 132.753 169.98 132.673C171.01 132.594 171.96 133.386 172.04 134.495C172.04 134.574 172.04 134.654 172.04 134.733V135.366C171.96 136.475 171.168 137.267 170.059 137.267ZM170.059 133.624C169.426 133.624 168.95 134.099 168.95 134.733V135.366C169.03 136 169.505 136.396 170.139 136.396C170.693 136.317 171.089 135.921 171.168 135.366V134.733C171.168 134.178 170.693 133.624 170.059 133.624Z" fill="#231F20"/>
<path d="M170.059 127.684C169.03 127.684 168.158 126.812 168.158 125.783V125.149C168.079 124.119 168.871 123.169 169.98 123.089C171.01 123.01 171.96 123.802 172.04 124.911C172.04 124.99 172.04 125.07 172.04 125.149V125.783C171.96 126.812 171.168 127.684 170.059 127.684ZM170.059 124.04C169.426 124.04 168.95 124.515 168.95 125.149V125.783C169.03 126.416 169.505 126.812 170.139 126.812C170.693 126.733 171.089 126.337 171.168 125.783V125.149C171.168 124.515 170.693 124.04 170.059 124.04Z" fill="#231F20"/>
<path d="M89.1881 90.2973C89.888 90.2973 90.4554 89.7299 90.4554 89.03C90.4554 88.3301 89.888 87.7627 89.1881 87.7627C88.4882 87.7627 87.9208 88.3301 87.9208 89.03C87.9208 89.7299 88.4882 90.2973 89.1881 90.2973Z" fill="#231F20"/>
<path d="M89.1881 108.515C89.888 108.515 90.4554 107.948 90.4554 107.248C90.4554 106.548 89.888 105.98 89.1881 105.98C88.4882 105.98 87.9208 106.548 87.9208 107.248C87.9208 107.948 88.4882 108.515 89.1881 108.515Z" fill="#231F20"/>
<path d="M89.1881 126.654C89.888 126.654 90.4554 126.086 90.4554 125.386C90.4554 124.687 89.888 124.119 89.1881 124.119C88.4882 124.119 87.9208 124.687 87.9208 125.386C87.9208 126.086 88.4882 126.654 89.1881 126.654Z" fill="#231F20"/>
<path d="M89.1881 144.872C89.888 144.872 90.4554 144.304 90.4554 143.604C90.4554 142.904 89.888 142.337 89.1881 142.337C88.4882 142.337 87.9208 142.904 87.9208 143.604C87.9208 144.304 88.4882 144.872 89.1881 144.872Z" fill="#231F20"/>
<path d="M79.8416 94.7334H56.3168V100.04H79.8416V94.7334Z" fill="white"/>
<path d="M78.4158 114.218H57.8218V135.762H78.4158V114.218Z" fill="#9B292B"/>
<path d="M78.4158 136.159H57.8218C57.5841 136.159 57.4257 136 57.4257 135.763V114.297C57.4257 114.06 57.5841 113.901 57.8218 113.901H78.4158C78.6534 113.901 78.8119 114.06 78.8119 114.297V135.842C78.8119 136 78.5742 136.159 78.4158 136.159ZM58.2178 135.367H77.9406V114.614H58.2178V135.367Z" fill="#231F20"/>
<path d="M72.396 114.218H64.1584V135.762H72.396V114.218Z" fill="#9B292B"/>
<path d="M72.396 136.159H64.1584C63.9208 136.159 63.7624 136 63.7624 135.763V114.297C63.7624 114.06 63.9208 113.901 64.1584 113.901H72.396C72.6336 113.901 72.7921 114.06 72.7921 114.297V135.842C72.7921 136 72.6336 136.159 72.396 136.159ZM64.5544 135.367H72V114.614H64.5544V135.367Z" fill="#231F20"/>
<path d="M80.5544 115.248L68.2772 118.812L56.0792 115.248V108.119H80.5544V115.248Z" fill="#9B292B"/>
<path d="M68.2772 119.208H68.198L55.9208 115.643C55.7624 115.564 55.6039 115.406 55.6039 115.247V108.198C55.6039 107.96 55.7624 107.802 56 107.802H80.5544C80.7921 107.802 80.9505 107.96 80.9505 108.198V115.247C80.9505 115.406 80.8713 115.564 80.6336 115.643L68.3564 119.287H68.2772V119.208ZM56.4752 114.93L68.2772 118.416L80.1584 114.93V108.594H56.4752V114.93Z" fill="#231F20"/>
<path d="M68.2772 115.011C68.8459 115.011 69.3069 114.55 69.3069 113.981C69.3069 113.412 68.8459 112.951 68.2772 112.951C67.7085 112.951 67.2475 113.412 67.2475 113.981C67.2475 114.55 67.7085 115.011 68.2772 115.011Z" fill="#231F20"/>
<path d="M117.307 114.218H96.7129V135.762H117.307V114.218Z" fill="#9B292B"/>
<path d="M117.228 136.159H96.6336C96.396 136.159 96.2376 136 96.2376 135.763V114.297C96.2376 114.06 96.396 113.901 96.6336 113.901H117.228C117.465 113.901 117.624 114.06 117.624 114.297V135.842C117.624 136 117.465 136.159 117.228 136.159ZM97.1089 135.367H116.832V114.614H97.1089V135.367Z" fill="#231F20"/>
<path d="M111.208 114.218H102.97V135.762H111.208V114.218Z" fill="#9B292B"/>
<path d="M111.208 136.159H102.97C102.733 136.159 102.574 136 102.574 135.763V114.297C102.574 114.06 102.733 113.901 102.97 113.901H111.208C111.446 113.901 111.604 114.06 111.604 114.297V135.842C111.604 136 111.446 136.159 111.208 136.159ZM103.366 135.367H110.812V114.614H103.366V135.367Z" fill="#231F20"/>
<path d="M119.366 115.248L107.168 118.812L94.8911 115.248V108.119H119.366V115.248Z" fill="#9B292B"/>
<path d="M107.168 119.208H107.089L94.8119 115.564C94.6534 115.485 94.495 115.327 94.495 115.168V108.119C94.495 107.881 94.6534 107.723 94.8911 107.723H119.366C119.604 107.723 119.762 107.881 119.762 108.119V115.168C119.762 115.327 119.683 115.485 119.446 115.564L107.168 119.208ZM95.2871 114.931L107.168 118.416L118.97 114.931V108.594H95.2871V114.931Z" fill="#231F20"/>
<path d="M107.168 115.011C107.737 115.011 108.198 114.55 108.198 113.981C108.198 113.412 107.737 112.951 107.168 112.951C106.6 112.951 106.139 113.412 106.139 113.981C106.139 114.55 106.6 115.011 107.168 115.011Z" fill="#231F20"/>
<path d="M136.792 136.001C136.554 136.001 136.396 135.842 136.396 135.605C136.396 135.525 136.396 135.446 136.475 135.367L144.871 124.357C145.03 124.199 145.267 124.119 145.426 124.278C145.584 124.436 145.663 124.674 145.505 124.832L137.109 135.842C137.109 135.921 136.951 136.001 136.792 136.001Z" fill="#231F20"/>
<path d="M125.782 183.763C123.485 183.842 121.347 182.97 119.762 181.386C116.673 178.139 116.832 172.832 116.832 172.594C116.911 172.357 117.149 172.277 117.307 172.277C117.465 172.277 117.545 172.436 117.624 172.594C117.624 172.673 117.465 177.822 120.317 180.832C121.743 182.258 123.723 183.05 125.782 182.97C126.02 182.891 126.257 183.05 126.257 183.287C126.337 183.525 126.178 183.763 125.941 183.763C125.941 183.763 125.861 183.763 125.782 183.763Z" fill="#231F20"/>
<path d="M48.0792 183.763C47.8416 183.842 47.6039 183.683 47.6039 183.446C47.5247 183.208 47.6832 182.971 47.9208 182.971C48 182.971 48.0792 182.971 48.1584 182.971C50.2178 183.05 52.198 182.258 53.6237 180.832C56.4752 177.822 56.3168 172.673 56.3168 172.594C56.3168 172.357 56.4752 172.198 56.7129 172.198C56.9505 172.198 57.1089 172.357 57.1089 172.594C57.1089 172.832 57.2673 178.139 54.1782 181.386C52.5148 182.971 50.3762 183.842 48.0792 183.763Z" fill="#231F20"/>
<path d="M107.01 102.179C107.01 102.179 102.495 100.594 101.545 99.3271C100.594 98.0598 100.04 96.4756 100.752 95.2875C101.465 94.0202 102.099 93.4657 102.099 92.2776C102.099 91.0895 100.198 89.4261 100.198 89.4261L102.574 86.8123C102.97 87.4459 103.683 87.7628 104.475 87.6836C105.426 87.4459 106.376 86.9707 107.089 86.2578C107.644 87.0499 108.515 87.4459 109.465 87.5251C110.257 87.6043 111.049 87.2875 111.604 86.7331L114.139 89.2677C114.139 89.2677 112.079 90.9311 112.475 93.1489C112.871 95.3667 114.059 95.0499 113.743 97.8222C113.426 100.594 107.01 102.179 107.01 102.179Z" fill="white"/>
<path d="M106.772 99.8812C106.772 99.8812 103.683 98.6931 102.97 97.901C102.337 97.1881 102.337 96.2376 102.97 95.5248C103.525 94.7327 103.842 93.8614 103.921 92.9109C103.842 91.6436 103.446 90.3763 102.812 89.2673C104.238 89.5842 105.743 89.4258 107.01 88.7129C108.277 89.505 109.782 89.7426 111.208 89.3466C110.574 90.2971 110.257 91.3268 110.257 92.4357C110.416 93.9406 111.525 95.2079 111.525 96.0792C111.525 96.9505 111.446 97.505 110.97 97.8218C110.495 98.1386 106.772 99.8812 106.772 99.8812Z" fill="#D1D3D4"/>
<path d="M162.614 102.733C162.772 103.684 163.248 104.872 164.277 104.951C165.069 104.872 165.782 104.317 166.02 103.525C166.257 102.812 166.337 102.02 166.653 101.307C166.495 102.02 166.495 102.812 166.574 103.525C166.733 104.317 167.208 104.951 167.921 105.268C168.871 105.505 169.822 105.189 170.455 104.476C171.01 103.763 171.327 102.892 171.406 102.02C171.564 102.892 171.406 103.842 171.485 104.713C171.564 105.664 172.277 106.456 173.228 106.614C174.02 106.614 174.812 106.139 175.208 105.426C175.842 104.555 176.238 103.446 176.396 102.416C176.238 103.525 176.238 104.951 177.267 105.505C177.98 105.822 178.772 105.664 179.327 105.189C179.881 104.713 180.198 104.08 180.436 103.446C181.465 100.278 180.594 96.8718 178.297 94.4956C177.584 93.7035 176.713 93.149 175.762 92.753C172.832 91.7233 167.921 92.5154 165.149 93.7035C161.901 95.05 162.218 100.04 162.614 102.733Z" fill="white"/>
<path d="M173.386 107.089H173.228C172.119 106.931 171.248 105.98 171.089 104.792C171.089 104.634 171.089 104.554 171.089 104.396C171.01 104.554 170.931 104.634 170.772 104.792C170.059 105.663 168.871 105.98 167.762 105.663C167.049 105.346 166.416 104.713 166.257 103.921C165.941 104.713 165.148 105.267 164.277 105.267C163.248 105.188 162.455 104.237 162.218 102.733C161.743 99.8018 161.426 94.6533 164.911 93.2276C168 91.9602 172.99 91.1682 175.842 92.2771C176.871 92.6731 177.822 93.3068 178.535 94.0989C180.99 96.5543 181.782 100.198 180.752 103.525C180.515 104.317 180.119 104.95 179.564 105.505C178.851 106.059 177.901 106.218 177.109 105.901C176.634 105.663 176.317 105.267 176.158 104.792C176 105.109 175.842 105.426 175.604 105.663C175.049 106.535 174.257 107.01 173.386 107.089ZM171.406 101.624C171.644 101.624 171.802 101.782 171.802 101.94C171.881 102.416 171.881 102.891 171.881 103.366C171.881 103.841 171.881 104.237 171.96 104.634C172.119 105.346 172.594 106.138 173.307 106.218C174.02 106.297 174.733 105.505 174.891 105.188C175.446 104.475 175.762 103.604 175.921 102.733L176 102.416C176 102.178 176.238 102.02 176.475 102.099C176.713 102.099 176.871 102.336 176.871 102.574C176.871 102.733 176.871 102.812 176.792 102.97C176.634 104.237 176.871 104.95 177.505 105.267C178.059 105.505 178.693 105.346 179.089 104.95C179.564 104.554 179.881 104 180.04 103.366C180.99 100.356 180.198 97.0296 177.98 94.8117C177.347 94.0989 176.475 93.5444 175.604 93.2276C172.911 92.2771 168.158 92.9899 165.228 94.1781C162.297 95.3662 162.614 100.119 163.089 102.812C163.168 103.129 163.406 104.554 164.356 104.634C164.99 104.713 165.465 104.079 165.624 103.525C165.703 103.208 165.782 102.891 165.861 102.574C165.941 102.099 166.099 101.703 166.257 101.228C166.337 100.99 166.574 100.911 166.733 100.911C166.97 100.99 167.049 101.228 167.049 101.386C166.891 102.099 166.891 102.812 166.97 103.525C167.049 104.158 167.525 104.713 168.079 104.95C168.871 105.188 169.663 104.95 170.139 104.317C170.614 103.683 170.931 102.891 170.931 102.02C170.931 101.782 171.089 101.624 171.327 101.624H171.406Z" fill="#231F20"/>
<path d="M111.762 158.892H126.416C129.109 158.892 131.248 161.109 131.248 163.723V188.515H111.762V158.892Z" fill="#231F20"/>
<path d="M131.248 188.99H111.762C111.525 188.99 111.366 188.832 111.366 188.594V158.891C111.366 158.654 111.525 158.495 111.762 158.495H126.337C129.267 158.495 131.564 160.871 131.564 163.723V188.515C131.644 188.832 131.485 188.99 131.248 188.99ZM112.158 188.198H130.851V163.802C130.851 161.347 128.871 159.366 126.416 159.366H112.158V188.198Z" fill="#231F20"/>
<path d="M124.198 166.892C124.81 166.892 125.307 166.395 125.307 165.783C125.307 165.17 124.81 164.674 124.198 164.674C123.586 164.674 123.089 165.17 123.089 165.783C123.089 166.395 123.586 166.892 124.198 166.892Z" fill="white"/>
<path d="M129.584 171.802H116.356C116.277 171.802 116.119 171.723 116.04 171.644C115.96 171.565 115.96 171.486 115.96 171.327C116.04 169.268 116.04 163.802 115.248 162.535C114.693 161.664 113.663 161.268 112.713 161.426C112.475 161.505 112.317 161.347 112.238 161.109C112.238 160.872 112.317 160.713 112.554 160.634C113.901 160.396 115.248 160.951 115.96 162.139C116.911 163.644 116.832 169.268 116.752 171.01H129.584C129.822 171.09 129.901 171.327 129.901 171.486C129.743 171.644 129.663 171.723 129.584 171.802Z" fill="white"/>
<path d="M164.119 120.634C163.881 120.634 163.723 120.476 163.723 120.238V118.733C163.723 118.495 163.881 118.337 164.119 118.337H171.168C171.406 118.258 171.644 118.416 171.644 118.654C171.723 118.891 171.564 119.129 171.327 119.129C171.248 119.129 171.168 119.129 171.089 119.129H164.436V120.238C164.515 120.396 164.356 120.555 164.119 120.634Z" fill="white"/>
<path d="M176.475 142.178H171.564C171.327 142.178 171.168 142.02 171.168 141.782C171.168 141.544 171.327 141.386 171.564 141.386H176.079V140.039C176.158 139.802 176.396 139.723 176.554 139.723C176.713 139.723 176.792 139.881 176.871 140.039V141.782C176.871 142.02 176.713 142.178 176.475 142.178Z" fill="white"/>
</g>
<defs>
<clipPath id="clip0_1252_224">
<rect width="182.099" height="200" fill="white"/>
</clipPath>
</defs>
</svg>
