<svg width="200" height="200" viewBox="0 0 200 200" fill="none" xmlns="http://www.w3.org/2000/svg">
<g clip-path="url(#clip0_1251_106)">
<path d="M93.8093 198.554C145.619 198.554 187.619 195.884 187.619 192.589C187.619 189.295 145.619 186.625 93.8093 186.625C41.9999 186.625 0 189.295 0 192.589C0 195.884 41.9999 198.554 93.8093 198.554Z" fill="#D1D3D4"/>
<path d="M108.812 97.9665C110.709 96.882 112.427 95.6168 114.144 94.2612C117.849 91.4595 118.934 88.929 120.018 84.5007C120.741 81.5183 118.482 78.7167 116.313 76.5477C114.144 74.469 111.613 72.1193 111.523 69.0465C111.523 66.6968 112.969 64.6181 113.873 62.4491C118.572 50.9715 105.468 45.8201 102.847 36.2404C100.226 26.6606 97.1532 18.7076 85.3141 21.7804C82.4221 22.5034 79.6204 23.4975 76.7284 23.5879C74.0172 23.7686 71.3963 23.136 68.685 23.136C61.0032 23.136 53.9539 27.2933 50.2485 34.0714C48.8025 36.7826 49.7063 40.3976 48.3507 42.5666C44.826 48.1699 36.4212 46.8143 38.1383 56.0325C38.7709 59.286 40.2169 62.7203 38.9517 65.8834C37.3249 69.8599 32.4446 71.0348 29.0104 73.5653C23.4071 77.7225 21.9611 86.037 24.582 92.4537C27.2029 98.8703 33.3484 103.479 39.8554 105.829C46.3624 108.179 53.502 108.54 60.5513 108.54C77.2707 108.54 94.7131 106.462 108.812 97.9665Z" fill="white"/>
<path d="M60.9128 108.992H60.6417C53.7732 108.992 46.5432 108.631 39.8554 106.281C32.4446 103.66 26.751 98.6896 24.3109 92.7248C21.4189 85.6756 23.3168 77.3611 28.8296 73.2942C30.0045 72.4808 31.1794 71.7578 32.4446 71.1252C35.0655 69.6792 37.596 68.4139 38.5902 65.7931C39.4939 63.5337 38.8613 60.9128 38.2287 58.3823C38.0479 57.6593 37.8671 56.9363 37.7768 56.2133C36.6019 50.1582 39.6747 48.4411 42.9282 46.6336C44.826 45.5491 46.7239 44.4646 47.9892 42.4763C48.5314 41.3014 48.8025 40.0362 48.8025 38.6805C48.8025 37.0538 49.164 35.5174 49.887 34.0714C53.5924 27.2933 60.6417 23.0457 68.4139 22.9553H68.685C69.8599 22.9553 71.0348 23.0457 72.2097 23.2264C73.746 23.4072 75.192 23.4975 76.7284 23.4072C78.9878 23.2264 81.1568 22.7745 83.3258 22.0515L85.2237 21.5093C97.2436 18.4365 100.497 26.3895 103.208 36.3308C104.202 39.8554 106.733 42.8378 109.173 45.7298C113.15 50.4293 117.307 55.3999 114.234 62.7203C113.963 63.3529 113.692 63.9856 113.33 64.6182C112.517 65.9738 111.975 67.6006 111.884 69.2273C111.884 72.0289 114.324 74.3787 116.403 76.367L116.493 76.4573C119.747 79.5301 120.922 82.2413 120.38 84.7718C119.295 89.2906 118.211 91.8211 114.415 94.7131C112.698 96.0687 110.89 97.2436 108.992 98.4185C97.1532 105.468 81.3376 108.992 60.9128 108.992ZM68.4139 23.6783C61.0032 23.7687 54.225 27.8355 50.61 34.3425C49.9774 35.6982 49.7063 37.1442 49.6159 38.6805C49.6159 40.1266 49.2544 41.5726 48.6218 42.8378C47.2662 45.0068 45.1875 46.1817 43.1993 47.2662C40.1265 48.9833 37.4153 50.5197 38.4998 55.9422C38.6805 56.6652 38.8613 57.3882 38.9516 58.1112C39.5843 60.7321 40.2169 63.4433 39.2228 65.9738C38.0479 68.7754 35.3366 70.3118 32.7158 71.6675C31.4505 72.3001 30.2756 73.0231 29.1911 73.7461C23.9494 77.5418 22.1419 85.4948 24.9435 92.1826C27.3836 97.9666 32.8965 102.756 40.0361 105.287C46.6335 107.637 53.7732 107.998 60.5513 107.998H60.8224C81.1568 107.998 96.7917 104.564 108.631 97.5147C110.438 96.4302 112.246 95.165 113.963 93.8997C117.578 91.0981 118.572 88.7483 119.657 84.4103C120.199 82.2413 119.024 79.7108 116.042 76.9092L115.951 76.8188C113.692 74.6498 111.161 72.3001 111.161 69.0466C111.252 67.3294 111.794 65.6123 112.698 64.0759C112.969 63.4433 113.33 62.9011 113.511 62.2684C116.313 55.3999 112.517 50.8812 108.54 46.0913C106.01 43.1089 103.479 40.1266 102.485 36.3308C99.7741 26.4799 96.7917 19.2499 85.4948 22.1419C84.8622 22.3227 84.2295 22.5034 83.5969 22.6842C81.4279 23.4072 79.0782 23.859 76.8188 24.0398C75.2824 24.0398 73.746 24.0398 72.2097 23.859C71.1252 23.7687 69.9503 23.6783 68.7754 23.5879L68.4139 23.6783Z" fill="#231F20"/>
<path d="M27.474 125.169C27.474 125.169 34.8848 85.4044 42.2052 78.7167C49.5255 72.0289 69.1369 72.0289 79.4397 71.6674C89.7425 71.3059 104.745 74.9209 111.523 81.6087C118.301 88.2964 125.26 130.953 125.26 130.953L111.161 129.327L120.108 153.095C120.108 153.095 89.0194 169.815 74.5594 168.821C60.0994 167.826 37.3249 148.305 37.3249 148.305L38.5902 122.006L27.474 125.169Z" fill="#9B292B"/>
<path d="M107.275 122.729C107.094 122.729 106.914 122.549 106.914 122.277C107.546 109.986 103.118 86.037 103.118 85.8563C103.118 85.6755 103.208 85.4044 103.479 85.4044C103.751 85.4044 103.931 85.4948 103.931 85.7659C103.931 86.037 108.45 109.986 107.817 122.458C107.727 122.549 107.546 122.729 107.275 122.729Z" fill="#231F20"/>
<path d="M52.5079 114.415C52.2368 114.415 52.056 114.234 52.056 114.053C52.056 113.873 51.7849 96.2495 54.948 84.7719C55.0384 84.5911 55.2192 84.4103 55.4903 84.5007C55.671 84.5911 55.8518 84.7718 55.7614 84.9526C52.5983 96.3399 52.8694 113.873 52.8694 114.053C52.8694 114.144 52.6887 114.324 52.5079 114.415Z" fill="#231F20"/>
<path d="M85.2237 76.7284L86.7601 91.7307C86.7601 91.7307 86.0371 100.316 76.6381 98.5992C71.0348 97.5147 66.1546 93.9901 63.4433 88.9291C62.9914 88.0253 63.2626 86.0371 63.2626 85.0429L62.8107 76.1862C62.5396 71.7578 61.9973 67.1487 62.0877 62.7203C62.1781 58.2919 62.0877 53.5924 62.2684 49.0737C62.2684 48.8025 62.3588 48.5314 62.4492 48.3507C62.6299 48.1699 62.8107 48.0795 62.9914 48.0795C64.2567 47.8084 65.5219 47.8988 66.7872 48.1699C66.8776 45.0068 66.5161 41.934 65.7027 38.9517C68.3236 40.9399 70.4022 43.5608 71.6674 46.6335C74.7402 46.4528 77.9033 46.6335 80.9761 47.0854C81.3376 44.9164 81.0664 42.7474 80.1627 40.7592C81.5183 42.3859 82.6932 44.103 83.7777 45.9105C83.7777 46.1817 87.9349 46.7239 88.2061 46.5432C88.9291 45.9105 88.6579 41.5725 88.7483 40.5784C90.9173 43.2897 92.3633 46.4528 92.9959 49.7967C93.7189 52.8694 93.6286 65.6123 93.6286 68.8658C93.7189 73.5653 90.2847 77.3611 85.2237 76.7284Z" fill="white"/>
<path d="M78.9878 99.2318C78.1744 99.2318 77.361 99.1414 76.5477 98.9607C70.854 97.8762 65.8834 94.2612 63.1722 89.1098C62.901 88.206 62.8107 87.1215 62.901 86.2178C62.901 85.7659 62.901 85.4044 62.901 85.1333L62.3588 76.2765C62.2684 74.8305 62.178 73.2942 61.9973 71.8481C61.7262 68.8658 61.5454 65.793 61.6358 62.8106C61.7262 60.6416 61.7262 58.4726 61.7262 56.3036C61.7262 53.9539 61.7262 51.5138 61.8165 49.0736C61.8165 48.7121 61.9069 48.3506 62.178 48.0795C62.4492 47.8988 62.7203 47.718 62.9914 47.718C64.1663 47.5373 65.3412 47.5373 66.516 47.718C66.516 44.826 66.1545 41.934 65.4315 39.042C65.3412 38.8613 65.5219 38.5901 65.7027 38.4998C65.793 38.4998 65.9738 38.4998 66.0642 38.5901C68.685 40.5784 70.7637 43.1993 72.0289 46.1816C74.9209 46.0913 77.9033 46.1816 80.7049 46.6335C80.976 44.7356 80.6145 42.7474 79.8012 40.9399C79.7108 40.7591 79.8012 40.488 79.9819 40.3976C80.1627 40.3073 80.3434 40.3976 80.5242 40.488C81.7894 42.1148 83.0547 43.8319 84.0488 45.549C85.314 45.9105 86.6697 46.0009 88.0253 46.0913C88.3868 45.549 88.3868 42.8378 88.3868 41.8436C88.3868 41.211 88.3868 40.7591 88.3868 40.3976C88.3868 40.2169 88.4772 40.1265 88.6579 40.0361C88.8387 39.9458 89.0194 40.0361 89.1098 40.1265C91.098 42.3859 92.4537 45.3683 93.4478 49.5255C94.0804 52.2368 94.0804 62.2684 94.0804 67.1487V68.685C94.1708 71.2155 93.1767 73.5653 91.3692 75.2824C89.8328 76.638 87.7542 77.2706 85.6755 76.9995L87.1215 91.5499C86.8504 93.8997 85.7659 96.0687 83.9584 97.5147C82.5124 98.6895 80.7049 99.2318 78.9878 99.2318ZM64.7085 48.3506C64.1663 48.3506 63.624 48.441 63.0818 48.5314C62.9914 48.5314 62.8107 48.6218 62.7203 48.6218C62.6299 48.8025 62.6299 48.9833 62.6299 49.0736C62.5395 51.4234 62.5395 53.8635 62.5395 56.2133C62.5395 58.3823 62.5395 60.5513 62.4492 62.7203C62.4492 65.7026 62.5395 68.685 62.8107 71.6674C62.901 73.1134 63.0818 74.6498 63.1722 76.0958L63.624 84.8622C63.624 85.2237 63.624 85.5852 63.624 86.037C63.5337 86.8504 63.624 87.7542 63.8048 88.5675C66.4257 93.4478 71.1252 96.9724 76.638 97.9665C79.4397 98.5088 81.699 98.0569 83.4162 96.7917C85.0429 95.436 86.037 93.5382 86.2178 91.4595L84.6814 76.4573C84.6814 76.3669 84.6814 76.1861 84.7718 76.0958C84.8622 76.0054 84.9525 76.0054 85.1333 76.0054C87.1215 76.3669 89.1098 75.8247 90.6462 74.469C92.2729 72.9327 93.1767 70.7637 93.0863 68.5043V66.9679C93.0863 62.5395 93.0863 52.2368 92.4537 49.6159C91.9114 46.6335 90.7365 43.9223 89.0194 41.3918V41.6629C89.0194 44.103 88.929 46.0913 88.2964 46.6335C87.6638 47.1758 84.0488 46.4528 83.5065 46.1816C83.3258 46.0913 83.2354 46.0009 83.145 45.9105C82.5124 44.9164 81.8798 43.8319 81.1568 42.9281C81.4279 44.2838 81.4279 45.7298 81.2472 47.0854C81.2472 47.2661 80.976 47.4469 80.7953 47.4469C77.7225 46.995 74.6498 46.8143 71.577 46.995C71.3963 46.995 71.2155 46.9046 71.2155 46.7239C70.131 44.103 68.5043 41.7533 66.3353 39.9458C66.9679 42.657 67.239 45.3683 67.1487 48.0795C67.1487 48.1699 67.0583 48.3506 66.9679 48.3506C66.8775 48.441 66.6968 48.441 66.6064 48.441C66.0642 48.441 65.3412 48.3506 64.7085 48.3506Z" fill="#231F20"/>
<path d="M85.8563 84.0488C85.8563 84.0488 79.8012 84.8622 75.4632 81.1568C71.1252 77.4514 71.3059 73.2942 71.3059 73.2942C71.3059 73.2942 78.3552 77.0899 85.2237 76.6381L85.8563 84.0488Z" fill="#231F20"/>
<path d="M84.2296 84.5911C80.9761 84.6814 77.7225 83.5969 75.192 81.5183C70.7637 77.7226 70.9444 73.5653 70.9444 73.3846C70.9444 73.2038 71.1252 73.0231 71.3963 73.0231C71.4867 73.0231 71.4867 73.0231 71.577 73.1134C71.6674 73.1134 78.5359 76.9092 85.2237 76.3669C85.4044 76.3669 85.5852 76.5477 85.6756 76.7284L86.3082 84.1392C86.3082 84.3199 86.1274 84.5007 85.9467 84.5911C85.3141 84.5007 84.7718 84.5911 84.2296 84.5911ZM71.7578 74.0172C72.1193 76.7284 73.5653 79.1686 75.7343 80.8857C79.2589 83.8681 84.0488 83.7777 85.4044 83.6873L84.8622 77.0899C79.1686 77.3611 73.5653 74.9209 71.7578 74.0172Z" fill="#231F20"/>
<path d="M80.3434 64.9797C79.8012 64.9797 79.3493 64.9797 78.807 64.8893C78.6263 64.8893 78.4456 64.6182 78.4456 64.4374C78.4456 64.2567 78.7167 64.0759 78.8974 64.0759C79.7108 64.2567 82.1509 64.3471 82.8739 63.3529C83.4162 62.7203 80.976 58.8342 78.3552 55.671C78.1744 55.4903 78.2648 55.2192 78.4456 55.1288C78.6263 54.948 78.8974 55.0384 78.9878 55.2192C80.3434 56.8459 84.5911 62.3588 83.5066 63.8048C82.8739 64.7989 81.4279 64.9797 80.3434 64.9797Z" fill="#231F20"/>
<path d="M66.3353 54.5865C65.6123 52.779 64.4374 51.1523 63.0818 49.7967C61.5454 48.5314 59.286 47.9892 57.6593 48.9833C55.8518 50.0678 55.3999 52.5983 55.5807 54.7673C55.8518 57.2074 56.5748 59.6475 57.5689 61.8165C58.0208 63.1722 58.9245 64.4374 60.009 65.3412C61.1839 66.3353 62.8107 66.3353 63.9856 65.5219" fill="white"/>
<path d="M62.178 66.6065C61.2743 66.6065 60.3705 66.245 59.6475 65.7028C58.4727 64.7086 57.6593 63.4434 57.117 61.9974C56.0325 59.738 55.3999 57.2979 55.1288 54.7674C55.0384 53.4117 54.948 50.0679 57.3882 48.5315C59.3764 47.3566 61.8165 48.0796 63.3529 49.3449C64.7989 50.7909 65.9738 52.4176 66.7872 54.3155C66.8776 54.4962 66.8776 54.7674 66.6968 54.8577C66.5161 54.9481 66.2449 54.9481 66.1545 54.7674C66.1545 54.7674 66.1545 54.677 66.0642 54.677C65.3412 52.8695 64.2567 51.3331 62.901 49.9775C61.6358 48.893 59.5572 48.2604 57.9304 49.2545C55.8518 50.5197 55.9422 53.6829 56.0325 54.677C56.3037 57.1171 56.9363 59.4669 58.0208 61.6359C58.4727 62.9011 59.286 64.076 60.2802 65.0701C61.2743 65.8835 62.7203 65.9739 63.8048 65.2509C63.9855 65.0701 64.2567 65.1605 64.347 65.3413C64.5278 65.522 64.4374 65.7931 64.2567 65.8835C63.624 66.3354 62.9011 66.6065 62.178 66.6065Z" fill="#231F20"/>
<path d="M73.1134 57.2978C73.6125 57.2978 74.0172 56.2863 74.0172 55.0384C74.0172 53.7906 73.6125 52.7791 73.1134 52.7791C72.6143 52.7791 72.2097 53.7906 72.2097 55.0384C72.2097 56.2863 72.6143 57.2978 73.1134 57.2978Z" fill="#231F20"/>
<path d="M86.4889 56.8459C86.9881 56.8459 87.3927 55.8343 87.3927 54.5865C87.3927 53.3387 86.9881 52.3271 86.4889 52.3271C85.9898 52.3271 85.5852 53.3387 85.5852 54.5865C85.5852 55.8343 85.9898 56.8459 86.4889 56.8459Z" fill="#231F20"/>
<path d="M76.2765 91.2788C76.2765 91.2788 80.1627 80.3434 78.2648 77.361C76.3669 74.3787 71.2155 71.4867 70.2214 68.7754C69.2273 66.0642 70.9444 59.4668 68.7754 58.7438C66.6064 58.0208 65.07 64.1663 66.6064 69.0465C66.6064 69.0465 64.1663 66.0642 64.1663 63.1722C64.1663 60.2802 66.0642 56.6652 63.9855 55.8518C61.9069 55.0384 58.9245 61.5454 59.6475 66.8775C60.3705 72.2097 67.1487 79.6204 66.6968 81.0664C66.2449 82.5124 29.3719 118.301 26.028 124.175C22.9553 129.598 24.8531 141.798 35.5174 140.533C46.1817 139.268 69.1369 109.806 76.2765 91.2788Z" fill="white"/>
<path d="M33.8907 141.075C30.8179 141.166 27.9259 139.629 26.2088 137.099C23.7686 133.122 23.5879 128.242 25.5761 123.995C27.6548 120.38 41.934 105.92 53.4117 94.2612C59.8283 87.7542 65.8834 81.6087 66.2449 80.8857C66.3353 80.5242 65.0701 78.536 64.0759 76.9092C62.0877 73.8365 59.6475 70.0407 59.1957 66.7872C58.6534 62.4492 60.5513 57.1171 62.5395 55.6711C62.9914 55.2192 63.6241 55.1288 64.2567 55.3096C65.8834 56.0326 65.5219 58.0208 65.07 60.0091C64.7989 61.0032 64.7085 61.9973 64.6182 62.9914C64.7085 64.3471 65.07 65.6123 65.7027 66.6968C65.2508 63.2626 65.9738 59.8283 67.2391 58.5631C67.6909 58.1112 68.3236 57.9304 68.8658 58.1112C70.4022 58.6534 70.3118 61.1839 70.3118 63.8952C70.1311 65.4316 70.2214 66.9679 70.5829 68.4139C71.1252 69.7696 72.8423 71.306 74.5594 72.752C76.0958 73.9268 77.4514 75.3728 78.6263 76.9092C80.5242 80.0723 76.8188 90.7366 76.6381 91.1885C73.2038 100.136 65.793 112.065 57.4785 122.368C48.5314 133.394 40.488 140.081 35.5174 140.714C34.9752 140.985 34.4329 141.075 33.8907 141.075ZM63.7144 56.2133C63.4433 56.2133 63.2626 56.3037 63.0818 56.4844C61.4551 57.7497 59.4668 62.6299 60.0994 66.8776C60.4609 69.86 62.9914 73.7461 64.8893 76.6381C66.6064 79.259 67.4198 80.5242 67.1487 81.2472C66.9679 81.9702 63.4433 85.4948 54.1347 94.8938C43.2897 105.829 28.4682 120.922 26.3895 124.446C24.4916 128.333 24.7628 132.942 26.9318 136.647C28.197 138.545 30.7275 140.714 35.427 140.172C45.9105 138.906 68.8658 109.444 75.9151 91.1885C76.9996 88.2061 79.4397 79.982 77.9937 77.6322C76.9092 76.0958 75.5536 74.7402 74.1076 73.6557C72.3001 72.029 70.4926 70.583 69.9503 68.9562C69.5888 67.3295 69.4984 65.7027 69.5888 64.1663C69.6792 61.9973 69.6792 59.5572 68.7754 59.1957C68.6851 59.1957 68.4139 59.0149 67.9621 59.4668C66.6064 60.8225 65.9738 65.3412 67.1487 69.0466C67.2391 69.2273 67.0583 69.4985 66.8776 69.5888C66.6968 69.6792 66.5161 69.5888 66.4257 69.4985C66.3353 69.4081 63.8952 66.3353 63.8952 63.3529C63.8952 62.2684 64.0759 61.2743 64.347 60.1898C64.7989 58.1112 64.9797 56.7556 63.9856 56.3941C63.8952 56.2133 63.8048 56.2133 63.7144 56.2133Z" fill="#231F20"/>
<path d="M84.9526 90.6463C84.9526 90.6463 81.0664 79.7109 82.9643 76.7285C84.6814 74.0173 87.7542 72.3905 89.8328 69.9504C92.0018 67.4199 91.7307 62.9011 92.9959 59.738C93.2671 59.1054 93.8093 58.292 94.4419 58.5631C94.7131 58.6535 94.8938 58.9246 95.0746 59.1958C96.0687 61.184 96.7013 63.2626 96.9724 65.4317C97.4243 67.3295 97.6051 69.2274 97.6954 71.1253C97.6954 72.8424 97.3339 74.5595 96.7013 76.1863C96.3398 77.1804 94.3516 79.4398 94.7131 80.5243C95.1649 81.9703 97.6051 89.2907 101.582 94.3517C105.558 99.4127 126.164 119.114 129.056 131.586C130.592 138.184 129.598 146.137 118.934 144.781C108.269 143.425 92.1826 109.173 84.9526 90.6463Z" fill="white"/>
<path d="M121.012 145.323C120.289 145.323 119.476 145.233 118.753 145.233C107.817 143.877 91.6403 109.083 84.5911 90.9174C84.4103 90.4655 80.7049 79.8013 82.6028 76.6381C83.6873 75.1017 85.0429 73.6557 86.5793 72.4809C87.6638 71.6675 88.5676 70.7637 89.4713 69.7696C90.7366 68.2332 91.1884 65.9739 91.5499 63.8049C91.7307 62.3589 92.0922 61.0032 92.5441 59.6476C92.9056 58.7439 93.6286 57.8401 94.5323 58.2016C94.8938 58.3824 95.1649 58.6535 95.3457 59.015C96.3398 61.0032 96.9724 63.1722 97.3339 65.3412C97.7858 67.2391 97.9666 69.137 98.0569 71.1252C98.0569 72.9327 97.6954 74.6499 97.0628 76.2766C96.7917 76.7285 96.6109 77.1804 96.2494 77.6322C95.7072 78.4456 94.8938 79.8013 95.0746 80.3435C95.1649 80.705 97.6051 88.5676 101.853 93.9901C102.666 95.0746 104.293 96.7918 106.281 98.9608C114.053 107.366 127.067 121.464 129.417 131.405C130.05 134.297 130.773 139.539 127.881 142.793C126.254 144.419 123.995 145.323 121.012 145.323ZM85.3141 90.5559C93.4478 111.523 109.083 143.154 118.843 144.329C122.639 144.781 125.441 144.058 127.158 142.16C129.779 139.268 129.146 134.297 128.513 131.586C126.254 121.916 112.788 107.275 105.558 99.503C103.57 97.334 101.943 95.6169 101.13 94.5324C96.7013 89.0195 94.2612 80.9761 94.1708 80.6146C93.8997 79.7109 94.7131 78.3552 95.4361 77.1804C95.7072 76.8189 95.9783 76.367 96.1591 76.0055C96.7917 74.4691 97.1532 72.752 97.1532 71.1252C97.1532 69.2274 96.8821 67.3295 96.4302 65.522C96.1591 63.4434 95.5264 61.3647 94.5323 59.3765C94.4419 59.1957 94.2612 59.015 94.1708 58.9246C93.8093 58.7439 93.3574 59.4669 93.2671 59.9187C92.8152 61.184 92.5441 62.5396 92.2729 63.8952C91.9114 66.245 91.4596 68.5947 90.0136 70.2215C89.1098 71.2156 88.1157 72.2097 87.0312 73.0231C85.5852 74.1076 84.3199 75.4632 83.2354 76.9092C81.8798 79.259 84.3199 87.5735 85.3141 90.5559Z" fill="#231F20"/>
<path d="M70.4022 156.891C70.4022 156.891 30.9986 119.657 14.2793 127.067C-2.44012 134.478 -2.07862 155.626 6.86851 167.827C15.8156 180.027 49.164 189.968 76.8188 187.348C104.474 184.727 142.521 174.514 149.932 164.935C157.343 155.355 151.83 139.268 138.726 135.111C125.621 130.954 91.9114 157.885 70.4022 156.891Z" fill="#231F20"/>
<path d="M67.962 188.161C42.9281 188.161 14.9119 179.304 6.59737 168.007C1.08449 160.597 -0.994137 150.203 1.35561 141.708C3.07274 134.93 7.77224 129.417 14.1889 126.706C30.6371 119.476 67.8717 153.909 70.5829 156.53C81.4279 156.982 95.6168 150.113 108.179 144.148C120.56 138.274 132.219 132.671 138.816 134.749C145.413 136.918 150.655 142.07 152.643 148.757C154.541 154.722 153.638 160.687 150.203 165.206C142.883 174.785 104.745 185.179 76.8188 187.799C73.9268 188.071 71.0348 188.161 67.962 188.161ZM19.3403 126.525C17.7135 126.525 15.9964 126.796 14.46 127.429C8.31449 130.05 3.70537 135.382 2.07861 141.889C-0.0903871 150.203 1.89786 160.325 7.22999 167.555C16.3579 180.027 50.1581 189.426 76.7284 186.986C104.474 184.365 142.341 174.062 149.571 164.663C152.824 160.416 153.638 154.632 151.92 148.938C149.932 142.521 144.962 137.551 138.545 135.472C132.219 133.484 120.741 138.997 108.54 144.871C95.7975 150.926 81.4279 157.795 70.4022 157.343C70.3118 157.343 70.2214 157.343 70.131 157.253C69.7695 156.891 37.4153 126.525 19.3403 126.525Z" fill="#231F20"/>
<path d="M46.0009 183.1L71.4867 195.391L82.8739 166.561C82.8739 166.561 46.3624 140.895 37.3249 148.306C28.2874 155.716 43.1089 180.841 46.0009 183.1Z" fill="#231F20"/>
<path d="M71.4867 195.843C71.3963 195.843 71.3963 195.843 71.3059 195.843L45.8201 183.461L45.7298 183.371C43.38 181.564 34.2521 166.381 34.0714 155.897C33.981 152.282 35.0655 149.661 37.0538 147.944C46.1816 140.443 81.6087 165.115 83.0547 166.2C83.2354 166.29 83.2354 166.471 83.2354 166.652L71.8482 195.481C71.8482 195.662 71.6674 195.752 71.4867 195.843ZM46.1816 182.738L71.3059 194.849L82.422 166.652C79.1685 164.392 45.9105 141.708 37.596 148.577C35.7885 150.113 34.7944 152.553 34.8848 155.897C35.0655 165.929 44.0126 180.931 46.1816 182.738Z" fill="#231F20"/>
<path d="M81.6087 192.86C81.6087 192.86 99.0511 198.644 115.228 196.204C133.484 193.493 138.997 185.269 129.688 177.949C120.38 170.628 82.5124 176.864 82.5124 176.864L81.6087 192.86Z" fill="#9B292B"/>
<path d="M106.914 197.198C98.3281 197.108 89.7424 195.752 81.5183 193.222C81.3376 193.132 81.2472 192.951 81.2472 192.77L82.2413 176.774C82.2413 176.593 82.4221 176.412 82.6028 176.412C84.1392 176.141 120.741 170.176 130.05 177.587C133.755 180.479 135.291 183.642 134.478 186.625C133.213 191.324 126.254 194.939 115.409 196.566C112.607 197.018 109.806 197.198 106.914 197.198ZM82.0606 192.589C84.4103 193.312 100.407 198.012 115.228 195.843C125.712 194.306 132.399 190.872 133.574 186.444C134.297 183.823 132.851 180.931 129.417 178.31C120.831 171.442 86.6697 176.593 82.9643 177.226L82.0606 192.589Z" fill="#231F20"/>
<path d="M73.023 191.595C73.023 191.595 88.1157 196.295 91.0077 187.709C93.8997 179.123 87.6638 178.22 79.8012 176.503L73.023 191.595Z" fill="white"/>
<path d="M81.4279 193.312H80.8857C78.1744 193.222 75.4632 192.77 72.8423 192.047C72.7519 192.047 72.6615 191.957 72.5712 191.866C72.4808 191.776 72.4808 191.595 72.5712 191.505L79.3493 176.412C79.4397 176.231 79.6204 176.141 79.8012 176.141L81.1568 176.412C85.7659 177.406 89.8328 178.31 91.3692 181.112C92.2729 182.738 92.2729 184.998 91.3692 187.89C90.1039 191.505 86.76 193.312 81.4279 193.312ZM73.5653 191.324C76.0958 192.047 88.1157 194.939 90.5558 187.528C91.4596 184.817 91.4596 182.829 90.6462 181.383C89.2906 178.943 85.4044 178.129 80.976 177.135L79.9819 176.954L73.5653 191.324Z" fill="#231F20"/>
<path d="M42.2955 181.473C42.2052 181.473 42.1148 181.473 42.1148 181.383C41.934 181.292 22.5034 169.273 11.3873 164.302C11.2065 164.212 11.1161 163.94 11.2065 163.76C11.2969 163.579 11.568 163.489 11.7488 163.579C22.9553 168.55 42.3859 180.569 42.5667 180.66C42.7474 180.75 42.8378 181.021 42.7474 181.202C42.5667 181.383 42.4763 181.473 42.2955 181.473Z" fill="white"/>
<path d="M32.0831 174.605C32.0831 174.605 23.9494 172.978 21.7804 179.123C19.6114 185.269 21.7804 197.198 27.2029 199.367C32.6254 201.536 41.0303 192.77 44.1934 191.957C47.3565 191.143 55.671 187.89 55.671 187.89L32.0831 174.605Z" fill="#9B292B"/>
<path d="M29.1008 200C28.3778 200 27.7451 199.91 27.1125 199.639C21.3285 197.379 19.3403 185.088 21.4189 178.943C23.5879 172.616 32.0831 174.153 32.1735 174.153L32.2639 174.243L55.8518 187.438C56.0325 187.528 56.1229 187.709 56.0325 187.799C56.0325 187.98 55.9422 188.07 55.7614 188.161C55.3999 188.251 47.4469 191.414 44.2838 192.228C43.2896 192.499 41.6629 193.583 39.8554 194.849C36.6019 197.198 32.6254 200 29.1008 200ZM29.8238 174.785C27.3836 174.785 23.4975 175.418 22.2323 179.214C21.2381 182.106 21.2381 186.534 22.1419 190.601C23.136 195.029 25.1243 198.012 27.474 198.916C30.9083 200.271 35.6981 196.927 39.4939 194.306C41.3918 192.951 43.0185 191.866 44.1934 191.595C46.7239 190.963 52.5983 188.703 54.7673 187.89L31.9928 175.147C31.2698 174.876 30.5468 174.785 29.8238 174.785Z" fill="#231F20"/>
<path d="M79.7108 176.864H79.6204C79.4397 176.774 79.2589 176.593 79.3493 176.322L81.9702 168.73C80.0723 166.832 63.7144 149.932 52.5983 141.798C52.4175 141.708 52.4175 141.437 52.5079 141.256C52.5983 141.075 52.8694 141.075 53.0502 141.166C64.8893 149.842 82.5124 168.188 82.6932 168.369C82.7836 168.459 82.8739 168.64 82.7836 168.821L80.0723 176.593C79.9819 176.774 79.8915 176.864 79.7108 176.864Z" fill="white"/>
<path d="M80.4338 68.8658C78.3552 68.8658 76.2765 68.3236 74.5594 67.2391C74.3787 67.1487 74.2883 66.8776 74.469 66.6968C74.5594 66.5161 74.8305 66.4257 75.0113 66.6065C78.2648 68.5043 82.2413 68.5043 85.4948 66.7872C85.6755 66.6968 85.9467 66.7872 86.037 66.968C86.1274 67.1487 86.037 67.4198 85.8563 67.5102C84.2295 68.414 82.3317 68.8658 80.4338 68.8658Z" fill="#231F20"/>
<path d="M123.723 11.8391C121.826 12.6525 120.199 13.9178 118.934 15.5445C113.059 23.0456 116.855 31.6313 121.554 38.6805C126.615 46.272 138.455 45.6394 146.498 42.5666C150.294 47.5373 157.976 49.6159 164.663 47.9891C170.899 46.4528 176.141 42.2051 178.943 36.4211C180.479 39.1324 184.817 40.1265 188.161 39.2228C200.09 36.15 201.898 21.0574 192.86 14.5504C190.42 12.7429 186.263 12.291 184.004 14.1889C183.461 10.9354 180.298 7.32037 176.593 6.05512C175.508 5.69362 165.657 5.33212 166.471 6.507C163.669 2.62087 158.156 0.361493 152.734 0.271118C147.402 0.271118 142.16 1.89787 137.732 4.78987C135.201 6.23587 133.032 8.22412 131.405 10.6642C128.875 10.4835 126.164 10.9354 123.723 11.8391Z" fill="white"/>
<path d="M160.054 48.9833C154.632 48.9833 149.3 46.8143 146.317 43.1089C137.551 46.2721 126.073 46.2721 121.103 38.8613C116.945 32.6254 112.155 23.3168 118.572 15.1831C119.837 13.4659 121.554 12.2007 123.543 11.3873C125.983 10.3932 128.604 10.0317 131.225 10.2124C132.942 7.86267 135.02 5.87442 137.551 4.42842C142.07 1.53642 147.402 -0.090332 152.824 -0.090332C158.427 4.30271e-05 163.669 2.25942 166.471 5.78405C166.923 5.51292 168.188 5.33217 171.441 5.33217C173.249 5.33217 174.966 5.42255 176.774 5.69367C180.389 6.95892 183.19 9.85092 184.365 13.4659C186.986 11.8392 190.872 12.4718 193.222 14.1889C197.741 17.5328 199.91 23.1361 198.825 28.6489C197.831 34.0714 193.674 38.4094 188.342 39.7651C185.178 40.5784 181.021 39.8554 179.033 37.3249C176.051 42.8378 170.899 46.9047 164.754 48.3507C163.308 48.8026 161.681 48.9833 160.054 48.9833ZM146.498 42.1148C146.679 42.1148 146.769 42.2052 146.859 42.2956C150.384 46.9951 157.885 49.1641 164.573 47.5373C170.628 46.0009 175.779 41.9341 178.581 36.2404C178.671 36.0597 178.852 35.9693 178.943 35.9693C179.123 35.9693 179.304 36.0597 179.394 36.1501C180.931 38.7709 185.088 39.5843 188.161 38.7709C193.222 37.5961 197.108 33.5292 198.012 28.3778C199.006 23.2264 196.927 17.9847 192.77 14.8216C190.511 13.1948 186.624 12.6526 184.455 14.4601C184.365 14.5504 184.184 14.6408 184.004 14.5504C183.823 14.4601 183.732 14.3697 183.732 14.1889C183.19 10.9354 180.027 7.59155 176.593 6.41667C175.508 6.05517 168.278 5.9648 167.103 6.41667C167.103 6.6878 166.923 6.86855 166.652 6.86855C166.471 6.86855 166.38 6.77817 166.29 6.6878C163.76 3.0728 158.518 0.723044 152.915 0.632668C147.673 0.723044 142.521 2.25942 138.093 5.06105C135.653 6.50705 133.574 8.40492 131.948 10.7547C131.857 10.9354 131.676 10.9354 131.496 10.9354C128.965 10.6643 126.344 11.0258 123.904 12.0199C122.097 12.7429 120.47 14.0082 119.295 15.5446C113.33 23.1361 117.578 31.6313 121.916 38.1383C126.615 45.1876 137.822 45.0068 146.317 41.8437C146.317 42.1148 146.408 42.1148 146.498 42.1148Z" fill="#D1D3D4"/>
<path d="M140.985 51.6042C142.07 51.2427 143.154 51.1523 144.239 51.3331C145.594 51.3331 146.859 51.9657 147.673 53.0502C148.396 54.1347 147.763 56.0326 146.498 56.0326C148.305 55.1288 150.746 56.4844 151.288 58.4727C152.372 62.6299 147.04 65.1604 143.516 64.9797C141.798 64.8893 140.081 63.9856 138.364 64.2567C135.201 64.7086 132.942 65.0701 130.592 62.1781C128.875 60.0994 129.507 57.2978 130.863 55.2192C131.767 53.7732 133.213 52.8694 134.84 52.5983C135.382 52.5079 139.268 53.0502 138.906 53.9539C139.178 52.8694 139.991 51.9657 140.985 51.6042Z" fill="white"/>
<path d="M143.967 65.4316C143.787 65.4316 143.606 65.4316 143.425 65.4316C142.702 65.3412 141.979 65.2509 141.256 65.0701C140.262 64.799 139.268 64.6182 138.274 64.7086C135.02 65.1605 132.58 65.522 130.05 62.4492C128.061 60.0995 128.965 56.9364 130.321 54.9481C131.225 53.4117 132.851 52.4176 134.568 52.1465C136.014 52.1465 137.37 52.508 138.635 53.0502C139.087 52.2369 139.81 51.6042 140.624 51.2427C141.708 50.8812 142.973 50.7005 144.148 50.9716C145.956 51.1524 147.221 51.8754 147.944 52.8695C148.396 53.6829 148.396 54.5866 148.034 55.4C148.486 55.4904 148.848 55.5807 149.209 55.7615C150.384 56.3037 151.197 57.2979 151.559 58.4727C151.92 59.9187 151.559 61.4551 150.565 62.63C148.938 64.4375 146.498 65.4316 143.967 65.4316ZM138.997 63.7145C139.901 63.7145 140.714 63.8952 141.527 64.076C142.16 64.2567 142.883 64.3471 143.516 64.4375C145.956 64.6182 148.305 63.6241 150.023 61.907C150.836 61.0032 151.107 59.738 150.836 58.5631C150.565 57.6594 149.932 56.846 149.028 56.4845C148.486 56.2134 147.944 56.123 147.402 56.2134C147.131 56.3941 146.859 56.4845 146.498 56.4845C146.317 56.4845 146.136 56.3037 146.046 56.123C146.046 55.9422 146.136 55.6711 146.317 55.5807C146.588 55.4904 146.769 55.4 147.04 55.3096C147.131 55.2192 147.221 55.0385 147.311 54.9481C147.582 54.4059 147.582 53.7732 147.311 53.231C146.769 52.4176 145.775 51.9657 144.239 51.6946C143.244 51.5139 142.16 51.6042 141.166 51.9657C140.262 52.3272 139.629 53.0502 139.358 53.954C139.268 54.2251 138.997 54.3155 138.726 54.2251C138.545 54.1347 138.455 53.954 138.455 53.7732C138.183 53.4117 135.382 52.9599 134.84 52.9599C133.303 53.231 132.038 54.1347 131.225 55.4C130.05 57.1171 129.236 59.8284 130.863 61.8166C133.032 64.4375 135.111 64.1664 138.183 63.7145C138.545 63.8049 138.816 63.7145 138.997 63.7145Z" fill="#D1D3D4"/>
<path d="M123.814 65.1604C123 64.7989 122.006 64.7085 121.103 64.9797C120.199 65.2508 119.566 66.0642 119.476 66.9679C119.476 67.8717 120.199 68.5947 121.103 68.5947C121.193 68.5947 121.193 68.5947 121.283 68.5947C119.205 69.9503 123.723 73.5653 125.712 69.7695C126.525 68.2332 125.983 66.2449 124.446 65.4315C124.266 65.3412 124.085 65.2508 123.814 65.1604Z" fill="white"/>
<path d="M123.272 71.9386C123.181 71.9386 123 71.9386 122.91 71.9386C121.735 71.8483 120.741 71.0349 120.38 69.9504C120.289 69.6793 120.38 69.3178 120.47 69.0466C120.289 68.9563 120.108 68.8659 119.928 68.6851C119.385 68.3236 119.114 67.691 119.114 67.0584C119.205 65.8835 119.928 64.9798 121.012 64.6183C122.006 64.3471 123.091 64.3471 123.995 64.799C125.079 65.1605 125.892 65.9739 126.344 67.0584C126.706 68.0525 126.615 69.137 126.073 70.0408C125.621 71.1253 124.537 71.9386 123.272 71.9386ZM121.374 68.2333C121.554 68.2333 121.735 68.3236 121.826 68.5044C121.916 68.6851 121.826 68.9563 121.645 69.0466C121.374 69.137 121.283 69.4985 121.283 69.7696C121.554 70.4926 122.277 71.0349 123.091 71.1253C124.085 71.2156 125.079 70.583 125.441 69.6793C125.802 69.0466 125.892 68.2333 125.621 67.4199C125.26 66.6065 124.627 65.9739 123.723 65.7028C123 65.4316 122.097 65.3413 121.374 65.522C120.651 65.7028 120.108 66.3354 120.108 67.1488C120.108 67.5103 120.289 67.8718 120.56 68.0525C120.741 68.1429 121.012 68.2333 121.374 68.2333Z" fill="#D1D3D4"/>
<path d="M174.514 125.893C174.695 123.814 174.243 121.826 173.249 119.928C172.436 118.572 171.261 117.578 170.628 116.222C169.544 113.782 170.267 110.981 169.995 108.36C169.724 106.191 168.821 104.112 167.194 102.485C165.838 101.13 164.031 100.136 162.675 98.6896C160.506 96.3399 159.873 92.9056 158.699 90.0136C156.981 85.766 153.909 82.2414 150.023 79.8013C152.372 84.5911 147.04 90.5559 149.48 95.2554C150.294 96.7014 151.74 97.8763 152.282 99.4127C153.638 103.208 149.119 107.366 150.565 111.161C151.288 113.059 153.276 114.144 154.27 115.951C155.535 118.391 154.541 121.283 154.632 123.995C154.812 127.79 157.072 131.134 159.783 133.755C161.5 135.382 163.398 136.828 165.206 138.274C167.375 140.081 168.278 141.889 170.267 139.087C172.887 135.111 174.424 130.592 174.514 125.893Z" fill="#D1D3D4"/>
<path d="M176.954 128.062C176.231 125.17 175.779 122.006 176.954 119.205C178.31 116.132 181.654 113.873 182.015 110.529C182.286 108.36 181.112 106.1 181.563 103.931C182.015 101.762 183.823 100.226 185.269 98.6896C188.613 94.9843 190.691 90.1944 190.962 85.2238C193.041 88.0254 195.21 90.827 196.385 94.1709C197.56 97.5148 197.56 101.401 195.572 104.293C195.029 104.926 194.577 105.739 194.216 106.552C193.583 108.721 195.391 110.71 196.385 112.698C197.56 115.048 197.289 117.849 195.752 120.018C193.854 122.458 190.149 123.362 189.155 126.254C188.884 127.339 188.793 128.423 188.793 129.598C188.342 133.574 185.63 136.828 181.744 137.912C179.485 138.455 179.485 137.551 179.123 135.653C178.581 133.032 177.587 130.592 176.954 128.062Z" fill="#D1D3D4"/>
<path d="M169.724 107.094C168.098 101.491 167.465 95.6168 165.748 90.1039C164.302 85.7659 162.494 81.5183 160.416 77.4514L167.375 80.3434C169.634 81.2472 171.984 82.422 173.068 84.591C174.876 88.3868 171.622 93.2671 173.52 96.9724C174.243 98.2377 175.418 99.2318 176.231 100.407C178.31 103.299 177.948 107.185 176.864 110.529C176.412 111.975 174.243 119.385 172.436 117.307C171.713 116.493 171.622 113.421 171.261 112.246C170.809 110.529 170.176 108.812 169.724 107.094Z" fill="#D1D3D4"/>
<path d="M173.52 181.383C172.164 172.255 167.826 139.991 167.736 139.72L168.911 139.539C168.911 139.901 173.249 172.074 174.695 181.202L173.52 181.383Z" fill="#D1D3D4"/>
<path d="M175.147 190.059H173.972C174.062 179.214 178.581 137.732 181.202 134.84L182.106 135.653C180.298 137.551 175.237 175.147 175.147 190.059Z" fill="#D1D3D4"/>
<path d="M177.497 187.98L176.322 187.89C177.316 164.483 172.436 115.319 172.345 114.867L173.52 114.776C173.52 115.228 178.491 164.483 177.497 187.98Z" fill="#D1D3D4"/>
<path d="M161.591 159.331H187.438L185.63 185.45C185.359 189.968 181.563 193.493 177.045 193.493H172.074C167.555 193.493 163.76 189.968 163.488 185.45L161.591 159.331Z" fill="white"/>
<path d="M177.045 194.035H172.074C167.284 194.035 163.398 190.33 163.037 185.54L161.229 159.422C161.229 159.331 161.229 159.15 161.319 159.06C161.41 158.97 161.5 158.97 161.591 158.97H187.438C187.709 158.97 187.89 159.15 187.89 159.422L186.082 185.54C185.721 190.33 181.744 193.945 177.045 194.035ZM162.133 159.873L163.94 185.54C164.211 189.788 167.826 193.131 172.074 193.131H177.045C181.292 193.131 184.907 189.788 185.178 185.54L186.986 159.873H162.133Z" fill="#D1D3D4"/>
<path d="M152.372 28.5586C151.92 28.5586 151.469 28.9201 151.469 29.4623C151.469 29.9142 151.83 30.3661 152.372 30.3661C152.824 30.3661 153.276 30.0046 153.276 29.4623C153.186 28.9201 152.824 28.5586 152.372 28.5586Z" fill="#007FA4"/>
<path d="M152.372 15.1831C150.023 15.1831 148.034 17.081 148.034 19.5211C148.034 19.973 148.396 20.4249 148.938 20.4249C149.48 20.4249 149.842 20.0634 149.842 19.5211C149.842 18.0751 151.017 16.9906 152.372 16.9906C153.818 16.9906 154.903 18.1655 154.903 19.5211C154.903 20.9671 153.728 22.0516 152.372 22.0516C151.92 22.0516 151.469 22.4131 151.469 22.9554V26.48C151.469 26.9319 151.83 27.3837 152.372 27.3837C152.824 27.3837 153.276 27.0222 153.276 26.48V23.7687C155.264 23.4072 156.71 21.5997 156.71 19.5211C156.71 17.081 154.722 15.1831 152.372 15.1831Z" fill="#007FA4"/>
<path d="M170.809 29.7334C170.447 29.7334 170.086 30.0949 170.086 30.4564C170.086 30.8179 170.447 31.1794 170.809 31.1794C171.17 31.1794 171.532 30.8179 171.532 30.4564C171.532 30.0045 171.17 29.7334 170.809 29.7334Z" fill="#007FA4"/>
<path d="M170.809 18.4365C168.821 18.4365 167.194 20.0633 167.194 22.0515C167.194 22.413 167.555 22.7745 167.917 22.7745C168.278 22.7745 168.64 22.413 168.64 22.0515C168.64 20.8767 169.634 19.8825 170.809 19.8825C171.984 19.8825 172.978 20.8767 172.978 22.0515C172.978 23.2264 171.984 24.2205 170.809 24.2205C170.447 24.2205 170.086 24.582 170.086 24.9435V27.9259C170.086 28.2874 170.447 28.6489 170.809 28.6489C171.17 28.6489 171.532 28.2874 171.532 27.9259V25.5762C173.159 25.2147 174.424 23.7687 174.424 22.0515C174.424 20.0633 172.797 18.4365 170.809 18.4365Z" fill="#007FA4"/>
<path d="M134.117 32.7158C133.755 32.7158 133.394 33.0773 133.394 33.4388C133.394 33.8003 133.755 34.1618 134.117 34.1618C134.478 34.1618 134.84 33.8003 134.84 33.4388C134.749 32.9869 134.478 32.7158 134.117 32.7158Z" fill="#007FA4"/>
<path d="M134.117 21.4189C132.128 21.4189 130.502 23.0457 130.502 25.0339C130.502 25.3954 130.863 25.7569 131.225 25.7569C131.586 25.7569 131.948 25.3954 131.948 25.0339C131.948 23.8591 132.942 22.8649 134.117 22.8649C135.291 22.8649 136.286 23.8591 136.286 25.0339C136.286 26.2088 135.291 27.2029 134.117 27.2029C133.755 27.2029 133.394 27.5644 133.394 27.9259V30.9083C133.394 31.2698 133.755 31.6313 134.117 31.6313C134.478 31.6313 134.84 31.2698 134.84 30.9083V28.5586C136.466 28.1971 137.732 26.7511 137.732 25.0339C137.732 23.0457 136.105 21.4189 134.117 21.4189Z" fill="#007FA4"/>
</g>
<defs>
<clipPath id="clip0_1251_106">
<rect width="199.096" height="200" fill="white"/>
</clipPath>
</defs>
</svg>
