<svg width="24" height="24" viewBox="0 0 24 24" fill="none" xmlns="http://www.w3.org/2000/svg">
<path d="M20.7801 19.7198L15.6614 14.6011C16.6529 13.3764 17.2498 11.8202 17.2498 10.1252C17.2498 6.19672 14.0534 3.00024 10.1249 3.00024C6.19645 3.00024 3 6.19669 3 10.1252C3 14.0536 6.19648 17.2501 10.1249 17.2501C11.8199 17.2501 13.3762 16.6531 14.6009 15.6616L19.7196 20.7803C19.8658 20.9266 20.0578 21.0001 20.2498 21.0001C20.4419 21.0001 20.6339 20.9266 20.7801 20.7803C21.0733 20.4871 21.0733 20.0131 20.7801 19.7198ZM10.1249 15.7501C7.02296 15.7501 4.5 13.2271 4.5 10.1252C4.5 7.02317 7.02296 4.50021 10.1249 4.50021C13.2269 4.50021 15.7499 7.02317 15.7499 10.1252C15.7499 13.2271 13.2269 15.7501 10.1249 15.7501Z" fill="#007FA4"/>
</svg>
