<svg width="186" height="200" viewBox="0 0 186 200" fill="none" xmlns="http://www.w3.org/2000/svg">
<g clip-path="url(#clip0_1252_0)">
<path d="M154.222 199.586H5.38079C5.38079 199.586 -2.81458 129.801 1.07615 117.467C5.71191 102.815 39.5695 87.6656 55.4636 80.7119C62.2516 77.7318 66.9702 75.9934 66.9702 75.9934L108.195 76.9868C112.997 78.2285 117.715 79.8014 122.268 81.7053C136.258 87.5 156.209 99.255 160.099 119.785C166.225 152.07 154.222 199.586 154.222 199.586Z" fill="#9B292B"/>
<path d="M95.9437 200C95.6953 200 95.5298 199.835 95.5298 199.586V132.533C95.5298 132.45 95.5298 132.285 95.6126 132.202L134.271 88.9074C134.437 88.7418 134.685 88.6591 134.851 88.8246C135.017 88.9902 135.099 89.2385 134.934 89.4041C134.934 89.4041 134.934 89.4869 134.851 89.4869L96.2748 132.699V199.586C96.3576 199.835 96.192 200 95.9437 200Z" fill="white"/>
<path d="M77.0695 200C76.8212 200 76.6556 199.835 76.6556 199.586V132.699L38.0795 89.4868C37.9139 89.3213 37.9139 89.0729 38.0795 88.9074C38.245 88.7418 38.4934 88.7418 38.6589 88.9074L77.4007 132.202C77.4834 132.285 77.4834 132.368 77.4834 132.533V199.586C77.4834 199.835 77.3179 200 77.0695 200Z" fill="white"/>
<path d="M122.268 81.5398L87.0033 117.384L55.3808 80.6292H55.4636C62.2517 77.6491 66.9702 75.9106 66.9702 75.9106L108.195 76.904C112.997 78.063 117.715 79.6358 122.268 81.5398Z" fill="#231F20"/>
<path d="M81.6225 91.6389L84.9338 96.6886L81.6225 111.175L87.0033 117.467L92.6324 111.341L88.8245 96.6886L92.6324 91.6389L87.0033 88.2449L81.6225 91.6389Z" fill="#9B292B"/>
<path d="M132.368 199.586C132.368 199.586 136.589 113.162 140.811 113.99C154.801 116.639 140.811 189.487 140.811 199.586H132.368Z" fill="#231F20"/>
<path d="M100.497 4.13896L100.579 4.22174C101.242 4.71843 103.725 7.533 104.305 7.533C111.755 7.78134 117.881 11.9204 119.04 19.3707C119.536 22.5992 119.536 25.9105 120.613 29.0562C122.682 35.2648 128.725 40.1489 128.56 46.6886C128.477 49.7515 126.987 52.6489 126.821 55.7118C126.573 59.7681 128.642 63.9072 132.285 65.7284H45.3642C43.7914 65.8111 42.1357 65.8111 40.5629 65.8939C45.0331 63.9072 46.6887 58.3608 46.9371 53.4767C47.1854 48.5926 46.8543 43.3774 49.1722 39.0727C51.3245 35.182 55.5463 32.6158 57.6987 28.725C59.851 24.8343 59.5198 19.9502 61.0099 15.6456C65.149 3.47671 83.5265 -1.90409 94.7847 1.40717C96.8543 1.98664 98.7583 2.89724 100.497 4.13896Z" fill="white"/>
<path d="M40.5629 66.3907C40.3973 66.3907 40.2318 66.2251 40.149 66.0596C40.0662 65.894 40.2318 65.6457 40.3973 65.5629C45.1987 63.4106 46.3576 57.0364 46.5232 53.4768C46.606 52.4834 46.606 51.4073 46.606 50.4139C46.6887 46.4404 46.8543 42.3841 48.7583 38.9073C49.9172 37.0033 51.4073 35.2649 53.0629 33.692C54.7185 32.202 56.1258 30.4636 57.2848 28.5596C58.4437 26.3245 58.8576 23.841 59.2715 21.192C59.5199 19.2881 59.9338 17.3841 60.5132 15.5629C62.5 9.85097 67.6324 5.13243 75 2.40064C81.7053 -0.0828064 89.1556 -0.579495 94.8675 1.07613C96.9371 1.73839 98.9238 2.64898 100.662 3.8907L100.497 4.13905L100.828 3.80792L100.911 3.8907C101.407 4.30461 101.904 4.71852 102.318 5.21521C102.98 5.96024 103.725 6.62249 104.47 7.20196C112.583 7.45031 118.46 12.0861 119.619 19.3708C119.785 20.447 119.95 21.5232 120.033 22.5993C120.199 24.7516 120.613 26.9039 121.192 28.9735C122.103 31.3741 123.344 33.692 124.834 35.7616C126.987 39.1556 129.222 42.6324 129.139 46.6887C129.056 48.2616 128.725 49.8344 128.228 51.4073C127.815 52.8145 127.566 54.2218 127.401 55.7119C127.235 59.7682 129.305 63.7417 132.616 65.3145C132.781 65.3973 132.864 65.5629 132.864 65.8112C132.781 65.9768 132.616 66.1424 132.45 66.1424H45.3642C44.6192 66.2251 43.7914 66.2251 42.9636 66.2251C42.1358 66.2251 41.3907 66.3079 40.5629 66.3907ZM87.1689 0.662227C75.4139 0.662227 64.1556 7.78143 61.4238 15.7285C60.8444 17.5496 60.5132 19.3708 60.2649 21.192C59.851 23.7583 59.4371 26.49 58.1126 28.8907C56.9536 30.8775 55.4636 32.6987 53.7252 34.2715C52.1523 35.7616 50.745 37.4172 49.5861 39.3212C47.7649 42.6324 47.5993 46.6059 47.5166 50.4967C47.5166 51.49 47.4338 52.5662 47.4338 53.5596C47.1854 56.8708 46.2748 62.5828 42.3013 65.3973H42.9636C43.7914 65.3973 44.5364 65.3145 45.3642 65.3145H130.795C127.815 62.9967 126.242 59.4371 126.49 55.7119C126.656 54.1391 126.904 52.649 127.401 51.1589C127.815 49.6688 128.146 48.1788 128.228 46.6059C128.311 42.798 126.242 39.5695 124.089 36.1755C122.517 34.0232 121.275 31.6225 120.364 29.139C119.702 26.9867 119.288 24.8344 119.122 22.5993C119.04 21.5232 118.874 20.447 118.709 19.4536C117.632 12.5828 112.086 8.19534 104.387 7.947C103.891 7.947 103.146 7.28474 101.656 5.7119C101.242 5.29799 100.828 4.88408 100.414 4.47017L100.331 4.38739C98.6755 3.22845 96.7715 2.31786 94.7848 1.6556C92.3013 1.07613 89.7351 0.662227 87.1689 0.662227Z" fill="#231F20"/>
<path d="M71.4404 41.4734C70.1159 33.8575 57.4503 32.1191 58.1126 41.1423C58.3609 44.2052 59.3543 47.3509 61.5894 49.586C63.8245 51.8211 67.3013 52.8145 70.1159 51.49" fill="white"/>
<path d="M67.4669 52.4006C65.149 52.4006 62.9967 51.4072 61.341 49.8344C58.7748 47.2682 57.947 43.7086 57.6987 41.1423C57.3675 36.8377 59.9338 35.0165 62.5 34.6854C66.3079 34.1887 71.1093 36.8377 71.8543 41.4735C71.8543 41.7218 71.7715 41.8874 71.5232 41.9701C71.2748 42.0529 71.1093 41.8874 71.0265 41.639C70.2814 37.4999 66.0596 35.1821 62.5828 35.596C59.7682 35.9271 58.2781 37.9966 58.5265 41.1423C58.692 43.543 59.4371 46.8543 61.8377 49.2549C64.0728 51.49 67.3841 52.235 69.8675 51.0761C70.1159 50.9933 70.3642 51.1589 70.447 51.3244C70.5298 51.49 70.447 51.7384 70.2814 51.8211C69.4536 52.235 68.4602 52.4006 67.4669 52.4006Z" fill="#231F20"/>
<path d="M103.146 41.6391C104.305 33.9405 116.97 31.9537 116.474 40.9769C116.391 44.1226 115.232 47.1027 113.162 49.5034C111.01 51.7385 107.533 52.8146 104.636 51.5729" fill="white"/>
<path d="M107.202 52.5663C106.291 52.5663 105.298 52.4007 104.47 51.9868C104.222 51.9041 104.139 51.6557 104.222 51.4074C104.305 51.159 104.553 51.0762 104.801 51.159C107.368 52.2352 110.679 51.4074 112.831 49.1723C115.232 46.6888 115.894 43.3776 115.977 40.8941C116.142 37.7484 114.57 35.6789 111.838 35.4305C108.444 35.0994 104.139 37.5829 103.56 41.6392C103.56 41.8875 103.394 42.0531 103.146 42.1358C102.897 42.1358 102.732 41.9703 102.649 41.7219C102.649 41.6392 102.649 41.5564 102.649 41.5564C103.311 36.9206 108.03 34.1888 111.838 34.6027C114.404 34.8511 116.97 36.6723 116.805 40.9769C116.639 43.5431 115.977 47.1027 113.411 49.7517C111.838 51.4901 109.603 52.4835 107.202 52.5663Z" fill="#231F20"/>
<path d="M98.9238 77.4007C98.9238 77.4007 91.8874 88.3279 87.0033 88.2451C82.1192 88.1623 76.6556 78.1458 76.6556 78.1458L76.9867 72.765L77.7318 60.3478L78.394 48.7584L98.3444 48.51L99.0894 58.0299L99.3377 61.0928L98.9238 77.4007Z" fill="white"/>
<path d="M87.0861 88.6589C81.9536 88.5761 76.49 78.7251 76.3245 78.3112C76.3245 78.2284 76.2417 78.1456 76.2417 78.0629L77.9801 48.6754C77.9801 48.4271 78.1457 48.2615 78.394 48.2615L98.3444 48.0132C98.5927 48.0132 98.7583 48.1787 98.7583 48.4271L99.7516 61.0099L99.3377 77.4006C99.3377 77.4834 99.3377 77.5662 99.2549 77.6489C99.0066 78.0629 92.1357 88.6589 87.0861 88.6589ZM77.0695 77.9801C77.649 79.0562 82.6987 87.6655 87.0033 87.7483H87.0861C91.4735 87.7483 97.7649 78.3112 98.5099 77.235L98.9238 61.0099L97.9304 48.841L78.8079 49.0893L77.0695 77.9801Z" fill="#231F20"/>
<path d="M99.3378 61.0927C97.7649 63.8245 95.5298 66.0596 92.8808 67.7152C88.6589 70.5298 82.202 73.5927 76.9868 72.7649L77.7318 60.3477C81.5397 60.8444 85.4305 60.8444 89.2384 60.3477C92.6325 59.9338 96.0265 59.5199 99.0894 58.0298L99.3378 61.0927Z" fill="#231F20"/>
<path d="M78.8079 73.3443C78.1457 73.3443 77.5662 73.2615 76.904 73.1787C76.6556 73.1787 76.5728 72.9304 76.5728 72.7648L77.3179 60.3476C77.3179 60.2648 77.4007 60.0992 77.4834 60.0992C77.5662 60.0164 77.7318 60.0164 77.8146 60.0164C81.6225 60.5131 85.4305 60.5131 89.2384 60.0164C92.3841 59.6853 95.9437 59.2714 99.0066 57.6986C99.0894 57.6158 99.255 57.6158 99.4205 57.6986C99.5033 57.7813 99.5861 57.8641 99.5861 58.0297L99.8344 61.0926C99.8344 61.1754 99.8344 61.2582 99.7517 61.3409C98.1788 64.1555 95.8609 66.4734 93.1291 68.129C89.9007 70.1158 84.106 73.3443 78.8079 73.3443ZM77.4007 72.4337C82.8642 73.0959 89.2384 69.6191 92.6325 67.384C95.1987 65.8111 97.351 63.576 98.9238 61.0098L98.7583 58.6919C95.6954 60.0992 92.3013 60.4304 89.2384 60.7615C85.5132 61.2582 81.7881 61.3409 78.0629 60.8443L77.4007 72.4337Z" fill="#231F20"/>
<path d="M89.1556 63.1621H87.0861C77.4006 63.2449 69.4536 55.4634 69.3708 45.778C69.2881 42.0529 69.2881 32.4502 69.2053 28.8078C69.2053 28.8078 68.8741 27.235 74.2549 27.3178C75.0828 24.4204 76.1589 22.682 77.0695 19.7846C77.0695 21.6886 77.2351 23.6754 77.7318 25.4966C77.8145 25.8277 77.8973 26.1588 78.1457 26.4072C78.4768 26.6555 78.9735 26.7383 79.3874 26.6555L90.149 25.7449C90.8112 22.8476 91.9702 20.1158 93.4602 17.6323C93.7086 19.9502 93.9569 23.2615 94.2053 25.5793C96.192 25.6621 98.096 25.6621 100.083 25.4966C99.9172 25.4138 101.407 20.8608 101.738 20.5297C102.07 22.0197 102.318 23.427 102.401 24.9171C102.401 24.9171 104.884 25.331 105.96 25.4966C106.871 28.8906 107.119 40.6456 106.54 45.2813C105.298 54.9668 98.841 62.9966 89.1556 63.1621Z" fill="white"/>
<path d="M86.9205 63.5761C77.0695 63.5761 69.0397 55.6291 68.9569 45.7781C68.9569 43.9569 68.8742 40.5629 68.8742 37.2516C68.8742 33.9404 68.7914 30.6291 68.7914 28.8079C68.7914 28.4768 68.8742 28.2284 69.0397 27.9801C69.702 27.2351 71.2748 26.8212 73.841 26.8212H73.9238C74.3377 25.4967 74.8344 24.4205 75.2483 23.3443C75.745 22.1854 76.2417 20.9437 76.6556 19.702C76.7384 19.5364 76.904 19.3708 77.1523 19.3708C77.4007 19.3708 77.4834 19.6192 77.4834 19.7847C77.4834 21.6887 77.649 23.5927 78.1457 25.4139C78.1457 25.6622 78.3113 25.9106 78.4768 26.0761C78.7252 26.2417 79.0563 26.2417 79.3874 26.1589L89.9006 25.3311C90.6457 22.5165 91.7218 19.8675 93.2119 17.3841C93.2947 17.2185 93.4602 17.1357 93.7086 17.2185C93.8742 17.2185 94.0397 17.3841 94.0397 17.5496C94.2053 18.7086 94.2881 20.1159 94.3708 21.5231C94.4536 22.7649 94.5364 24.0066 94.702 25.0827C96.4404 25.1655 98.096 25.1655 99.8344 25.0827C100.248 23.4271 100.828 21.7715 101.573 20.2814C101.738 20.1159 101.987 20.1159 102.152 20.2814C102.152 20.2814 102.235 20.3642 102.235 20.447C102.566 21.8543 102.815 23.2616 102.897 24.6688C103.642 24.7516 105.298 25.0827 106.126 25.1655C106.291 25.1655 106.457 25.3311 106.457 25.4967C107.368 28.9735 107.616 40.894 107.036 45.447C105.712 56.2086 98.5099 63.4106 89.3212 63.5761H87.2516H86.9205ZM73.841 27.7318C70.9437 27.7318 70.0331 28.3112 69.7848 28.5596C69.5364 28.8079 69.6192 28.7251 69.6192 28.8079C69.6192 30.7119 69.702 34.0231 69.702 37.3344C69.702 40.6457 69.702 43.9569 69.7848 45.8609C69.8675 55.298 77.5662 62.9139 87.0861 62.8311H89.1556C96.5232 62.7483 104.553 57.3675 106.043 45.447C106.623 40.7284 106.374 29.6357 105.546 26.0761C104.387 25.9106 102.318 25.4967 102.318 25.4967C102.152 25.4967 101.987 25.3311 101.987 25.0827C101.904 24.4205 101.821 23.0132 101.656 21.9371C101.242 23.096 100.828 24.2549 100.579 25.4139C100.579 25.4967 100.579 25.5794 100.579 25.5794C100.579 25.745 100.414 25.9106 100.166 25.9106C98.1788 26.0761 96.192 26.0761 94.2053 25.9933C94.0397 25.9933 93.7914 25.8278 93.7914 25.5794C93.6258 24.4205 93.543 23.0132 93.4603 21.6059C93.3775 20.6953 93.2947 19.8675 93.2119 18.9569C92.053 21.1092 91.2252 23.4271 90.6457 25.8278C90.5629 25.9933 90.4801 26.1589 90.2318 26.1589L79.3874 26.9867C78.8907 27.0695 78.3112 26.9867 77.8146 26.6556C77.4834 26.3245 77.3179 25.9106 77.2351 25.4967C76.9867 24.3377 76.7384 23.096 76.6556 21.9371C76.4073 22.5165 76.2417 23.0132 75.9934 23.5927C75.4967 24.8344 75 26.0761 74.5861 27.3178C74.5033 27.4834 74.3377 27.649 74.1722 27.649L73.841 27.7318Z" fill="#231F20"/>
<path d="M88.4934 50.5795C87.7483 50.5795 87.0033 50.5795 86.2583 50.4967C85.9272 50.4967 85.596 50.2484 85.4305 49.9172C84.106 47.7649 87.6656 37.9139 88.0795 36.755C88.1623 36.5066 88.4106 36.4238 88.6589 36.5066C88.9073 36.5894 88.9901 36.8378 88.9073 37.0861C87.4172 41.1424 85.2649 48.096 86.1755 49.5033C86.2583 49.5861 86.3411 49.6689 86.3411 49.6689C87.9967 49.8344 89.6523 49.8344 91.3079 49.5861C91.5563 49.5861 91.7219 49.6689 91.8046 49.9172C91.8046 50.1656 91.6391 50.3311 91.4735 50.4139C90.3973 50.4967 89.4868 50.5795 88.4934 50.5795Z" fill="#231F20"/>
<path d="M80.7343 38.574C81.42 38.5665 81.9645 37.5227 81.9504 36.2427C81.9363 34.9627 81.369 33.9312 80.6833 33.9387C79.9976 33.9463 79.4531 34.99 79.4672 36.27C79.4813 37.55 80.0486 38.5816 80.7343 38.574Z" fill="#231F20"/>
<path d="M96.7105 38.4092C97.3962 38.4017 97.9407 37.3579 97.9266 36.0779C97.9125 34.7979 97.3453 33.7664 96.6595 33.7739C95.9738 33.7815 95.4293 34.8252 95.4434 36.1052C95.4575 37.3852 96.0248 38.4168 96.7105 38.4092Z" fill="#231F20"/>
<path d="M87.6656 54.7184C83.6921 54.7184 79.6358 52.8145 75.6623 49.0065C75.4967 48.8409 75.4967 48.5926 75.6623 48.427C75.8278 48.2615 76.0762 48.2615 76.2417 48.427C80.3808 52.4005 84.6027 54.2217 88.7417 53.8078C94.702 53.3111 98.5099 48.2615 98.5099 48.1787C98.5927 47.9304 98.9238 47.9304 99.0894 48.0131C99.3378 48.0959 99.3378 48.427 99.255 48.5926L99.1722 48.6754C99.0066 48.9237 95.1159 54.0562 88.8245 54.6356C88.4106 54.6356 88.0795 54.7184 87.6656 54.7184Z" fill="#231F20"/>
<path d="M99.4205 74.0894C99.4205 74.0894 107.699 74.6688 108.195 76.8211C108.692 78.9735 106.209 94.7019 103.311 98.3443C100.414 101.987 87.6656 88.245 87.6656 88.245L99.4205 74.0894Z" fill="white"/>
<path d="M101.904 99.4206C97.4338 99.4206 87.7483 88.9901 87.3344 88.5762C87.1689 88.4106 87.1689 88.1623 87.3344 87.9967L99.1722 73.8411C99.255 73.7583 99.4205 73.6755 99.5033 73.6755C100.911 73.7583 108.113 74.4206 108.609 76.7384C109.106 79.0563 106.623 94.8676 103.642 98.5927C103.228 99.1722 102.649 99.4206 101.904 99.4206ZM88.1623 88.2451C91.1424 91.3908 98.5927 98.6755 101.904 98.5927C102.318 98.5927 102.649 98.4272 102.897 98.1788C105.712 94.702 108.195 79.2219 107.699 76.9868C107.45 75.7451 102.897 74.8345 99.5861 74.5861L88.1623 88.2451Z" fill="#231F20"/>
<path d="M75.8278 73.5928C75.8278 73.5928 67.5496 73.7583 66.9702 75.9107C66.3907 78.063 68.0463 93.8742 70.8609 97.5994C73.6755 101.325 87.0033 88.2451 87.0033 88.2451L75.8278 73.5928Z" fill="white"/>
<path d="M72.351 98.6754H72.1026C71.4404 98.6754 70.8609 98.3443 70.5298 97.8476C67.6324 93.9569 65.9768 77.98 66.5563 75.745C67.1358 73.5099 74.3377 73.0959 75.8278 73.0959C75.9934 73.0959 76.0761 73.1787 76.1589 73.2615L87.3344 87.9138C87.5 88.0794 87.5 88.3277 87.3344 88.4933C86.8377 88.99 76.904 98.6754 72.351 98.6754ZM75.6622 74.0065C72.351 74.0893 67.7152 74.7516 67.4669 75.9933C66.8874 78.1456 68.6258 93.7913 71.2748 97.3509C71.5232 97.682 71.8543 97.8476 72.2682 97.8476C75.4967 98.0959 83.3609 91.2251 86.5066 88.1622L75.6622 74.0065Z" fill="#231F20"/>
<path d="M16.308 199.586C16.308 199.586 5.21524 134.52 7.53312 124.752C9.851 114.984 13.5762 110.596 13.5762 110.596C13.5762 110.596 19.6192 105.878 23.0132 114.652C26.4073 123.427 26.7384 199.586 26.7384 199.586H16.308Z" fill="#231F20"/>
<path d="M119.123 163.907C119.123 169.288 114.735 173.675 109.354 173.675C103.974 173.675 99.5861 169.288 99.5861 163.907H119.123Z" fill="white"/>
<path d="M109.354 174.007C103.725 174.007 99.2549 169.454 99.2549 163.825C99.2549 163.576 99.4205 163.411 99.6689 163.411H119.122C119.371 163.411 119.536 163.576 119.536 163.825C119.536 169.454 114.983 174.007 109.354 174.007ZM100.083 164.321C100.331 169.454 104.719 173.427 109.851 173.096C114.652 172.848 118.377 169.04 118.626 164.321H100.083Z" fill="#231F20"/>
<path d="M119.123 164.321C118.957 164.321 118.791 164.238 118.709 164.073L109.354 143.046L100 164.073C100 164.321 99.7516 164.487 99.5033 164.404C99.2549 164.404 99.0894 164.156 99.1722 163.907C99.1722 163.825 99.1722 163.825 99.2549 163.742L109.023 141.887C109.106 141.639 109.437 141.556 109.603 141.722C109.685 141.722 109.768 141.805 109.768 141.887L119.536 163.742C119.619 163.99 119.536 164.238 119.371 164.321C119.205 164.321 119.123 164.321 119.123 164.321Z" fill="#231F20"/>
<path d="M109.354 164.321C109.106 164.321 108.94 164.155 108.94 163.907V142.053C108.94 141.804 109.106 141.639 109.354 141.639C109.603 141.639 109.768 141.804 109.768 142.053V163.907C109.768 164.155 109.603 164.321 109.354 164.321Z" fill="#231F20"/>
<path d="M74.0894 163.907C74.0894 169.288 69.702 173.675 64.3212 173.675C58.9404 173.675 54.6357 169.288 54.6357 163.907H74.0894Z" fill="white"/>
<path d="M64.404 174.007C58.7748 174.007 54.2218 169.454 54.2218 163.825C54.2218 163.576 54.3874 163.411 54.6357 163.411H74.0894C74.3377 163.411 74.5033 163.576 74.5033 163.825C74.5033 169.454 69.9503 174.007 64.404 174.007ZM55.0496 164.321C55.298 169.454 59.6854 173.427 64.8179 173.096C69.6192 172.848 73.3444 169.04 73.5927 164.321H55.0496Z" fill="#231F20"/>
<path d="M74.0894 164.321C73.9238 164.321 73.7583 164.238 73.6755 164.073L64.3212 143.046L54.9669 164.073C54.8841 164.321 54.6358 164.404 54.3874 164.321C54.1391 164.238 54.0563 163.99 54.1391 163.742L63.9073 141.887C63.9901 141.639 64.3212 141.556 64.4868 141.722C64.5695 141.722 64.6523 141.805 64.6523 141.887L74.5033 163.742C74.5861 163.99 74.5033 164.238 74.3377 164.321C74.255 164.321 74.1722 164.321 74.0894 164.321Z" fill="#231F20"/>
<path d="M64.4039 164.321C64.1556 164.321 63.99 164.156 63.99 163.907V142.053C63.9073 141.805 64.0728 141.556 64.3212 141.556C64.5695 141.473 64.8179 141.639 64.8179 141.887C64.8179 141.97 64.8179 142.053 64.8179 142.136V163.907C64.7351 164.073 64.5695 164.321 64.4039 164.321Z" fill="#231F20"/>
<path d="M110.43 140.729H63.245V142.053H110.43V140.729Z" fill="#231F20"/>
<path d="M86.8377 143.295L82.0364 141.805H91.7218L86.8377 143.295Z" fill="#231F20"/>
<path d="M88.1623 138.659H85.5132V141.308H88.1623V138.659Z" fill="#231F20"/>
<path d="M86.8377 139.652C86.5894 139.652 86.4238 139.487 86.4238 139.238V125.165C86.341 124.917 86.5066 124.669 86.7549 124.669C87.0033 124.586 87.2516 124.752 87.2516 125C87.2516 125.083 87.2516 125.165 87.2516 125.248V139.321C87.2516 139.487 87.0861 139.652 86.8377 139.652Z" fill="#231F20"/>
<path d="M62.5 104.801C62.5 104.801 88.7417 100.083 90.5629 102.152C92.3841 104.222 100.993 115.149 100.662 118.709C100.331 122.268 84.5199 131.871 81.5397 128.311C79.553 125.745 77.8974 122.93 76.5728 119.95L62.5 124.752V104.801Z" fill="white"/>
<path d="M83.7748 129.47C82.8642 129.553 81.9536 129.222 81.2914 128.56C79.3874 126.076 77.7318 123.344 76.4073 120.447L62.6656 125.083C62.4172 125.166 62.1689 125 62.0861 124.834C62.0861 124.752 62.0861 124.752 62.0861 124.669V104.719C62.0861 104.47 62.2517 104.305 62.4172 104.305C66.8046 103.477 88.9901 99.6689 90.8112 101.821C90.894 101.904 101.324 114.487 101.076 118.626C100.911 121.44 92.6324 126.987 87.0033 128.808C85.9271 129.222 84.851 129.47 83.7748 129.47ZM76.6556 119.536C76.8212 119.536 76.9867 119.619 77.0695 119.785C78.394 122.765 80.0497 125.497 82.0364 128.063C82.6987 128.891 84.4371 128.891 86.9205 128.063C92.9636 126.159 100.248 120.695 100.414 118.626C100.662 115.563 93.0463 105.546 90.3973 102.401C89.404 101.242 75.8278 102.815 63.1623 105.05V124.089L76.7384 119.454C76.5728 119.619 76.5728 119.536 76.6556 119.536Z" fill="#231F20"/>
<path d="M13.5761 110.596C13.5761 110.596 45.1159 102.152 63.6589 101.49L64.8179 127.152C64.8179 127.152 17.798 142.881 9.68541 152.566C9.68541 152.566 6.12581 137.665 7.53309 124.669C8.60925 115.314 13.5761 110.596 13.5761 110.596Z" fill="white"/>
<path d="M9.68541 153.063H9.60263C9.43707 153.063 9.35428 152.897 9.2715 152.732C9.2715 152.566 5.7119 137.583 7.11919 124.669C8.19534 115.149 13.0794 110.43 13.3278 110.265C13.4106 110.182 13.4106 110.182 13.4934 110.182C13.8245 110.099 45.2814 101.738 63.6589 101.076C63.9073 101.076 64.0728 101.242 64.0728 101.49L65.2318 127.152C65.2318 127.318 65.149 127.483 64.9006 127.566C64.4039 127.732 17.8808 143.377 10.0165 152.897C9.93375 152.98 9.85097 153.063 9.68541 153.063ZM13.8245 111.01C13.245 111.672 8.94038 116.308 7.947 124.834C6.70528 135.927 9.18872 148.51 9.93375 151.821C19.0397 142.467 60.0165 128.394 64.3212 126.987L63.245 102.07C45.447 102.732 15.894 110.43 13.8245 111.01Z" fill="#231F20"/>
<path d="M185.265 109.354H129.222V179.967H185.265V109.354Z" fill="white"/>
<path d="M185.265 180.381H129.222C128.973 180.381 128.808 180.215 128.808 179.967V109.354C128.808 109.106 128.973 108.94 129.222 108.94H185.265C185.513 108.94 185.679 109.106 185.679 109.354V179.967C185.679 180.132 185.513 180.381 185.265 180.381ZM129.636 179.553H184.851V109.768H129.636V179.553Z" fill="#231F20"/>
<path d="M177.07 120.861H137.334C137.086 120.861 136.921 120.695 136.921 120.447C136.921 120.199 137.086 120.033 137.334 120.033H177.07C177.318 120.033 177.483 120.199 177.483 120.447C177.483 120.695 177.318 120.861 177.07 120.861Z" fill="#D1D3D4"/>
<path d="M177.07 130.546H137.334C137.086 130.546 136.921 130.381 136.921 130.132C136.921 129.884 137.086 129.719 137.334 129.719H177.07C177.318 129.719 177.483 129.884 177.483 130.132C177.483 130.381 177.318 130.546 177.07 130.546Z" fill="#D1D3D4"/>
<path d="M177.07 140.149H137.334C137.086 140.149 136.921 139.983 136.921 139.735C136.921 139.487 137.086 139.321 137.334 139.321H177.07C177.318 139.321 177.483 139.487 177.483 139.735C177.483 139.983 177.318 140.149 177.07 140.149Z" fill="#D1D3D4"/>
<path d="M177.07 149.834H137.334C137.086 149.834 136.921 149.669 136.921 149.42C136.921 149.172 137.086 149.007 137.334 149.007H177.07C177.318 149.007 177.483 149.172 177.483 149.42C177.483 149.586 177.318 149.834 177.07 149.834Z" fill="#D1D3D4"/>
<path d="M168.046 159.437H137.417C137.169 159.437 137.003 159.271 137.003 159.023C137.003 158.775 137.169 158.609 137.417 158.609H168.046C168.295 158.609 168.46 158.775 168.46 159.023C168.46 159.271 168.212 159.437 168.046 159.437Z" fill="#D1D3D4"/>
<path d="M174.338 173.841C176.898 173.841 178.973 171.766 178.973 169.205C178.973 166.645 176.898 164.57 174.338 164.57C171.777 164.57 169.702 166.645 169.702 169.205C169.702 171.766 171.777 173.841 174.338 173.841Z" fill="#007FA4"/>
<path d="M137.666 174.503C137.417 174.503 137.252 174.338 137.252 174.089C137.252 174.006 137.252 173.841 137.334 173.758C139.57 171.44 142.219 169.371 145.033 167.798C147.517 166.391 149.586 166.225 151.076 167.218C151.407 167.384 151.573 167.715 151.656 168.046C151.656 168.377 151.573 168.626 151.407 168.874C151.821 168.874 152.235 168.874 152.649 168.874C153.311 168.874 153.891 169.122 154.305 169.536C154.387 169.619 154.47 169.785 154.47 169.867C155.96 169.371 157.616 169.454 159.106 170.116C159.354 170.199 159.437 170.447 159.271 170.695C159.189 170.861 158.94 171.026 158.775 170.861C157.45 170.281 155.877 170.199 154.47 170.778C154.387 171.192 154.139 171.523 153.891 171.854C153.228 172.516 152.401 173.013 151.407 173.096C151.242 173.096 151.076 173.013 150.993 172.93C150.911 172.765 150.911 172.599 150.993 172.516C151.656 171.523 152.566 170.778 153.642 170.281C153.642 170.199 153.56 170.116 153.56 170.116C153.394 169.95 153.063 169.785 152.566 169.785C151.987 169.785 151.324 169.785 150.745 169.867C149.752 171.275 148.427 172.434 146.937 173.344C146.606 173.593 146.192 173.675 145.778 173.675C145.447 173.593 145.199 173.427 145.033 173.096C144.868 172.765 144.785 172.351 144.95 171.937C145.199 171.44 145.613 170.944 146.109 170.695C147.351 169.867 148.841 169.371 150.331 169.122L150.662 168.626C150.745 168.543 150.828 168.377 150.828 168.295C150.828 168.295 150.828 168.212 150.579 168.046C149.089 167.053 146.937 167.798 145.447 168.708C142.632 170.281 140.149 172.185 137.914 174.503C137.914 174.42 137.831 174.503 137.666 174.503ZM149.586 170.116C148.51 170.364 147.517 170.778 146.606 171.357C146.275 171.523 145.944 171.854 145.778 172.185C145.695 172.351 145.778 172.516 145.778 172.682C145.778 172.765 145.861 172.848 145.944 172.848C146.192 172.848 146.358 172.765 146.523 172.682C147.765 171.937 148.758 171.026 149.586 170.116Z" fill="#007FA4"/>
<path d="M150.911 111.838C150.166 114.073 152.401 116.639 154.801 116.556C157.202 116.473 159.189 114.321 159.437 111.921C158.692 113.328 159.106 115.066 160.348 116.06C161.672 116.97 163.493 116.887 164.652 115.811C165.811 114.735 166.225 112.997 165.646 111.507C166.308 113.245 165.397 115.066 167.384 116.391C168.709 117.301 170.116 118.046 170.613 115.728C171.44 112.252 171.937 108.775 172.103 105.215C172.185 104.387 172.103 103.642 171.772 102.897C171.109 101.738 169.536 101.407 168.129 101.242C161.838 100.662 155.464 101.49 149.586 103.642C148.096 104.139 146.523 104.967 146.026 106.457C145.861 107.119 145.778 107.781 145.861 108.526C145.944 110.43 145.033 116.225 148.013 116.391C150.662 116.722 150.414 113.411 150.911 111.838Z" fill="white"/>
<path d="M169.371 117.881C168.543 117.798 167.798 117.467 167.136 116.887C166.473 116.474 166.06 115.894 165.811 115.149C165.563 115.563 165.315 115.894 164.983 116.225C163.576 117.384 161.589 117.55 160.099 116.474C159.52 116.06 159.023 115.397 158.775 114.652C157.864 115.977 156.374 116.887 154.719 116.97C153.311 116.97 151.987 116.225 151.159 115.149C150.993 114.983 150.911 114.735 150.745 114.487C150.414 115.811 149.752 117.053 147.93 116.97C145.116 116.805 145.281 112.583 145.364 110.099C145.364 109.52 145.364 109.023 145.364 108.692C145.281 107.947 145.364 107.202 145.53 106.54C146.109 104.884 147.848 103.974 149.338 103.477C155.298 101.242 161.755 100.414 168.129 100.993C169.454 101.076 171.275 101.407 172.103 102.897C172.434 103.725 172.599 104.553 172.517 105.464C172.351 109.023 171.854 112.583 171.026 116.06C170.778 117.053 170.447 117.632 169.868 117.798C169.702 117.798 169.536 117.881 169.371 117.881ZM166.308 112.334C166.391 112.748 166.391 113.08 166.391 113.493C166.473 114.57 166.556 115.48 167.632 116.225C168.377 116.722 169.123 117.136 169.536 116.97C169.95 116.805 170.116 116.308 170.199 115.811C171.026 112.417 171.523 108.858 171.689 105.381C171.772 104.636 171.689 103.974 171.44 103.311C170.861 102.235 169.371 101.987 168.212 101.904C161.921 101.325 155.629 102.152 149.752 104.305C148.427 104.801 146.937 105.546 146.44 106.871C146.275 107.45 146.275 108.113 146.358 108.775C146.358 109.106 146.358 109.685 146.358 110.265C146.275 112.583 146.109 116.142 148.096 116.225C149.586 116.308 149.917 114.983 150.248 113.162C150.331 112.748 150.414 112.252 150.497 111.838C150.579 111.589 150.828 111.507 151.076 111.589C151.324 111.672 151.407 111.921 151.324 112.169C151.076 113.08 151.242 114.073 151.904 114.818C152.566 115.729 153.642 116.308 154.801 116.308C156.54 116.142 158.03 115.066 158.609 113.493C158.609 112.914 158.775 112.417 159.023 111.921C159.106 111.755 159.354 111.672 159.52 111.755C159.685 111.838 159.851 112.003 159.851 112.169C159.768 112.666 159.685 113.162 159.437 113.659C159.437 114.57 159.851 115.397 160.596 115.894C161.755 116.639 163.328 116.556 164.404 115.646C165.232 114.901 165.646 113.742 165.48 112.666C165.48 112.417 165.397 112.169 165.315 111.921C165.232 111.672 165.315 111.424 165.563 111.341C165.811 111.258 166.06 111.341 166.142 111.589C166.142 111.755 166.225 112.003 166.308 112.334Z" fill="#231F20"/>
<path d="M84.9338 40.8111H74.0066C72.7649 40.8111 71.7715 39.8177 71.7715 38.576V33.5264C71.7715 32.2846 72.7649 31.2913 74.0066 31.2913H84.9338C86.1755 31.2913 87.1689 32.2846 87.1689 33.5264V38.576C87.1689 39.8177 86.1755 40.8111 84.9338 40.8111ZM74.0066 32.2019C73.2616 32.2019 72.5993 32.7813 72.5993 33.6091V38.6588C72.5993 39.4038 73.1788 40.0661 74.0066 40.0661H84.9338C85.6788 40.0661 86.3411 39.4866 86.3411 38.6588V33.6091C86.3411 32.8641 85.7616 32.2019 84.9338 32.2019H74.0066Z" fill="#231F20"/>
<path d="M102.152 40.8111H91.2251C89.9834 40.8111 88.9901 39.8177 88.9901 38.576V33.5264C88.9901 32.2846 89.9834 31.2913 91.2251 31.2913H102.152C103.394 31.2913 104.387 32.2846 104.387 33.5264V38.576C104.387 39.8177 103.394 40.8111 102.152 40.8111ZM91.2251 32.2019C90.4801 32.2019 89.8179 32.7813 89.8179 33.6091V38.6588C89.8179 39.4038 90.3973 40.0661 91.2251 40.0661H102.152C102.897 40.0661 103.56 39.4866 103.56 38.6588V33.6091C103.56 32.8641 102.98 32.2019 102.152 32.2019H91.2251Z" fill="#231F20"/>
<path d="M86.755 37.3343C86.6722 37.3343 86.5066 37.2516 86.4238 37.2516C86.2583 37.086 86.2583 36.8377 86.4238 36.6721C87.0033 36.0926 87.7483 35.6787 88.5761 35.6787C89.0728 35.7615 89.5695 36.0098 89.8179 36.5065C89.9006 36.6721 89.9006 37.0032 89.6523 37.086C89.4867 37.2516 89.1556 37.1688 89.0728 36.9204C88.99 36.6721 88.7417 36.5065 88.4934 36.4237C87.9139 36.5065 87.4172 36.7549 87.0861 37.1688C87.0033 37.2516 86.9205 37.3343 86.755 37.3343Z" fill="#231F20"/>
<path d="M68.7086 37.3345C68.543 37.3345 68.3775 37.2517 68.2947 37.0862C68.2119 36.8378 68.2947 36.5895 68.543 36.5067L72.1026 35.0994C72.351 35.0166 72.5993 35.0994 72.6821 35.3477C72.7649 35.5961 72.6821 35.8444 72.4338 35.9272L68.8742 37.3345C68.7914 37.3345 68.7914 37.3345 68.7086 37.3345Z" fill="#231F20"/>
<path d="M106.788 37.0034H106.623L103.808 35.9272C103.56 35.8444 103.477 35.5961 103.56 35.3477C103.642 35.0994 103.891 35.0166 104.139 35.0994L106.954 36.1756C107.202 36.2583 107.285 36.5067 107.202 36.755C107.119 36.9206 106.954 37.0034 106.788 37.0034Z" fill="#231F20"/>
</g>
<defs>
<clipPath id="clip0_1252_0">
<rect width="185.679" height="200" fill="white"/>
</clipPath>
</defs>
</svg>
