<svg width="176" height="160" viewBox="0 0 176 160" fill="none" xmlns="http://www.w3.org/2000/svg">
<path d="M175.401 135.036H0.364964C0.145985 135.036 0 134.89 0 134.672C0 134.453 0.145985 134.307 0.364964 134.307H175.401C175.62 134.307 175.766 134.453 175.766 134.672C175.766 134.89 175.62 135.036 175.401 135.036Z" fill="#D1D3D4"/>
<path d="M27.0803 42.2628C14.3066 51.5329 12.7007 70.8029 12.3358 85.3285C12.0438 98.9781 15.0365 111.971 17.8832 125.255C20.6569 138.248 31.2409 145.401 43.7956 148.321C62.4818 152.701 82.9927 153.139 102.044 151.095C121.095 149.051 121.533 130.219 119.635 114.891C119.124 110.657 116.131 108.029 112.92 105.693C108.978 102.847 105.401 99.854 102.628 95.7664C93.6496 82.6277 93.0657 67.1533 87.0803 52.9197C82.3358 41.6788 71.6788 33.7956 59.4161 34.2336C47.1533 34.6715 35.5474 36.1314 27.0803 42.2628Z" fill="white"/>
<path d="M80.438 152.628C68.1022 152.701 55.7664 151.387 43.7226 148.686C25.2555 144.38 19.2701 133.65 17.5182 125.401L16.9343 122.628C14.2336 110 11.6788 98.1022 11.9708 85.4015C12.1168 78.6861 12.5547 69.854 14.7445 61.8248C17.1533 52.7007 21.0949 46.2774 26.9343 42.0438C35.7664 35.4745 48.3212 34.2336 59.4161 33.8686C71.3869 33.4307 82.3358 40.9489 87.3723 52.7737C89.708 58.3212 91.2409 64.1606 92.7737 69.854C95.1095 78.6131 97.4453 87.6642 102.92 95.5475C105.328 99.0511 108.394 102.044 113.139 105.401C116.423 107.737 119.489 110.511 120 114.818C121.752 128.832 120.292 138.54 115.62 144.526C112.555 148.467 107.956 150.73 102.044 151.387C94.8905 152.263 87.6642 152.628 80.438 152.628ZM27.2993 42.5548C15.0365 51.4599 13.0657 70.073 12.7007 85.3285C12.4088 97.9562 14.9635 109.854 17.6642 122.409L18.2482 125.182C20 133.212 25.8394 143.723 43.8686 147.956C61.3869 152.044 81.4598 152.993 101.971 150.73C107.664 150.073 112.044 147.883 115.036 144.088C119.635 138.248 121.022 128.759 119.27 114.891C118.759 110.803 115.766 108.175 112.701 105.985C107.883 102.555 104.745 99.562 102.336 95.9854C96.7883 87.9562 94.3796 78.8321 92.1168 70C90.6569 64.3796 89.1241 58.5401 86.7883 53.0657C81.8248 41.5329 71.0949 34.2336 59.489 34.5985C48.4672 34.9635 36.0584 36.2044 27.2993 42.5548Z" fill="#231F20"/>
<path d="M60.438 114.234C58.1752 114.234 55.9124 114.088 53.6496 113.869C49.3431 113.358 45.0365 112.482 40.9489 111.095C35.3285 109.27 31.5329 107.153 28.6861 104.307C24.3796 100 22.7007 94.1606 22.1168 90C20.6569 80.438 22.1168 69.854 23.1387 64.3796C24.5256 56.8613 29.1971 50.292 35.8394 46.4964C40.438 43.7956 45.9124 42.1168 52.5547 41.2409C59.4891 40.365 64.5255 41.0949 68.3212 43.5767C74.5255 47.6642 76.2774 55.5475 77.5912 63.2847L79.781 76.4234C80.292 79.708 81.0219 84.1606 83.6496 86.2774C84.5255 86.9343 85.5474 87.5183 86.5693 88.0292C88.3212 88.9051 90.219 89.854 91.2409 91.8978C92.5547 94.4526 93.0657 98.6861 91.7518 101.46C90.292 104.526 87.2993 106.569 85.1825 107.81C78.0292 112.044 69.562 114.234 60.438 114.234ZM53.7956 113.139C65.3285 114.453 76.0584 112.409 84.7445 107.226C86.7883 106.058 89.635 104.088 91.0219 101.168C92.2628 98.6132 91.7518 94.5986 90.5109 92.2628C89.562 90.438 87.8832 89.635 86.1314 88.6861C85.0365 88.1752 84.0146 87.5913 83.0657 86.8613C80.292 84.5986 79.489 79.927 78.9781 76.5694L76.7883 63.4307C75.5474 55.8394 73.7956 48.1752 67.8832 44.2336C64.2336 41.8248 59.4161 41.0949 52.6277 42.0438C46.0584 42.9197 40.7299 44.5985 36.2044 47.2263C29.708 50.9489 25.1825 57.2993 23.8686 64.6715C22.8467 70.073 21.3869 80.584 22.8467 90C23.4307 94.0146 25.0365 99.708 29.2701 103.869C32.0438 106.642 35.7664 108.686 41.2409 110.438C45.2555 111.679 49.4161 112.628 53.7956 113.139Z" fill="#D1D3D4"/>
<path d="M29.0511 100.876C28.9051 100.876 28.7591 100.803 28.6861 100.657C28.6131 100.438 28.6861 100.292 28.9051 100.219C34.3796 97.9562 38.0292 98.4671 38.1752 98.5401C38.3942 98.5401 38.5402 98.7591 38.4672 98.9781C38.4672 99.1971 38.2482 99.3431 38.0292 99.2701C37.9562 99.2701 34.4526 98.7591 29.1971 100.949C29.1971 100.876 29.1241 100.876 29.0511 100.876Z" fill="#D1D3D4"/>
<path d="M101.679 48.3942L102.19 73.2847L92.9197 78.5401L95.2555 49.3431L101.679 48.3942Z" fill="white"/>
<path d="M92.9197 78.9051C92.7007 78.9051 92.5547 78.7591 92.5547 78.5401L94.8905 49.3431C94.8905 49.1971 95.0365 49.0511 95.1825 49.0511L101.606 48.1022C101.679 48.1022 101.825 48.1022 101.898 48.1752C101.971 48.2482 102.044 48.3212 102.044 48.4672L102.555 73.3577C102.555 73.5036 102.482 73.6496 102.409 73.6496L93.1387 78.9051C92.9927 78.9051 92.9197 78.9051 92.9197 78.9051ZM95.5474 49.635L93.2847 77.8832L101.752 73.0657L101.314 48.7591L95.5474 49.635Z" fill="#231F20"/>
<path d="M97.7372 133.285C97.7372 133.285 95.8394 155.109 96.6423 156.569C97.4452 158.029 116.204 160.803 116.569 158.832C116.934 156.861 107.372 152.92 107.372 152.92L109.489 135.036" fill="white"/>
<path d="M113.65 159.927C108.394 159.927 97.0803 158.175 96.2774 156.788C95.4744 155.401 97.0073 136.934 97.3723 133.285C97.3723 133.066 97.5912 132.92 97.7372 132.92C97.9562 132.92 98.1022 133.139 98.1022 133.285C97.3723 141.679 96.4234 155.328 96.9343 156.35C97.5912 157.226 109.635 159.416 114.672 159.051C115.985 158.978 116.204 158.686 116.204 158.686C116.35 157.664 111.679 155.037 107.226 153.139C107.08 153.066 107.007 152.92 107.007 152.774L109.124 134.891C109.124 134.672 109.343 134.526 109.562 134.599C109.781 134.599 109.927 134.818 109.854 134.963L107.81 152.555C110.365 153.65 117.299 156.715 117.007 158.759C116.934 159.343 116.204 159.489 115.62 159.635C114.89 159.854 114.307 159.927 113.65 159.927Z" fill="#231F20"/>
<path d="M70 139.051C70 139.051 67.3723 158.394 68.7591 158.905C70.146 159.416 88.6861 160.365 88.3941 158.686C88.1022 157.007 78.9781 153.942 78.9781 153.942L82.2628 135.109" fill="white"/>
<path d="M81.0219 160C75.6934 160 69.3431 159.562 68.5402 159.27C67.1533 158.686 68.6131 146.35 69.5621 138.978C69.5621 138.759 69.781 138.613 70 138.686C70.219 138.686 70.365 138.905 70.292 139.124C69.0511 148.102 68.1752 157.883 68.8321 158.686C70.365 159.343 86.5693 159.781 87.8832 158.759C87.5183 157.883 82.9197 155.766 78.6861 154.38C78.5402 154.307 78.3942 154.161 78.4672 153.942L81.7518 135.109C81.8248 134.891 81.9708 134.745 82.1898 134.818C82.4088 134.891 82.4818 135.036 82.4818 135.255L79.1971 153.796C81.6788 154.672 88.3212 157.08 88.6131 158.686C88.6861 158.905 88.5402 159.124 88.3942 159.27C87.7372 159.854 84.5985 160 81.0219 160Z" fill="#231F20"/>
<path d="M90.4379 100.292C90.8759 101.825 94.8175 142.482 94.8175 142.482H110.73C110.73 142.482 118.102 101.679 115.693 91.6058C114.015 84.6715 106.496 81.3139 98.8321 83.5036C87.4452 83.0657 75.6934 81.6058 75.6934 81.6058L90.4379 100.292Z" fill="#231F20"/>
<path d="M110.73 142.847H94.8175C94.5985 142.847 94.4525 142.701 94.4525 142.482C93.0657 128.613 90.5109 102.336 90.073 100.438L75.4015 81.8248C75.3285 81.6788 75.3285 81.5329 75.4015 81.3869C75.4744 81.2409 75.6204 81.1679 75.7664 81.2409C75.9124 81.2409 87.5912 82.7007 98.8321 83.1387C102.774 81.8978 107.007 82.3358 110.657 84.3066C113.358 85.8394 115.328 88.4672 116.058 91.5329C118.467 101.533 111.46 140.876 111.168 142.555C111.095 142.701 110.949 142.847 110.73 142.847ZM95.1825 142.117H110.511C111.168 138.394 117.664 101.095 115.401 91.6788C114.745 88.8321 112.92 86.3504 110.365 84.8905C106.861 82.9927 102.774 82.6277 99.0511 83.8686H98.9051C89.4161 83.5037 79.562 82.4088 76.6423 82.0438L90.8029 100C90.8029 100.073 90.8759 100.073 90.8759 100.146C91.1679 101.679 94.7445 137.956 95.1825 142.117Z" fill="#231F20"/>
<path d="M47.3723 83.7956C47.3723 83.7956 36.2044 95.6204 43.9416 104.964C51.6788 114.307 73.7956 104.453 73.7956 104.453L68.2482 141.168L84.4525 141.022C84.4525 141.022 101.314 91.0219 99.4161 85.8394C97.5182 80.6569 83.6496 78.2482 83.6496 78.2482L47.3723 83.7956Z" fill="#231F20"/>
<path d="M68.2482 141.606C68.1752 141.606 68.0292 141.533 67.9562 141.46C67.8832 141.387 67.8832 141.241 67.8832 141.168L73.2847 105.109C69.562 106.642 65.6934 107.81 61.8248 108.613C53.2117 110.365 46.9343 109.197 43.6496 105.182C35.7664 95.6934 47.0073 83.5766 47.0803 83.5036C47.1533 83.4306 47.2263 83.4306 47.2993 83.4306L83.5766 78.0292C83.6496 78.0292 83.6496 78.0292 83.7226 78.0292C84.3066 78.1022 97.7372 80.5109 99.781 85.8394C101.825 91.1679 85.5475 139.197 84.8905 141.241C84.8175 141.387 84.7445 141.46 84.5256 141.46L68.2482 141.606ZM73.7956 104.161C73.8686 104.161 73.9416 104.161 74.0146 104.234C74.0876 104.307 74.1606 104.453 74.1606 104.599L68.6861 140.876L84.1606 140.73C90 123.431 100.511 90.073 99.0511 86.0584C97.2993 81.3138 84.5985 78.9051 83.6496 78.7591L47.5912 84.1606C46.5693 85.2555 37.1533 96.2044 44.2336 104.818C51.7518 113.869 73.4307 104.307 73.6496 104.234C73.6496 104.161 73.7226 104.161 73.7956 104.161Z" fill="#231F20"/>
<path d="M102.774 49.4161C101.898 39.781 98.5401 37.8102 98.5401 37.8102C95.8394 27.8102 82.7007 30 82.7007 30C82.7007 30 64.9635 32.2628 58.4672 43.2117C54.1606 50.438 57.8102 60.219 55.9854 69.854C55.0365 74.7445 45.9124 83.9416 45.9124 83.9416L91.4599 80.292C91.4599 80.292 95.7664 62.9927 97.6642 49.854L102.774 49.4161Z" fill="#9B292B"/>
<path d="M93.3577 41.4599C91.8248 40.438 90.365 39.4161 88.4671 39.0511C85.6204 38.5401 82.6277 38.9051 79.781 38.3212C76.7153 37.6642 73.6496 36.2044 70.7299 34.9635C69.854 34.5985 70.292 36.1314 69.781 35.3285C67.9562 32.6277 69.4161 29.0511 70.438 26.4234C72.6277 20.146 75.6934 14.2336 79.562 8.83212C81.6058 6.05839 89.2701 -4.16058 92.5547 2.70073C91.8248 1.16788 98.3211 0.583941 99.1971 0.656934C107.08 1.31387 111.314 10 110.511 17.1533C109.927 22.3358 108.248 27.0803 108.905 32.4088C109.197 34.7445 109.781 37.1533 109.051 39.4161C108.175 42.1168 105.474 43.9416 102.628 44.3066C99.781 44.5255 96.9343 43.7226 94.5255 42.1168C94.0146 41.8978 93.7226 41.6788 93.3577 41.4599Z" fill="white"/>
<path d="M101.241 44.6715C98.6861 44.5985 96.2044 43.7956 94.0876 42.4088L93.1387 41.7518L92.9197 41.6058C91.6058 40.5839 90 39.781 88.3942 39.4161C87.0803 39.1971 85.6934 39.1241 84.3796 39.1241C82.7737 39.1241 81.2409 38.9781 79.708 38.6861C77.0803 38.0292 74.4526 37.0803 71.9708 35.9124L70.5839 35.3285C70.5109 35.3285 70.511 35.3285 70.511 35.3285C70.511 35.3285 70.511 35.4745 70.438 35.4745C70.365 35.4745 70.292 35.9124 70 35.9124C69.708 35.9124 69.4891 35.6934 69.4161 35.5475C67.5912 32.7737 68.8321 29.3431 69.854 26.6423L70 26.3504C72.2628 20.073 75.3285 14.0876 79.1971 8.68613C82.1898 4.59854 86.4234 -0.218977 89.781 0.0729936C90.8759 0.218979 91.8248 0.875913 92.4088 1.82482C93.7226 0.583942 98.6131 0.291972 99.1241 0.364964C102.263 0.656935 105.182 2.26277 107.153 4.74453C109.927 8.32117 111.241 12.8467 110.73 17.2993C110.511 18.9781 110.219 20.6569 109.927 22.2628C109.27 25.6934 108.686 28.9051 109.124 32.4818C109.197 32.9197 109.27 33.3577 109.27 33.7956C109.562 35.7664 109.854 37.7372 109.197 39.708C108.321 42.4088 105.62 44.4526 102.482 44.8175C102.044 44.7445 101.606 44.7445 101.241 44.6715ZM70.438 34.4526C70.5839 34.4526 70.7299 34.4526 70.8029 34.5256L72.1898 35.1095C74.6715 36.2774 77.2263 37.2263 79.854 37.8832C81.3869 38.1752 82.8467 38.3212 84.3796 38.3212C85.7664 38.3212 87.1533 38.4672 88.5401 38.6861C90.292 39.1241 91.9708 39.927 93.3577 41.0219L93.5766 41.1679C93.8686 41.3869 94.1606 41.6058 94.5255 41.8248C96.3504 42.9927 99.1971 44.3066 102.336 43.9416C105.182 43.5766 107.664 41.7518 108.467 39.3431C109.051 37.5912 108.759 35.6934 108.54 33.7956C108.467 33.3577 108.394 32.9197 108.394 32.4818C107.956 28.8321 108.613 25.4015 109.197 22.0438C109.489 20.438 109.781 18.8321 110 17.1533C110.438 12.8467 109.27 8.54015 106.569 5.10949C104.745 2.77372 102.044 1.31387 99.0511 1.0219C98.1752 0.948906 93.4307 1.45985 92.7737 2.33577C92.7007 2.40876 92.7007 2.48175 92.7737 2.48175C92.8467 2.62774 92.7737 2.84672 92.6277 2.9927C92.4818 3.06569 92.2628 2.9927 92.1168 2.84672C91.4599 1.53285 90.7299 0.875913 89.708 0.729928C87.3723 0.51095 83.8686 3.43066 79.781 9.0511C75.9854 14.4526 72.9197 20.365 70.7299 26.5693L70.5839 26.8613C69.635 29.3431 68.4672 32.4818 69.927 34.8905C70 34.7445 70.073 34.6715 70.219 34.5985C70.292 34.5256 70.365 34.5256 70.438 34.4526Z" fill="#231F20"/>
<path d="M106.642 18.6861C106.642 18.6861 106.35 26.9343 102.847 31.8978C100.949 34.7445 97.5183 36.2774 94.1606 35.6934L90.292 45.4015C90.292 45.4015 88.3212 50.365 82.5548 47.1533C79.1241 45.2555 77.0073 41.7518 76.7883 37.8832L83.2847 19.781C83.2847 19.781 91.7518 18.6131 93.7226 11.9708C93.7226 11.8248 100.365 19.1241 106.642 18.6861Z" fill="white"/>
<path d="M86.1314 48.5401C84.8175 48.4672 83.5036 48.1022 82.4087 47.3723C78.9051 45.4015 76.6423 41.7518 76.4963 37.7372C76.4963 37.6642 76.4963 37.6642 76.4963 37.5912L82.9927 19.4891C83.0657 19.3431 83.1387 19.2701 83.2847 19.2701C83.3577 19.2701 91.5328 18.0292 93.4306 11.6788C93.5036 11.5328 93.5766 11.4599 93.7226 11.4599C93.8686 11.4599 94.0146 11.4599 94.0876 11.6058C94.1606 11.6788 100.657 18.6861 106.642 18.2482C106.715 18.2482 106.861 18.2482 106.934 18.3212C107.007 18.3942 107.08 18.4672 107.007 18.6131C107.007 18.9781 106.642 27.0073 103.212 32.0438C101.314 34.8905 97.8832 36.4964 94.4525 35.9854L90.6569 45.4015C90.073 46.7153 89.0511 47.6642 87.7372 48.1752C87.1533 48.4672 86.6423 48.5401 86.1314 48.5401ZM77.1533 37.8832C77.3722 41.6058 79.489 44.9635 82.7007 46.7883C84.5255 47.8102 86.1314 48.1022 87.4452 47.5912C88.5401 47.1533 89.416 46.2774 89.927 45.1825L93.7956 35.4745C93.8686 35.3285 94.0146 35.1825 94.2336 35.2555C97.5182 35.8394 100.73 34.3796 102.555 31.6058C105.474 27.3723 106.131 20.6569 106.204 18.9781C100.803 19.1241 95.4015 14.0876 93.8686 12.4818C91.7518 18.2482 84.8905 19.708 83.5036 19.927L77.1533 37.8832Z" fill="#231F20"/>
<path d="M87.1533 19.781C87.1533 19.781 86.8613 11.8248 81.7518 14.7445C76.6423 17.6642 79.708 24.2336 82.8467 25.0365" fill="white"/>
<path d="M82.9197 25.4015H82.8467C80.9489 24.8905 79.1241 22.5547 78.7591 20C78.3942 17.7372 79.4891 15.4015 81.6058 14.3796C82.9927 13.6496 84.1606 13.5036 85.1095 14.0146C87.2993 15.2555 87.5182 19.562 87.5182 19.708C87.5182 19.927 87.3723 20.073 87.1533 20.073C86.9343 20.073 86.7883 19.927 86.7883 19.708C86.7883 19.708 86.6423 15.6934 84.7445 14.5985C84.0146 14.1606 83.0657 14.3066 81.9708 14.9635C80.146 15.9124 79.1971 17.8832 79.4891 19.854C79.781 22.0438 81.3869 24.1606 82.9927 24.5985C83.2117 24.5985 83.3577 24.8175 83.2847 25.0365C83.2117 25.2555 83.0657 25.4015 82.9197 25.4015Z" fill="#231F20"/>
<path d="M99.1241 30.438C97.7372 30.438 96.0584 29.1971 95.9854 29.1241C95.8394 28.9781 95.7664 28.7591 95.9124 28.6131C96.0584 28.4672 96.2774 28.3942 96.4234 28.5401C96.8613 28.9051 98.3212 29.781 99.2701 29.708C99.635 29.4161 99.3431 26.5693 98.5402 23.5766C98.4672 23.3577 98.6131 23.1387 98.8321 23.1387C99.0511 23.0657 99.2701 23.2117 99.2701 23.4307C99.4891 24.3796 100.73 28.9781 99.927 30.146C99.781 30.365 99.635 30.438 99.3431 30.438H99.1241Z" fill="#231F20"/>
<path d="M96.9343 32.7007C95.4744 32.7007 94.0146 32.2628 92.8467 31.4599C91.3139 30.365 90.292 28.8321 89.854 27.0073C89.854 26.7883 90 26.6423 90.219 26.6423C90.4379 26.6423 90.5839 26.7883 90.5839 27.0073C91.0219 28.6131 91.9708 30 93.3577 30.9489C95.1095 32.1898 97.3722 32.3358 100 31.5329C100.219 31.4599 100.438 31.6058 100.438 31.7518C100.511 31.9708 100.365 32.1898 100.219 32.2628C99.1241 32.4818 98.0292 32.7007 96.9343 32.7007Z" fill="#231F20"/>
<path d="M94.1606 35.6204C94.1606 35.6204 88.7591 34.1606 86.0584 32.2628C86.0584 32.2628 86.2044 41.2409 91.1679 43.1387L94.1606 35.6204Z" fill="#231F20"/>
<path d="M91.1679 43.5037C91.0949 43.5037 91.0949 43.5037 91.0219 43.5037C85.9124 41.4599 85.6934 32.6277 85.6934 32.2628C85.6934 32.1168 85.7664 31.9708 85.9124 31.9708C86.0584 31.8978 86.2044 31.8978 86.2774 31.9708C88.8321 33.8686 94.2336 35.2555 94.3066 35.3285C94.3796 35.3285 94.5255 35.4015 94.5255 35.5474C94.5985 35.6204 94.5985 35.7664 94.5255 35.8394L91.5328 43.3577C91.4598 43.4307 91.3139 43.5037 91.1679 43.5037ZM86.4963 32.9927C86.6423 35.0365 87.4452 40.9489 91.0219 42.7007L93.7226 35.9124C91.1679 35.1825 88.7591 34.2336 86.4963 32.9927Z" fill="#231F20"/>
<path d="M96.6328 21.3808C96.8923 20.6174 96.7622 19.8829 96.3424 19.7402C95.9225 19.5975 95.3718 20.1007 95.1124 20.864C94.8529 21.6274 94.983 22.3619 95.4028 22.5046C95.8227 22.6473 96.3733 22.1441 96.6328 21.3808Z" fill="#231F20"/>
<path d="M103.789 23.7449C104.048 22.9815 103.918 22.247 103.499 22.1043C103.079 21.9616 102.528 22.4648 102.269 23.2281C102.009 23.9915 102.139 24.726 102.559 24.8687C102.979 25.0114 103.53 24.5082 103.789 23.7449Z" fill="#231F20"/>
<path d="M90.146 75.1095C90 75.4015 85.4014 82.2628 94.0876 81.7518C102.774 81.2409 110.949 61.3139 113.212 59.2701C115.474 57.2263 120.584 49.708 120.73 47.8832C120.876 46.0584 115.036 49.635 115.036 49.635C115.036 49.635 93.5766 69.0511 90.146 75.1095Z" fill="white"/>
<path d="M93.1387 82.1898C90.9489 82.1898 89.489 81.6058 88.8321 80.511C87.8102 78.7591 88.9781 76.3504 89.781 75.0365L90.146 75.1825L89.854 75.0365C93.3577 68.9781 114.015 50.219 114.891 49.4161C116.423 48.5401 119.854 46.5693 120.876 47.2263C121.168 47.3723 121.241 47.7372 121.168 48.0292C120.949 50 115.912 57.5912 113.504 59.708C112.92 60.219 111.752 62.1898 110.511 64.5256C106.861 71.0219 100.657 81.8248 94.1606 82.2628C93.7226 82.1168 93.4307 82.1898 93.1387 82.1898ZM120.219 47.7372C119.562 47.7372 117.372 48.6861 115.255 50C115.109 50.146 93.8686 69.4161 90.438 75.4015L90.365 75.4745C89.781 76.4234 88.5401 78.7591 89.4161 80.219C90 81.2409 91.6058 81.6788 94.0146 81.5328C100.146 81.1679 106.131 70.511 109.781 64.1606C111.241 61.6058 112.263 59.708 112.993 59.1971C115.255 57.2993 120.219 49.781 120.438 48.0292C120.438 47.9562 120.438 47.9562 120.438 47.9562C120.365 47.7372 120.292 47.7372 120.219 47.7372Z" fill="#231F20"/>
<path d="M112.92 34.1606L123.504 33.3577L118.686 55.9854L107.299 57.3723L112.92 34.1606Z" fill="#231F20"/>
<path d="M107.299 57.7372C107.226 57.7372 107.08 57.6642 107.007 57.5912C106.934 57.5183 106.861 57.3723 106.934 57.2993L112.555 34.0876C112.555 33.9416 112.701 33.7956 112.847 33.7956L123.431 33.0657C123.577 33.0657 123.65 33.1387 123.723 33.2117C123.796 33.2847 123.796 33.4307 123.796 33.5037L118.978 56.1314C118.978 56.2774 118.832 56.4234 118.686 56.4234L107.299 57.7372ZM113.212 34.4526L107.737 56.9343L118.321 55.6204L122.993 33.7226L113.212 34.4526Z" fill="#231F20"/>
<path d="M116.642 48.1022C116.204 49.4161 115.912 50.8029 115.766 52.1168C115.693 52.4818 115.766 52.7737 115.839 53.0657C115.985 53.2847 116.204 53.5037 116.423 53.6496C117.518 54.2336 118.832 54.5256 120.073 54.4526C120.73 54.5256 121.387 54.3066 121.971 53.9416C122.409 53.5766 122.774 53.0657 122.92 52.5547C123.431 51.0949 123.504 49.562 123.285 48.0292C123.212 47.2993 122.993 46.5693 122.701 45.8394C122.263 45.2555 121.898 44.5985 121.606 43.9416L121.022 46.1314C119.27 45.9124 117.226 46.3504 116.642 48.1022Z" fill="white"/>
<path d="M119.781 54.8175C118.54 54.8905 117.299 54.5986 116.204 53.9416C115.912 53.7956 115.62 53.5037 115.474 53.2117C115.328 52.8467 115.255 52.4088 115.328 52.0438C115.474 50.6569 115.766 49.2701 116.277 47.8832C116.934 45.9854 118.978 45.4745 120.657 45.6934L121.168 43.7956C121.168 43.5766 121.387 43.4307 121.533 43.4307C121.679 43.4307 121.898 43.6496 121.898 43.7956C122.117 44.1606 122.263 44.4526 122.482 44.8175C122.628 45.0365 122.847 45.3285 122.92 45.5475C123.212 46.2774 123.431 47.0803 123.577 47.8832C123.796 49.4891 123.723 51.0949 123.212 52.5548C122.993 53.2117 122.628 53.7226 122.19 54.1606C121.533 54.5256 120.803 54.7445 120.073 54.7445L119.781 54.8175ZM120 46.4964C118.686 46.4964 117.372 46.9343 116.934 48.2482C116.496 49.5621 116.204 50.8759 116.058 52.1898C115.985 52.4818 116.058 52.7007 116.131 52.9927C116.277 53.1387 116.423 53.2847 116.569 53.4307C117.664 54.0146 118.832 54.2336 120.073 54.1606C120.657 54.1606 121.241 54.0146 121.752 53.7226C122.117 53.3577 122.409 52.9927 122.555 52.4818C122.993 51.0949 123.139 49.5621 122.92 48.1022C122.847 47.3723 122.628 46.6423 122.336 45.9854C122.263 45.9124 122.044 45.5475 121.898 45.3285L121.606 44.9635L121.241 46.2774C121.168 46.4234 121.022 46.5694 120.803 46.5694C120.584 46.4964 120.292 46.4234 120 46.4964Z" fill="#231F20"/>
<path d="M60.073 59.1241C60.073 59.1241 71.0219 86.6423 76.2774 86.0584C81.5329 85.4745 100.292 67.5183 104.964 63.1387C109.635 58.7591 117.299 52.4088 118.686 49.4161C120.073 46.4234 118.175 43.7956 116.861 44.0876C115.547 44.3796 110 46.4234 110 46.4234C110 46.4234 111.679 42.1168 111.022 41.8978C110.365 41.6788 107.153 44.0876 106.35 50.7299L80.8029 68.3942L74.4526 51.5329" fill="white"/>
<path d="M76.1314 86.4234C70.6569 86.4234 60.8029 62.0438 59.708 59.2701C59.635 59.0511 59.708 58.9051 59.927 58.7591C60.146 58.6861 60.292 58.7591 60.365 58.9781C63.3577 66.4964 71.8978 85.6934 76.0584 85.6934H76.2044C79.562 85.3285 88.9051 77.8102 104.161 63.3577L104.672 62.8467C105.912 61.6788 107.299 60.438 108.759 59.0511C112.774 55.4745 117.299 51.3869 118.321 49.1971C119.051 47.8832 118.978 46.2774 118.102 45.0365C117.81 44.5986 117.372 44.3796 116.861 44.3796C115.547 44.6715 110.073 46.6423 110 46.7153C109.781 46.7883 109.635 46.7153 109.562 46.4964C109.562 46.4234 109.562 46.3504 109.562 46.2044C110.146 44.8905 110.511 43.5767 110.73 42.1898C110.073 42.4088 107.299 44.6715 106.569 50.7299C106.569 50.8029 106.496 50.9489 106.423 50.9489L80.8759 68.6861C80.8029 68.7591 80.6569 68.7591 80.5839 68.7591C80.511 68.7591 80.365 68.6131 80.365 68.5402L74.1606 51.6788C74.0876 51.4599 74.2336 51.3139 74.3796 51.2409C74.5985 51.1679 74.7445 51.2409 74.8175 51.4599L80.8759 67.8832L105.912 50.511C106.496 45.6934 108.467 42.8467 109.927 41.8248C110.219 41.6058 110.657 41.4599 111.022 41.5329C111.168 41.6059 111.314 41.6788 111.387 41.8248C111.679 42.4818 111.095 44.4526 110.584 45.7664C112.117 45.1825 115.693 43.9416 116.788 43.7226C117.518 43.6496 118.321 43.9416 118.759 44.5985C119.781 46.0584 119.927 47.9562 119.051 49.5621C117.956 51.8978 113.577 55.8394 109.343 59.635C107.883 60.9489 106.423 62.2628 105.255 63.4307L104.745 63.9416C99.0511 69.3431 81.6058 85.9124 76.3504 86.4964L76.1314 86.4234Z" fill="#231F20"/>
<path d="M93.7226 112.92C93.6496 112.92 93.6496 112.92 93.5766 112.92C93.3577 112.847 93.2847 112.628 93.3577 112.482C93.4307 112.263 102.19 90 99.635 84.7445C99.4891 84.3066 99.1241 84.0146 98.6861 83.8686C98.4672 83.7956 98.3942 83.5766 98.3942 83.4306C98.3942 83.2847 98.6861 83.1387 98.8321 83.1387C99.4891 83.3577 100 83.7956 100.219 84.3795C102.92 89.854 94.3066 111.752 93.9416 112.701C94.0146 112.847 93.8686 112.92 93.7226 112.92Z" fill="white"/>
<path d="M97.0803 55.2555C96.8613 55.2555 96.7153 55.0365 96.7153 54.8175C97.2993 51.6058 97.3723 48.3942 96.9343 45.1825C96.9343 44.9635 97.0073 44.8175 97.2263 44.7445C97.4453 44.7445 97.5912 44.8175 97.6642 45.0365C98.1022 48.3212 98.0292 51.6788 97.4453 54.9635C97.4453 55.1825 97.2263 55.3285 97.0803 55.2555Z" fill="#231F20"/>
<path d="M71.7518 22.8467C69.2701 28.4672 64.8905 38.9051 74.9635 39.635C77.0803 39.781 79.1971 39.1241 80.8029 37.7372C83.7226 35.2555 80.6569 28.9781 79.1971 26.1314" fill="white"/>
<path d="M75.5474 40C75.3285 40 75.1095 40 74.8905 40C72.0438 39.781 70.073 38.8321 69.0511 37.0803C66.7153 33.1387 69.708 26.3504 71.3139 22.7007C71.3869 22.4817 71.6058 22.4088 71.7518 22.4817C71.9708 22.5547 72.0438 22.7737 71.9708 22.9197V22.9927C70.511 26.2774 67.4453 33.0657 69.635 36.7153C70.511 38.2482 72.3358 39.1241 74.8905 39.2701C76.9343 39.4161 78.9051 38.7591 80.5109 37.4453C83.3577 35.0365 79.927 28.3942 78.8321 26.2774C78.7591 26.1314 78.8321 25.9124 78.9781 25.7664C79.1241 25.6934 79.3431 25.7664 79.489 25.9124C81.5328 29.927 83.9416 35.5474 81.0219 38.0292C79.489 39.3431 77.5912 40 75.5474 40Z" fill="#231F20"/>
<path d="M73.7956 104.89C73.6496 104.89 73.5766 104.817 73.5036 104.744C73.4307 104.599 73.4307 104.38 73.6496 104.234C73.7226 104.234 78.7591 101.168 80.073 99.1241C80.146 98.9781 80.438 98.9051 80.5839 99.0511C80.7299 99.1971 80.8029 99.416 80.6569 99.562C79.2701 101.752 74.2336 104.744 74.0146 104.89C73.9416 104.89 73.8686 104.89 73.7956 104.89Z" fill="white"/>
<path d="M130.657 28.5402C127.007 25.6934 124.745 22.0438 124.745 18.0292C124.745 9.0511 135.839 1.82482 149.489 1.82482C163.139 1.82482 174.234 9.12409 174.234 18.0292C174.234 26.9343 163.139 34.2336 149.489 34.2336C144.234 34.3066 139.051 33.1387 134.307 30.8029L126.496 32.7737L130.657 28.5402Z" fill="white"/>
<path d="M149.489 34.5986C144.234 34.6715 138.978 33.5037 134.234 31.1679L126.569 33.1387C126.35 33.2117 126.204 33.0657 126.131 32.8467C126.131 32.7007 126.131 32.6277 126.204 32.4818L130.073 28.4672C126.423 25.4745 124.38 21.7518 124.38 17.8832C124.38 8.75913 135.62 1.31387 149.489 1.31387C163.358 1.31387 174.599 8.75913 174.599 17.8832C174.599 27.0073 163.285 34.5986 149.489 34.5986ZM134.307 30.438C134.38 30.438 134.38 30.438 134.453 30.438C139.124 32.7007 144.234 33.8686 149.489 33.7956C162.92 33.7956 173.869 26.6423 173.869 17.9562C173.869 9.27008 162.92 2.11679 149.489 2.11679C136.058 2.11679 125.109 9.27008 125.109 18.0292C125.109 21.7518 127.153 25.4015 130.876 28.2482C131.022 28.3942 131.095 28.6131 130.949 28.7591C130.949 28.7591 130.949 28.7591 130.949 28.8321L127.664 32.1898L134.234 30.511L134.307 30.438Z" fill="#231F20"/>
<path d="M148.467 102.701C148.394 101.387 148.686 100.073 149.27 98.9051C149.854 98.1022 150.438 97.2993 151.022 96.4964C151.752 94.9635 151.241 93.1387 151.387 91.3869C151.533 89.927 152.19 88.6131 153.212 87.5912C154.088 86.7153 155.255 86.0584 156.131 85.1095C157.518 83.5766 157.956 81.3869 158.759 79.4891C159.927 76.7883 161.825 74.4526 164.38 72.9197C162.847 75.9854 166.35 79.927 164.745 82.9197C164.234 83.8686 163.285 84.5985 162.92 85.6204C162.044 88.1022 164.963 90.7299 164.015 93.2117C163.577 94.4526 162.263 95.1825 161.606 96.2774C160.803 97.8102 161.46 99.708 161.387 101.533C161.314 103.942 159.781 106.131 158.029 107.81C156.934 108.832 155.693 109.781 154.526 110.73C153.139 111.898 152.482 113.066 151.241 111.241C149.489 108.686 148.54 105.766 148.467 102.701Z" fill="#D1D3D4"/>
<path d="M146.934 104.088C147.372 102.19 147.737 100.146 146.934 98.3941C146.058 96.3504 143.942 94.9635 143.65 92.7737C143.504 91.3868 144.234 89.927 143.942 88.4671C143.65 87.0073 142.482 86.1314 141.533 85.0365C139.343 82.6277 138.102 79.562 137.883 76.3503C136.423 78.1022 135.255 80.073 134.38 82.1168C133.65 84.2336 133.65 86.7883 134.891 88.6861C135.255 89.1241 135.547 89.635 135.766 90.146C136.204 91.5328 135.036 92.8467 134.38 94.1606C133.65 95.6934 133.796 97.5182 134.818 98.9051C136.058 100.438 138.467 101.095 139.051 102.993C139.197 103.723 139.27 104.453 139.27 105.109C139.562 107.664 141.314 109.781 143.796 110.511C145.255 110.876 145.255 110.292 145.474 109.051C145.839 107.372 146.496 105.766 146.934 104.088Z" fill="#D1D3D4"/>
<path d="M151.606 90.5109C152.628 86.8613 153.066 83.1387 154.161 79.489C155.109 76.6423 156.277 73.9416 157.591 71.3139L153.066 73.2117C151.606 73.7956 150.073 74.5255 149.416 75.9854C148.248 78.4671 150.365 81.6058 149.124 84.0146C148.613 84.8175 147.956 85.5474 147.372 86.2774C146.058 88.1022 146.277 90.6569 147.007 92.8467C147.299 93.7956 148.686 98.6131 149.927 97.2263C150.438 96.7153 150.438 94.6715 150.657 93.9416C150.876 92.7737 151.241 91.6788 151.606 90.5109Z" fill="#D1D3D4"/>
<path d="M149.124 138.613C150 132.701 152.847 111.825 152.847 111.606L152.044 111.533C152.044 111.752 149.197 132.628 148.321 138.54L149.124 138.613Z" fill="#D1D3D4"/>
<path d="M148.102 144.234H148.905C148.832 137.226 145.912 110.365 144.234 108.467L143.65 108.978C144.745 110.219 148.029 134.599 148.102 144.234Z" fill="#D1D3D4"/>
<path d="M146.569 142.92H147.372C146.715 127.737 149.927 95.9854 149.927 95.6204L149.124 95.5474C149.124 95.7664 145.912 127.664 146.569 142.92Z" fill="#D1D3D4"/>
<path d="M156.861 124.38H140.146L141.314 141.314C141.533 144.234 143.942 146.496 146.861 146.496H150.073C152.993 146.496 155.474 144.234 155.62 141.314L156.861 124.38Z" fill="white"/>
<path d="M150.073 146.861H146.861C143.723 146.861 141.168 144.453 140.949 141.314L139.781 124.38C139.781 124.307 139.781 124.161 139.854 124.088C139.927 124.015 140 123.942 140.146 123.942H156.861C157.08 123.942 157.226 124.088 157.226 124.307L156.058 141.241C155.839 144.453 153.212 146.861 150.073 146.861ZM140.511 124.745L141.679 141.314C141.898 144.015 144.161 146.131 146.861 146.204H150.073C152.847 146.204 155.109 144.088 155.255 141.314L156.423 124.745H140.511Z" fill="#D1D3D4"/>
<path d="M152.847 15.4015C153.066 15.4015 153.212 15.2555 153.212 15.0365V13.8686C153.212 13.6496 153.066 13.5037 152.847 13.5037C152.628 13.5037 152.482 13.6496 152.482 13.8686V15.1095C152.482 15.2555 152.628 15.4015 152.847 15.4015Z" fill="#007FA4"/>
<path d="M152.482 18.0292C152.482 18.2482 152.628 18.3942 152.847 18.3942C153.066 18.3942 153.212 18.2482 153.212 18.0292V16.9343C153.212 16.7153 153.066 16.5694 152.847 16.5694C152.628 16.5694 152.482 16.7153 152.482 16.9343V18.0292Z" fill="#007FA4"/>
<path d="M152.482 21.0949C152.482 21.3139 152.628 21.4599 152.847 21.4599C153.066 21.4599 153.212 21.3139 153.212 21.0949V19.927C153.212 19.708 153.066 19.562 152.847 19.562C152.628 19.562 152.482 19.708 152.482 19.927V21.0949Z" fill="#007FA4"/>
<path d="M160.146 15.4745C160.584 15.4015 160.876 15.0365 160.876 14.5985V11.1679C160.876 10.438 160.292 9.85402 159.562 9.85402H154.161C153.65 9.85402 153.139 10.073 152.847 10.511C152.555 10.146 152.044 9.85402 151.533 9.85402H139.051C138.832 9.85402 138.686 10 138.686 10.219C138.686 10.438 138.832 10.5839 139.051 10.5839H151.533C152.044 10.5839 152.482 11.0219 152.482 11.5329V12.1168C152.482 12.3358 152.628 12.4818 152.847 12.4818C153.066 12.4818 153.212 12.3358 153.212 12.1168V11.5329C153.212 11.0219 153.65 10.5839 154.161 10.5839H159.562C159.927 10.5839 160.146 10.8759 160.146 11.1679V14.5985C160.146 14.6715 160.073 14.7445 160 14.7445C158.686 14.9635 157.737 16.1314 157.737 17.5183C157.737 18.9051 158.686 20 160 20.292C160.073 20.292 160.146 20.365 160.146 20.438V23.7956C160.146 24.0146 160.292 24.1606 160.511 24.1606C160.73 24.1606 160.876 24.0146 160.876 23.7956V20.438C160.876 20 160.584 19.635 160.146 19.562C159.197 19.4161 158.467 18.5402 158.467 17.5183C158.467 16.4964 159.197 15.6204 160.146 15.4745Z" fill="#007FA4"/>
<path d="M160.511 23.1387C160.292 23.1387 160.146 23.2847 160.146 23.5037V23.7956C160.146 24.1606 159.854 24.3796 159.562 24.3796H154.161C153.65 24.3796 153.212 23.9416 153.212 23.4307C153.212 23.2847 153.212 22.9197 153.212 22.7737C153.212 22.5548 153.066 22.4088 152.847 22.4088C152.628 22.4088 152.482 22.5548 152.482 22.7737V23.4307C152.482 23.9416 152.044 24.3796 151.533 24.3796H137.372C137.007 24.3796 136.788 24.0876 136.788 23.7956V20.438C136.788 20.365 136.861 20.292 136.934 20.292C138.248 20.073 139.197 18.9051 139.197 17.5183C139.197 16.1314 138.248 15.0365 136.934 14.7445C136.861 14.7445 136.788 14.6715 136.788 14.5985V11.1679C136.788 10.8029 137.08 10.5839 137.372 10.5839H139.27C139.489 10.5839 139.635 10.438 139.635 10.219C139.635 10 139.489 9.85402 139.27 9.85402H137.372C136.642 9.85402 136.058 10.438 136.058 11.1679V14.5985C136.058 15.0365 136.35 15.4015 136.788 15.4745C137.737 15.6204 138.467 16.4964 138.467 17.5183C138.467 18.5402 137.737 19.3431 136.788 19.562C136.35 19.635 136.058 20 136.058 20.438V23.8686C136.058 24.5985 136.642 25.1825 137.372 25.1825H151.533C152.044 25.1825 152.555 24.9635 152.847 24.5256C153.139 24.8905 153.65 25.1825 154.161 25.1825H159.562C160.292 25.1825 160.876 24.5985 160.876 23.8686V23.5766C160.876 23.3577 160.73 23.1387 160.511 23.1387Z" fill="#007FA4"/>
<path d="M141.241 17.5183C141.241 17.7372 141.387 17.8832 141.606 17.8832H149.854C150.073 17.8832 150.219 17.7372 150.219 17.5183C150.219 17.2993 150.073 17.1533 149.854 17.1533H141.606C141.387 17.1533 141.241 17.2993 141.241 17.5183Z" fill="#007FA4"/>
<path d="M141.606 20.8029H145.547C145.766 20.8029 145.912 20.6569 145.912 20.438C145.912 20.219 145.766 20.073 145.547 20.073H141.606C141.387 20.073 141.241 20.219 141.241 20.438C141.241 20.5839 141.387 20.8029 141.606 20.8029Z" fill="#007FA4"/>
<path d="M148.102 14.9635C148.321 14.9635 148.467 14.8175 148.467 14.5985C148.467 14.3796 148.321 14.2336 148.102 14.2336H143.358C143.139 14.2336 142.993 14.3796 142.993 14.5985C142.993 14.8175 143.139 14.9635 143.358 14.9635H148.102Z" fill="#007FA4"/>
<path d="M149.854 20.073H147.81C147.591 20.073 147.445 20.219 147.445 20.438C147.445 20.6569 147.591 20.8029 147.81 20.8029H149.854C150.073 20.8029 150.219 20.6569 150.219 20.438C150.219 20.219 150 20.073 149.854 20.073Z" fill="#007FA4"/>
</svg>
