<svg width="246" height="161" viewBox="0 0 246 161" fill="none" xmlns="http://www.w3.org/2000/svg">
<path d="M221.097 133.683H0.388161C0.155264 133.683 0 133.527 0 133.295C0 133.062 0.155264 132.906 0.388161 132.906H221.097C221.329 132.906 221.485 133.062 221.485 133.295C221.485 133.45 221.329 133.683 221.097 133.683Z" fill="#D1D3D4"/>
<path d="M163.261 112.023L159.224 144.862H92.2271C92.2271 144.862 91.3731 140.747 95.1771 139.971C102.009 138.496 104.726 137.176 108.064 133.838C114.275 127.627 113.809 112.101 113.809 112.101L163.261 112.023Z" fill="white"/>
<path d="M159.301 145.327H92.3047C92.1494 145.327 91.9942 145.172 91.9165 145.017C91.9165 144.939 91.0626 140.514 95.1771 139.66C101.931 138.185 104.571 136.943 107.909 133.683C113.886 127.705 113.498 112.411 113.498 112.256C113.498 112.179 113.498 112.023 113.576 111.946C113.654 111.868 113.731 111.868 113.886 111.868L163.338 111.79C163.416 111.79 163.571 111.868 163.649 111.946C163.726 112.023 163.726 112.101 163.726 112.256L159.689 145.095C159.612 145.172 159.457 145.327 159.301 145.327ZM92.6152 144.551H158.991L162.95 112.411L114.275 112.489C114.275 115.051 114.197 128.326 108.452 134.148C105.036 137.564 102.242 138.884 95.3324 140.359C92.46 140.98 92.5376 143.62 92.6152 144.551Z" fill="#231F20"/>
<path d="M222.727 107.676L223.736 94.8666L230.723 4.89083C230.956 2.6395 229.326 0.621057 227.074 0.388161C226.919 0.388161 226.764 0.388161 226.608 0.388161H62.0281C59.5439 0.465793 57.4478 2.4066 57.2149 4.89083L49.2188 107.676C48.9859 109.927 50.6162 111.946 52.8675 112.179C53.0228 112.179 53.1781 112.179 53.3333 112.179H217.914C220.398 112.101 222.494 110.16 222.727 107.676Z" fill="#231F20"/>
<path d="M217.914 112.567H53.3333C52.0912 112.567 50.8491 112.101 50.0728 111.169C49.2188 110.238 48.753 108.996 48.9083 107.676L56.8268 4.8132C57.0597 2.09607 59.311 0 62.0282 0H226.608C227.851 0 229.093 0.465793 229.869 1.39738C230.723 2.32897 231.189 3.64871 231.033 4.89083L223.115 107.676C222.882 110.393 220.631 112.489 217.914 112.567ZM61.9505 0.776322C59.6216 0.853954 57.7584 2.6395 57.6031 4.89083L49.607 107.754C49.5294 108.84 49.8399 109.85 50.5386 110.626C51.2373 111.402 52.2465 111.79 53.2557 111.79H217.836C220.165 111.713 222.028 109.927 222.261 107.676L230.257 4.8132C230.335 3.72635 230.024 2.71713 229.326 1.94081C228.627 1.16448 227.618 0.776322 226.608 0.776322H61.9505Z" fill="#231F20"/>
<path d="M217.37 94.8666H43.9398L50.9267 4.89083C51.1596 2.4066 53.1781 0.465793 55.7399 0.388161H220.32C222.572 0.388161 224.435 2.1737 224.435 4.42504C224.435 4.5803 224.435 4.73556 224.435 4.89083L217.37 94.8666Z" fill="#D1D3D4"/>
<path d="M217.37 95.2547H43.9398C43.7069 95.2547 43.5517 95.0995 43.5517 94.8666L50.5386 4.89083C50.7715 2.1737 53.0228 0.0776291 55.7399 0.0776291H220.32C221.562 0.0776291 222.804 0.543422 223.581 1.47501C224.435 2.4066 224.901 3.64871 224.745 4.96846L217.758 94.9442C217.758 95.0995 217.603 95.2547 217.37 95.2547ZM44.4056 94.4784H217.06L223.969 4.89083C224.047 3.80398 223.736 2.79476 223.037 2.01843C222.339 1.24211 221.329 0.853951 220.32 0.853951H55.7399C53.411 0.931583 51.5478 2.71712 51.3149 4.96846L44.4056 94.4784Z" fill="#231F20"/>
<path d="M212.79 89.7428H49.2964L55.7399 6.52111H219.233L212.79 89.7428Z" fill="white"/>
<path d="M212.79 90.131H49.2965C49.2188 90.131 49.0636 90.0534 48.9859 89.9757C48.9083 89.8981 48.9083 89.8205 48.9083 89.6652L55.3518 6.52111C55.3518 6.28821 55.507 6.13295 55.7399 6.13295H219.233C219.311 6.13295 219.466 6.21058 219.544 6.28821C219.622 6.36585 219.622 6.44348 219.622 6.59874L213.178 89.8205C213.178 89.9757 213.023 90.131 212.79 90.131ZM49.7622 89.3547H212.402L218.768 6.90927H56.1281L49.7622 89.3547Z" fill="#231F20"/>
<path d="M211.625 112.179H47.0451C44.7938 112.179 42.9306 110.393 42.9306 108.142C42.9306 107.986 42.9306 107.831 42.9306 107.676L43.9398 94.8665H217.37L216.361 107.676C216.206 110.16 214.11 112.101 211.625 112.179Z" fill="white"/>
<path d="M211.625 112.567H47.0451C45.803 112.567 44.5609 112.101 43.7069 111.169C42.853 110.238 42.3872 108.996 42.5425 107.676L43.5517 94.8666C43.5517 94.6337 43.7069 94.4784 43.9398 94.4784H217.37C217.448 94.4784 217.603 94.556 217.681 94.6337C217.758 94.7113 217.758 94.7889 217.758 94.9442L216.749 107.754C216.594 110.393 214.343 112.489 211.625 112.567ZM44.2504 95.2547L43.3188 107.754C43.2412 108.84 43.5517 109.85 44.2504 110.626C44.9491 111.402 45.9583 111.79 46.9675 111.79H211.548C213.877 111.713 215.74 109.927 215.973 107.676L216.904 95.2547H44.2504Z" fill="#231F20"/>
<path d="M154.799 25.3857H117.458C116.836 25.3857 116.293 24.8423 116.293 24.2212C116.293 23.6002 116.836 23.0568 117.458 23.0568H154.799C155.42 23.0568 155.963 23.6002 155.963 24.2212C155.963 24.9199 155.42 25.3857 154.799 25.3857Z" fill="#D1D3D4"/>
<path d="M187.327 57.2149H79.8836C78.0204 57.2149 76.2348 56.4386 74.9151 55.1189C73.5953 53.7215 72.9743 51.7807 73.1296 49.9175L73.5177 45.3372C73.8282 41.3003 77.2441 38.1174 81.2809 38.0398H188.724C190.587 38.0398 192.373 38.8161 193.692 40.1359C195.012 41.5332 195.633 43.474 195.478 45.3372L195.09 49.9175C194.779 54.032 191.363 57.1373 187.327 57.2149ZM81.2809 38.8161C77.6322 38.8937 74.6046 41.6885 74.294 45.3372L73.9835 49.9175C73.8282 51.6254 74.3717 53.3333 75.5362 54.5754C76.623 55.8176 78.2533 56.4386 79.8836 56.4386H187.327C190.975 56.361 194.003 53.4886 194.313 49.9175L194.702 45.3372C194.857 43.6293 194.313 41.9214 193.149 40.6793C192.062 39.5148 190.432 38.8161 188.802 38.8161H81.2809Z" fill="#007FA4"/>
<path d="M174.051 57.2149C173.819 57.2149 173.663 56.982 173.663 56.8268L175.061 38.4279C175.061 38.195 175.294 38.0398 175.449 38.0398C175.682 38.0398 175.837 38.2727 175.837 38.4279L174.44 56.8268C174.44 57.0597 174.207 57.2149 174.051 57.2149Z" fill="#007FA4"/>
<path d="M186.162 51.0044C184.998 51.0044 183.833 50.5386 183.057 49.6846C182.28 48.8307 181.892 47.5885 181.97 46.4241C182.203 43.9398 184.299 41.999 186.783 41.9214C187.948 41.9214 189.112 42.3872 189.888 43.2411C190.665 44.0951 191.131 45.3372 190.975 46.5017C190.742 48.9859 188.646 50.9267 186.162 51.0044ZM186.783 42.6977C184.687 42.7753 182.901 44.4056 182.746 46.5017C182.669 47.5109 182.979 48.4425 183.6 49.1412C184.221 49.8399 185.153 50.228 186.084 50.228C188.18 50.1504 189.966 48.5201 190.121 46.4241C190.199 45.4148 189.888 44.4833 189.267 43.7846C188.646 43.0082 187.715 42.6201 186.783 42.6977Z" fill="#007FA4"/>
<path d="M178.011 53.3333C177.855 53.3333 177.778 53.2557 177.7 53.1781C177.545 53.0228 177.623 52.7899 177.778 52.6346L182.902 48.753C183.057 48.5978 183.29 48.6754 183.445 48.8307C183.523 48.9859 183.523 49.2188 183.367 49.3741L178.244 53.2557C178.166 53.3333 178.088 53.3333 178.011 53.3333Z" fill="#007FA4"/>
<path d="M189.112 65.6769H78.5638C78.3309 65.6769 78.1756 65.5216 78.1756 65.2887C78.1756 65.0558 78.3309 64.9005 78.5638 64.9005H189.112C189.345 64.9005 189.5 65.0558 189.5 65.2887C189.5 65.444 189.345 65.5992 189.112 65.6769Z" fill="#D1D3D4"/>
<path d="M188.802 70.0242H78.2533C78.0204 70.0242 77.8651 69.869 77.8651 69.6361C77.8651 69.4032 78.0204 69.2479 78.2533 69.2479H188.802C189.034 69.2479 189.19 69.4032 189.19 69.6361C189.19 69.869 188.957 70.0242 188.802 70.0242Z" fill="#D1D3D4"/>
<path d="M170.946 74.4493H77.8651C77.6322 74.4493 77.477 74.294 77.477 74.0611C77.477 73.8282 77.6322 73.673 77.8651 73.673H170.946C171.179 73.673 171.334 73.8282 171.334 74.0611C171.334 74.294 171.179 74.4493 170.946 74.4493Z" fill="#D1D3D4"/>
<path d="M129.646 108.607C128.326 108.607 127.084 108.064 126.152 107.132C125.221 106.123 124.755 104.803 124.91 103.484C125.143 100.611 127.472 98.4376 130.344 98.36C131.664 98.36 132.906 98.9034 133.838 99.835C134.77 100.844 135.235 102.164 135.08 103.484C134.847 106.356 132.441 108.607 129.646 108.607ZM130.344 99.1363C127.938 99.214 125.919 101.077 125.687 103.484C125.609 104.648 125.919 105.735 126.696 106.589C127.472 107.365 128.481 107.831 129.568 107.831C131.975 107.754 133.993 105.89 134.226 103.484C134.304 102.319 133.993 101.232 133.217 100.378C132.518 99.6021 131.431 99.1363 130.344 99.1363Z" fill="#D1D3D4"/>
<path d="M160.311 112.023C160.311 112.023 157.438 128.326 154.022 134.537C152.004 138.108 146.026 139.505 142.3 141.213C140.049 142.222 140.281 144.939 140.281 144.939H159.301L163.338 112.023H160.311Z" fill="#231F20"/>
<path d="M159.301 145.327H140.281C140.049 145.327 139.893 145.172 139.893 144.939C139.893 144.784 139.66 141.912 142.145 140.825C143.076 140.437 144.085 140.049 145.172 139.66C148.51 138.418 152.314 137.021 153.712 134.381C157.05 128.326 159.922 112.179 160 112.023C160 111.868 160.155 111.713 160.388 111.713H163.338C163.416 111.713 163.571 111.79 163.649 111.868C163.726 111.946 163.726 112.023 163.726 112.179L159.689 145.017C159.612 145.172 159.457 145.327 159.301 145.327ZM140.67 144.551H158.991L162.95 112.411H160.776C160.311 114.818 157.671 128.947 154.488 134.692C152.935 137.564 148.976 139.039 145.483 140.281C144.396 140.67 143.387 141.058 142.533 141.446C141.291 142.145 140.592 143.309 140.67 144.551Z" fill="#231F20"/>
<path d="M80.5046 77.3993C82.6007 76.8559 84.852 76.7006 87.0257 76.8559C90.5968 77.1664 92.3823 75.148 92.46 73.5177C92.5376 71.8874 89.3547 70.1795 87.0257 70.2572C84.6968 70.3348 78.952 73.2072 78.952 73.2072L80.5046 77.3993Z" fill="white"/>
<path d="M80.5046 77.7875C80.3493 77.7875 80.1941 77.7098 80.1164 77.5546L78.5638 73.3624C78.4862 73.2072 78.5638 72.9743 78.7191 72.8967C78.952 72.819 84.6191 70.0243 86.9481 69.9466C88.8113 69.9466 90.5968 70.6453 91.9942 71.9651C92.46 72.4309 92.7705 73.0519 92.7705 73.673C92.6929 74.6046 92.2271 75.5361 91.5284 76.0796C90.2863 77.0888 88.5784 77.5546 86.9481 77.3217C84.852 77.1664 82.6783 77.3217 80.5822 77.8651C80.5822 77.7098 80.5046 77.7875 80.5046 77.7875ZM79.3401 73.3624L80.6599 76.9335C82.7559 76.4677 84.852 76.3125 86.9481 76.4677C88.3455 76.7006 89.8205 76.3125 90.9073 75.3809C91.4507 74.9151 91.8389 74.2164 91.9165 73.5177C91.9165 73.0519 91.6836 72.6638 91.3731 72.4309C90.131 71.344 88.5784 70.7229 86.9481 70.7229C85.0849 70.7229 80.5822 72.7414 79.3401 73.3624Z" fill="#231F20"/>
<path d="M60.5531 49.8399C60.5531 49.8399 65.9098 71.2664 67.4624 71.8874C69.0151 72.5085 81.7467 70.7229 81.7467 70.7229L80.9704 78.3309C80.9704 78.3309 66.6861 84.6191 62.1058 81.1257C57.5255 77.6322 44.9491 61.0189 44.9491 61.0189L60.5531 49.8399Z" fill="#9B292B"/>
<path d="M84.7744 76.1572L91.7613 79.8059L99.1363 65.444L92.1494 61.7952L84.7744 76.1572Z" fill="#231F20"/>
<path d="M91.7613 80.1941C91.6836 80.1941 91.606 80.1941 91.606 80.1941L84.6191 76.5454C84.4638 76.4677 84.3862 76.2348 84.4639 76.0019L91.7613 61.64C91.8389 61.5623 91.9165 61.4847 91.9942 61.4847C92.0718 61.4847 92.2271 61.4847 92.3047 61.4847L99.2916 65.1334C99.4469 65.2111 99.5245 65.444 99.4469 65.6769L92.1494 80.0388C92.0718 80.1164 91.9942 80.1941 91.9165 80.1941C91.8389 80.1164 91.8389 80.1941 91.7613 80.1941ZM85.3178 76.0019L91.606 79.2625L98.5929 65.5992L92.3047 62.3387L85.3178 76.0019Z" fill="#231F20"/>
<path d="M90.7521 65.7545L117.147 13.9738L122.581 16.7686" fill="#231F20"/>
<path d="M90.7521 66.1427C90.6744 66.1427 90.5968 66.1427 90.5968 66.065C90.4415 65.9874 90.3639 65.7545 90.4415 65.5216L116.914 13.7409C116.992 13.6633 117.069 13.5856 117.147 13.5856C117.225 13.508 117.38 13.508 117.458 13.5856L122.814 16.3804C122.969 16.458 123.047 16.6909 122.969 16.9238C122.892 17.0791 122.659 17.1567 122.426 17.0791L117.38 14.5172L91.0626 65.9874C90.985 66.065 90.9073 66.1427 90.7521 66.1427Z" fill="#231F20"/>
<path d="M130.382 53.0351C137.453 38.6434 133.765 22.3476 122.144 16.6374C110.523 10.9273 95.3697 17.965 88.2981 32.3566C81.2265 46.7483 84.9146 63.0441 96.5357 68.7543C108.157 74.4645 123.31 67.4267 130.382 53.0351Z" fill="#231F20"/>
<path d="M105.192 71.1111C102.009 71.1111 98.8258 70.3348 95.9534 68.8598C84.3086 62.8045 80.8151 46.0359 88.1902 31.5963C92.2271 23.6002 98.9034 17.7001 106.434 15.2935C111.79 13.4304 117.69 13.8185 122.737 16.3804C134.381 22.4357 137.875 39.2043 130.5 53.6439C126.463 61.5623 119.787 67.54 112.256 69.9466C109.927 70.7229 107.598 71.1111 105.192 71.1111ZM113.498 14.983C111.169 14.983 108.918 15.3712 106.667 16.0699C99.2916 18.3988 92.8481 24.2212 88.8889 31.9845C81.6691 46.1135 85.0073 62.3387 96.3416 68.2387C101.232 70.6453 106.9 71.0335 112.023 69.3256C119.398 66.9966 125.842 61.1742 129.879 53.411C137.099 39.3595 133.76 23.0568 122.426 17.1567C119.631 15.6817 116.604 14.983 113.498 14.983Z" fill="#231F20"/>
<path d="M125.018 50.2327C132.089 35.841 128.401 19.5452 116.78 13.835C105.159 8.12484 90.0056 15.1626 82.934 29.5542C75.8625 43.9459 79.5506 60.2417 91.1716 65.9519C102.793 71.6621 117.946 64.6243 125.018 50.2327Z" fill="white"/>
<path d="M99.835 68.394C96.5745 68.394 93.3915 67.6177 90.5968 66.1426C78.952 60.0873 75.4585 43.3188 82.8336 28.8792C86.8704 20.8831 93.5468 14.983 101.077 12.5764C106.434 10.7132 112.334 11.1014 117.38 13.6633C129.025 19.7186 132.518 36.4871 125.143 50.9267C121.106 58.8452 114.43 64.8229 106.9 67.2295C104.571 68.0058 102.242 68.394 99.835 68.394ZM83.5323 29.2673C76.3125 43.3188 79.6506 59.6215 90.9849 65.5216C95.8758 67.9282 101.543 68.3164 106.667 66.6084C114.042 64.2795 120.485 58.4571 124.444 50.6938C131.664 36.5648 128.326 20.3396 116.992 14.4396C112.101 11.9554 106.434 11.5672 101.31 13.3527C93.935 15.6041 87.4915 21.4265 83.5323 29.2673Z" fill="#231F20"/>
<path d="M120.628 48.0758C126.225 36.6856 123.306 23.7887 114.11 19.2697C104.913 14.7507 92.9203 20.3209 87.3236 31.7111C81.7268 43.1013 84.6452 55.9982 93.8421 60.5172C103.039 65.0362 115.031 59.466 120.628 48.0758Z" fill="white"/>
<path d="M100.689 62.4939C98.1271 62.4939 95.5653 61.8729 93.3139 60.7084C84.0757 55.8952 81.2809 42.6201 87.181 31.1305C90.3639 24.8423 95.7205 20.1067 101.698 18.1659C105.968 16.6909 110.626 17.0014 114.663 19.0199C123.901 23.8331 126.696 37.1082 120.796 48.5978C117.535 54.886 112.256 59.6215 106.278 61.5623C104.493 62.1834 102.552 62.4939 100.689 62.4939ZM107.288 18.0107C105.425 18.0107 103.639 18.3212 101.931 18.8646C96.1087 20.7278 90.985 25.3081 87.8797 31.441C82.2125 42.5424 84.852 55.3518 93.7021 60.0097C97.5061 61.9505 102.009 62.261 106.046 60.8637C111.868 59.0005 116.992 54.4202 120.097 48.2872C125.764 37.1858 123.125 24.3765 114.275 19.7186C112.101 18.6317 109.694 18.0107 107.288 18.0107Z" fill="#231F20"/>
<path d="M87.4915 31.2858C81.7467 42.6201 84.3862 55.5847 93.4692 60.3979C94.0902 60.7084 94.6337 60.9413 95.2547 61.1742C87.5691 55.7399 85.5507 43.7069 90.985 33.149C96.4192 22.591 107.288 17.2343 116.138 20.4173C115.594 20.0291 115.051 19.7186 114.43 19.4081C105.347 14.6725 93.3139 19.9515 87.4915 31.2858Z" fill="#231F20"/>
<path d="M95.3324 61.5623C95.2547 61.5623 95.2547 61.5623 95.1771 61.5623C94.556 61.3295 93.935 61.0189 93.3139 60.7084C84.0757 55.8952 81.2809 42.6201 87.181 31.1305C90.4415 24.8423 95.7205 20.1067 101.698 18.1659C105.968 16.6909 110.626 17.0014 114.663 19.0199C115.284 19.3304 115.827 19.7186 116.371 20.1067C116.526 20.1844 116.604 20.4173 116.448 20.5725C116.371 20.7278 116.138 20.8054 115.983 20.7278C107.21 17.5449 96.6521 22.9015 91.3731 33.2266C86.0941 43.5517 87.8797 55.4294 95.5653 60.786C95.7205 60.8637 95.7982 61.0966 95.7205 61.2518C95.5653 61.4847 95.41 61.5623 95.3324 61.5623ZM107.288 18.0107C105.425 18.0107 103.639 18.3212 101.931 18.8646C96.1087 20.7278 90.985 25.3081 87.8797 31.441C82.3678 42.1543 84.6191 54.4978 92.8481 59.4663C86.8704 53.2557 85.8612 42.4648 90.7521 32.9161C95.6429 23.3673 104.959 17.8554 113.421 19.2528C111.402 18.4765 109.384 18.0107 107.288 18.0107Z" fill="#231F20"/>
<path d="M64.2795 120.408L67.9282 122.348C69.7137 123.28 71.8874 122.581 72.819 120.796C72.819 120.796 72.819 120.796 72.819 120.718L92.7705 81.5915C93.7021 79.8059 93.0034 77.5546 91.2179 76.623L87.5691 74.7598C85.7836 73.8282 83.6099 74.5269 82.6783 76.3125L62.7268 115.439C61.7952 117.225 62.4939 119.476 64.2795 120.408Z" fill="white"/>
<path d="M69.5585 123.125C68.9374 123.125 68.2387 122.969 67.6953 122.659L64.0466 120.796C62.0282 119.709 61.2518 117.302 62.3387 115.284L82.2902 76.1572C83.2994 74.1388 85.706 73.3625 87.7244 74.3717L91.3731 76.3125C93.3916 77.3217 94.1679 79.8059 93.081 81.8244L73.1296 120.951C72.6638 121.883 71.8098 122.659 70.723 122.969C70.4124 123.047 70.0243 123.125 69.5585 123.125ZM64.4347 120.097L68.0835 121.96C69.6361 122.814 71.6545 122.193 72.4309 120.563C72.4309 120.563 72.4309 120.563 72.4309 120.485L92.46 81.3586C93.3139 79.7283 92.6929 77.7875 91.0626 76.9335L87.4139 75.0704C86.6376 74.6822 85.7836 74.6046 84.9297 74.8375C84.0757 75.0704 83.377 75.6914 82.9889 76.4677L63.0374 115.672C62.1834 117.225 62.8045 119.243 64.4347 120.097Z" fill="#231F20"/>
<path d="M97.1179 56.6715C96.885 56.6715 96.7297 56.5939 96.6521 56.361C96.5745 56.1281 96.7297 55.9728 96.9626 55.8952L110.393 51.5478C110.626 51.4702 110.859 51.6254 110.936 51.7807C111.014 51.936 110.859 52.2465 110.704 52.3241L97.1955 56.6715C97.1179 56.6715 97.1179 56.6715 97.1179 56.6715Z" fill="#D1D3D4"/>
<path d="M102.164 28.3358C102.009 28.3358 101.853 28.1805 101.776 28.0252C101.698 27.7923 101.853 27.6371 102.009 27.5594C106.822 26.2397 114.197 24.1436 114.663 23.9107C114.896 23.8331 115.051 23.9884 115.129 24.1436C115.206 24.2989 115.129 24.5318 114.973 24.6094C114.352 24.9199 103.406 27.9476 102.164 28.3358Z" fill="#D1D3D4"/>
<path d="M93.0034 47.9767C92.8481 47.9767 92.6929 47.8991 92.6152 47.7438C92.5376 47.5109 92.6152 47.3557 92.8481 47.278L98.9811 44.9491C99.214 44.8714 99.3692 44.9491 99.4469 45.182C99.5245 45.4148 99.4469 45.5701 99.214 45.6477L93.081 47.9767C93.081 47.9767 93.081 47.9767 93.0034 47.9767Z" fill="#D1D3D4"/>
<path d="M113.809 36.6424C113.654 36.6424 113.498 36.5648 113.421 36.3319C113.343 36.099 113.498 35.9437 113.654 35.8661L120.64 33.8476C120.873 33.77 121.029 33.9253 121.106 34.0805C121.184 34.3134 121.029 34.4687 120.873 34.5463L113.886 36.5648L113.809 36.6424Z" fill="#D1D3D4"/>
<path d="M22.4357 151.771C22.4357 151.771 20.7278 154.41 21.0383 154.643C21.3489 154.876 29.4226 158.059 28.8016 158.913C28.1805 159.767 16.3804 159.379 11.179 157.593L14.1291 149.287" fill="white"/>
<path d="M24.9199 159.845C20.5725 159.845 14.2067 159.146 11.1014 157.982C10.8685 157.904 10.7909 157.671 10.8685 157.516L13.8185 149.209C13.8962 148.976 14.1291 148.899 14.2843 148.976C14.5172 149.054 14.5948 149.287 14.5172 149.442L11.7225 157.36C16.9238 159.068 26.9384 159.301 28.4134 158.758C27.9476 158.214 25.7739 157.128 21.8923 155.42C21.5041 155.264 21.1936 155.109 20.8054 154.954C20.4949 154.799 20.1844 154.566 22.1252 151.538C22.2028 151.383 22.4357 151.305 22.6686 151.383C22.8239 151.46 22.9015 151.771 22.8239 151.926C22.2804 152.703 21.8923 153.479 21.5041 154.333L22.2804 154.643C27.1713 156.739 29.1121 157.826 29.345 158.525C29.4226 158.68 29.345 158.913 29.2673 158.991C28.8792 159.612 27.1713 159.845 24.9199 159.845Z" fill="#231F20"/>
<path d="M50.6938 152.004L52.6347 159.146C52.6347 159.146 63.2703 160.233 69.9466 159.146C69.9466 155.42 64.2019 155.032 60.3202 154.333L58.0689 150.839L50.6938 152.004Z" fill="white"/>
<path d="M62.494 160C57.3702 160 52.6347 159.534 52.557 159.534C52.4018 159.534 52.2465 159.379 52.2465 159.224L50.3057 152.081C50.3057 152.004 50.3057 151.849 50.3833 151.771C50.461 151.693 50.5386 151.616 50.6162 151.616L57.9913 150.529C58.1465 150.529 58.3018 150.606 58.3794 150.684L60.5531 154.022L61.9505 154.255C65.6769 154.876 70.2572 155.653 70.2572 159.146C70.2572 159.301 70.1019 159.534 69.9466 159.534C67.54 159.922 65.0558 160.078 62.494 160ZM52.9452 158.758C54.5755 158.913 63.5808 159.689 69.5585 158.758C69.248 156.118 65.3663 155.497 61.8729 154.954C61.3295 154.876 60.786 154.799 60.2426 154.643C60.165 154.643 60.0097 154.566 60.0097 154.488L57.9136 151.228L51.2373 152.237L52.9452 158.758Z" fill="#231F20"/>
<path d="M18.0107 81.1257C18.0107 81.1257 15.837 92.8481 17.5449 102.707C19.2528 112.567 25.7739 119.709 23.5226 125.842C21.2712 131.975 12.2659 150.607 12.2659 150.607L22.8239 153.091C22.8239 153.091 38.2727 133.372 39.1266 127.783C39.9806 122.193 34.0806 104.726 34.0806 104.726L18.0107 81.1257Z" fill="#231F20"/>
<path d="M22.7463 153.479H22.6686L12.1106 150.995C12.033 150.995 11.8777 150.917 11.8777 150.762C11.8001 150.684 11.8001 150.529 11.8777 150.451C11.9554 150.296 20.8831 131.742 23.0568 125.687C24.2989 122.271 22.6686 118.389 20.7278 113.886C19.0975 110.315 17.8554 106.589 17.0791 102.785C15.3712 93.0034 17.5449 81.2033 17.5449 81.048C17.5449 80.8928 17.7002 80.7375 17.8554 80.7375C18.0107 80.7375 18.166 80.7375 18.2436 80.8928L34.2358 104.415C34.2358 104.415 34.2358 104.493 34.3135 104.493C34.5464 105.192 40.2135 122.115 39.3596 127.783C38.5056 133.45 23.6778 152.47 23.0568 153.246C23.0568 153.401 22.9015 153.479 22.7463 153.479ZM12.8093 150.374L22.6686 152.625C24.2989 150.606 37.9622 132.829 38.7385 127.705C39.5148 122.348 34.0806 105.89 33.6924 104.881L18.2436 82.2125C17.7778 85.1625 16.5357 94.6337 17.9331 102.707C18.7094 106.511 19.9515 110.16 21.5818 113.654C23.5226 118.311 25.2305 122.348 23.9107 126.075C21.8147 131.509 14.2067 147.501 12.8093 150.374Z" fill="#231F20"/>
<path d="M47.2004 88.8113C47.2004 88.8113 53.7215 119.088 55.1189 125.842C56.5163 132.596 60.6308 153.091 60.6308 153.091H49.607C49.607 153.091 40.6017 127.86 36.9529 124.367C33.3042 120.873 25.4634 106.511 22.0476 98.6706C18.6317 90.8297 20.4173 81.1257 20.4173 81.1257L47.2004 88.8113Z" fill="#231F20"/>
<path d="M60.6308 153.479H49.607C49.4517 153.479 49.2965 153.401 49.2188 153.246C49.1412 153.013 40.2135 128.093 36.72 124.677C33.0713 121.184 25.2305 106.822 21.737 98.9034C18.2436 90.9849 20.1067 81.2033 20.1067 81.1257C20.1067 81.048 20.1844 80.8928 20.262 80.8928C20.3396 80.8151 20.4949 80.8151 20.5725 80.8151L47.278 88.5007C47.4333 88.5783 47.5109 88.656 47.5885 88.8112C47.6662 89.1218 54.1097 119.165 55.507 125.842C56.9044 132.518 61.0189 152.935 61.0189 153.091C61.0189 153.168 61.0189 153.324 60.9413 153.401C60.8637 153.401 60.7084 153.479 60.6308 153.479ZM49.9175 152.703H60.165C59.5439 149.597 55.9728 132.052 54.7307 125.919C53.411 119.554 47.4333 91.9165 46.8899 89.1218L20.8054 81.6691C20.4949 83.6099 19.4857 91.8389 22.4357 98.5929C25.9292 106.511 33.6147 120.718 37.2635 124.134C40.9122 127.55 48.9083 149.908 49.9175 152.703Z" fill="#231F20"/>
<path d="M55.1965 39.4372C54.4202 39.1266 53.6439 38.6608 52.7123 38.2727C51.7807 37.8845 50.8491 37.1858 51.1596 36.2542C51.3925 35.4779 52.557 35.1674 52.557 34.3911C52.557 34.1582 52.4794 33.9253 52.4017 33.77C51.7807 31.5963 51.936 29.345 52.9452 27.3265C53.9544 25.3081 55.6623 23.8331 57.7584 23.0568C57.5255 23.0568 57.2926 22.7462 57.3702 22.4357C57.4478 22.2028 57.6807 21.9699 57.9136 21.8147C58.8452 21.3489 59.8544 21.116 60.8637 21.1936C64.1242 21.3489 67.3071 22.4357 69.9466 24.4542C71.9651 25.9292 74.0611 28.7239 72.819 31.3634C72.3532 32.3726 71.344 32.9161 70.2572 32.7608C68.7045 35.5556 66.4532 37.0306 63.8137 38.5056C62.0281 39.5148 60.0097 40.0582 57.9136 40.0582C56.9044 39.9806 56.0505 39.7477 55.1965 39.4372Z" fill="white"/>
<path d="M57.836 40.3688C56.9044 40.3688 55.8952 40.2135 55.0412 39.8253C54.5755 39.6701 54.1097 39.4372 53.6439 39.2043C53.3333 39.049 52.9452 38.8937 52.557 38.6608C51.1596 38.0398 50.4609 37.1082 50.7715 36.1766C50.9267 35.7885 51.2373 35.4003 51.6254 35.1674C51.936 34.9345 52.1688 34.7016 52.1688 34.3911C52.1688 34.2358 52.1688 34.0805 52.0912 33.9253C51.3925 31.6739 51.5478 29.2673 52.6346 27.1713C53.5662 25.3081 55.1189 23.7555 57.0597 22.9015C56.982 22.7462 56.982 22.5133 56.982 22.3581C57.0597 21.9699 57.3702 21.6594 57.6807 21.5041C58.6123 20.9607 59.7768 20.7278 60.8637 20.8054C64.2018 20.9607 67.4624 22.1252 70.1795 24.1436C72.5861 25.9292 74.4493 28.8792 73.1295 31.5963C72.6637 32.6832 71.5769 33.3042 70.4124 33.2266C68.7821 36.099 66.2979 37.574 63.9689 38.8161C62.1058 39.7477 60.0097 40.2911 57.836 40.3688ZM60.6308 21.5041C59.7768 21.4265 58.8452 21.6594 58.0689 22.0475C57.9136 22.1252 57.7584 22.2804 57.6807 22.4357C57.6807 22.5133 57.6807 22.5133 57.6807 22.591C57.836 22.591 57.9913 22.7462 58.0689 22.9015C58.0689 23.0568 57.9913 23.2897 57.836 23.3673C55.8176 24.066 54.1873 25.541 53.2557 27.4818C52.3241 29.4226 52.1689 31.5963 52.7899 33.6147C52.8675 33.8476 52.9452 34.1582 52.9452 34.3911C52.8675 34.9345 52.6346 35.4003 52.1688 35.7108C51.936 35.8661 51.7031 36.099 51.5478 36.4095C51.3149 37.1858 52.6346 37.8069 52.9452 37.9622L54.032 38.5056C54.4978 38.7385 54.9636 38.9714 55.4294 39.1266C56.2057 39.4372 57.0597 39.6701 57.9136 39.6701C59.9321 39.6701 61.8729 39.1266 63.6584 38.1174C66.6084 36.5648 68.5492 35.0898 69.9466 32.5279C70.0243 32.3726 70.2572 32.295 70.4124 32.3726C71.2664 32.5279 72.1203 31.9845 72.5085 31.2082C73.7506 28.5687 71.344 25.9292 69.7914 24.7647C67.2295 22.8239 64.1242 21.737 60.9413 21.5818L60.6308 21.5041Z" fill="#231F20"/>
<path d="M69.4808 37.2635C69.4808 37.2635 70.3348 41.4556 69.6361 41.999C68.9374 42.5425 67.6177 41.4556 67.6177 41.4556" fill="white"/>
<path d="M69.2479 42.5424C68.5492 42.4648 67.9282 42.2319 67.3848 41.7661C67.2295 41.6109 67.1519 41.378 67.3071 41.2227C67.4624 41.0674 67.6953 41.0674 67.8506 41.1451C68.1611 41.4556 69.0927 41.9214 69.4032 41.6885C69.7137 41.4556 69.4808 39.3595 69.0927 37.3411C69.015 37.1082 69.1703 36.9529 69.4032 36.8753C69.6361 36.7977 69.7914 36.9529 69.869 37.1858C70.1795 38.8937 70.723 41.7661 69.869 42.3096C69.7137 42.4648 69.4808 42.5424 69.2479 42.5424Z" fill="#231F20"/>
<path d="M70.8006 32.6832C71.7322 34.3911 70.4124 36.6424 69.7914 38.2727C68.9374 40.524 67.9282 42.6977 66.9966 44.8714C66.3755 46.2688 62.7268 44.8714 62.261 44.1727L60.5531 49.9175L54.1096 43.9398L56.2057 39.4372C56.2057 39.4372 58.6123 40.4464 61.1742 38.1174C63.7361 35.7885 65.9874 29.4226 65.9874 29.4226C65.9874 29.4226 69.869 30.9753 70.8006 32.6832Z" fill="white"/>
<path d="M60.5531 50.228C60.4755 50.228 60.3979 50.228 60.3202 50.1504L53.8768 44.1727C53.7215 44.0951 53.7215 43.8622 53.7991 43.7069L55.8952 39.2043C55.9728 39.049 56.2057 38.9714 56.361 39.049C56.4386 39.049 58.6123 39.903 60.9413 37.8069C63.3479 35.5556 65.5992 29.4226 65.5992 29.345C65.5992 29.2674 65.6769 29.1897 65.8321 29.1121C65.9098 29.0345 66.065 29.0345 66.1427 29.1121C66.2979 29.1897 70.1019 30.6647 71.1111 32.4503C71.9651 34.0029 71.1111 35.9437 70.4124 37.4964C70.2572 37.8069 70.1795 38.1174 70.0243 38.3503C69.1703 40.6017 68.1611 42.7754 67.2295 44.9491C66.9966 45.4149 66.4532 45.7254 65.9098 45.7254C64.6676 45.7254 63.4255 45.4149 62.3387 44.7162L60.8637 49.9175C60.8637 50.0728 60.7084 50.1504 60.6308 50.1504C60.6308 50.228 60.6308 50.228 60.5531 50.228ZM54.5755 43.7846L60.3202 49.1412L61.7952 43.9398C61.8729 43.7846 61.9505 43.7069 62.1058 43.6293C62.261 43.6293 62.4163 43.7069 62.4939 43.7846C63.5032 44.4833 64.6676 44.8714 65.9098 44.8714C66.2979 44.8714 66.5308 44.7162 66.6084 44.5609C67.6177 42.3872 68.5493 40.2135 69.4032 37.9622C69.4808 37.7293 69.6361 37.4187 69.7914 37.1082C70.4124 35.7108 71.1887 34.0029 70.4901 32.7608C69.869 31.5963 67.54 30.4318 66.2979 29.8884C65.7545 31.2858 63.8137 36.2543 61.5624 38.2727C60.2426 39.5924 58.3794 40.1359 56.5163 39.7477L54.5755 43.7846Z" fill="#231F20"/>
<path d="M67.54 43.0859C66.5308 43.3188 65.444 42.6201 65.2887 41.6109C65.2887 41.5332 65.2887 41.4556 65.2111 41.3003" fill="white"/>
<path d="M67.1519 43.5517C66.6085 43.5517 66.065 43.3964 65.6769 43.0859C65.1334 42.6977 64.8229 42.0767 64.8229 41.378C64.8229 41.1451 64.9782 40.9898 65.2111 40.9898C65.444 40.9898 65.5992 41.1451 65.5992 41.378C65.5992 41.8438 65.8321 42.2319 66.1427 42.5425C66.5308 42.7753 66.9966 42.9306 67.4624 42.853C67.6953 42.853 67.8506 42.9306 67.9282 43.1635C67.9282 43.3964 67.8506 43.5517 67.6177 43.6293C67.4624 43.5517 67.3071 43.5517 67.1519 43.5517Z" fill="#231F20"/>
<path d="M64.7453 36.9529C64.9005 36.4095 64.9005 35.7885 64.7453 35.1674C64.6676 34.7016 64.5124 34.2358 64.3571 33.8476C64.1242 33.4595 63.736 33.0713 63.3479 32.9937C62.8821 32.9937 62.4163 33.0713 62.1058 33.3819C61.7952 33.6924 61.5623 34.0029 61.4071 34.3911C60.6308 36.099 60.8637 38.0398 61.9505 39.5148L61.8729 39.3595" fill="white"/>
<path d="M61.9505 39.903C61.7952 39.903 61.7176 39.8253 61.64 39.7477C60.4755 38.1174 60.3202 36.0213 61.0965 34.2358C61.2518 33.77 61.5623 33.4595 61.8729 33.0713C62.261 32.7608 62.8045 32.6055 63.3479 32.6055C63.8913 32.7608 64.4347 33.149 64.6676 33.6147C64.9005 34.0805 65.0558 34.5463 65.1334 35.0121C65.2887 35.6332 65.2887 36.3319 65.1334 37.0306C65.0558 37.1858 64.8229 37.2635 64.59 37.1858C64.4347 37.1082 64.3571 36.9529 64.3571 36.72C64.5124 36.1766 64.5124 35.7108 64.3571 35.1674C64.2795 34.7792 64.2018 34.3134 63.9689 33.9253C63.8137 33.6147 63.5031 33.3819 63.1926 33.3042C62.8821 33.3042 62.5716 33.3819 62.3387 33.5371C62.1058 33.77 61.8729 34.0805 61.7176 34.3911C61.0965 35.7884 61.1742 37.4964 62.0281 38.8161C62.1058 38.8937 62.1834 38.8937 62.1834 39.049L62.261 39.2043C62.3387 39.3595 62.261 39.5924 62.1058 39.6701C62.0281 39.8253 62.0281 39.903 61.9505 39.903Z" fill="#231F20"/>
<path d="M69.8348 35.3096C69.9821 34.8616 69.9696 34.455 69.8067 34.4014C69.6437 34.3478 69.3922 34.6675 69.2448 35.1155C69.0974 35.5635 69.11 35.9701 69.2729 36.0237C69.4358 36.0773 69.6874 35.7576 69.8348 35.3096Z" fill="#231F20"/>
<path d="M52.0136 44.6385L53.6439 42.4648L63.115 46.8899L62.7268 50.9267C58.6123 49.9951 54.886 47.8214 52.0136 44.6385Z" fill="#231F20"/>
<path d="M62.8045 51.3925C58.5347 50.4609 54.6531 48.2096 51.7807 44.9491C51.6254 44.7938 51.6254 44.5609 51.7807 44.4833L53.411 42.3096C53.4886 42.1543 53.7215 42.0767 53.8768 42.1543L63.3479 46.5793C63.5032 46.657 63.5808 46.8122 63.5808 46.9675L63.1926 51.0044C63.1926 51.082 63.115 51.2373 63.0374 51.2373C62.9597 51.3149 62.8821 51.3925 62.8045 51.3925ZM52.557 44.6385C55.1965 47.5109 58.69 49.5294 62.4163 50.5386L62.7268 47.2004L53.7215 43.0083L52.557 44.6385Z" fill="#231F20"/>
<path d="M81.048 84.231C82.4454 85.1625 83.9204 86.0941 85.3954 86.8705C86.0941 87.1034 87.7244 85.4731 88.4231 86.0941C89.1218 86.7152 91.4508 90.2863 91.4508 90.8297C91.4508 91.3731 89.5876 95.0218 88.5007 94.7113C87.4139 94.1679 86.327 93.5468 85.3178 92.8481L78.3309 90.8297" fill="white"/>
<path d="M88.656 95.0995C88.5784 95.0995 88.5007 95.0995 88.3455 95.0218C87.181 94.4784 86.0941 93.8573 85.0849 93.1587L78.1756 91.1402C77.9427 91.0626 77.8651 90.8297 77.8651 90.6744C77.9427 90.4415 78.1756 90.3639 78.3309 90.3639L85.3178 92.3823C85.3954 92.3823 85.3954 92.3823 85.4731 92.46C86.4047 93.1587 87.4915 93.7797 88.5784 94.3231C88.656 94.3231 88.7336 94.3231 88.8113 94.2455C89.7428 93.7021 90.9849 91.2179 90.9849 90.7521C90.2086 89.1994 89.277 87.7244 88.1126 86.4047C87.8797 86.2494 87.2586 86.5599 86.7928 86.7928C86.327 87.1034 85.7836 87.2586 85.2402 87.2586C83.6875 86.4823 82.2125 85.5507 80.7375 84.6191C80.5822 84.4639 80.5822 84.231 80.6599 84.0757C80.8151 83.9204 80.9704 83.9204 81.1257 83.9981C82.523 84.9296 83.9204 85.7836 85.3954 86.5599C85.706 86.4823 86.0941 86.327 86.4047 86.1718C87.181 85.7836 87.9573 85.3178 88.5784 85.8612C89.1994 86.4047 91.8389 90.131 91.6836 90.9073C91.606 91.3731 90.2863 94.1679 89.1218 94.9442C89.0441 94.9442 88.8112 95.0218 88.656 95.0995Z" fill="#231F20"/>
<path d="M65.7545 53.4886C65.7545 53.4886 65.5992 75.0704 67.1519 75.3032C68.7045 75.5361 82.2901 84.5415 82.2901 84.5415L78.5638 93.4692C78.5638 93.4692 60.3202 88.1902 56.5162 85.706C54.4978 84.3862 53.9544 61.0189 53.9544 61.0189L65.7545 53.4886Z" fill="#9B292B"/>
<path d="M65.1334 52.1688C60.5531 47.6662 54.4978 40.524 42.9306 45.182C31.3634 49.8399 15.0606 83.4546 15.0606 83.4546L50.6938 91.3731C50.6938 91.3731 69.4808 56.2834 65.1334 52.1688Z" fill="#9B292B"/>
<path d="M55.8176 84.6191C55.5847 84.6191 55.4294 84.4639 55.4294 84.231C55.4294 84.0757 54.1873 70.5677 53.5662 61.0189C53.5662 60.786 53.7215 60.6308 53.9544 60.6308C54.1873 60.6308 54.3425 60.786 54.3425 61.0189C54.9636 70.5677 56.2057 84.0757 56.2057 84.231C56.2057 84.3862 56.0505 84.6191 55.8176 84.6191C55.8952 84.6191 55.8952 84.6191 55.8176 84.6191Z" fill="#231F20"/>
<path d="M36.9529 124.755C36.7977 124.755 36.72 124.677 36.6424 124.6C36.4871 124.444 22.591 105.89 20.1067 93.5468C20.0291 93.3139 20.1844 93.1587 20.4173 93.081C20.6502 93.081 20.8054 93.1587 20.8831 93.3916C23.3673 105.502 37.1082 123.901 37.2635 124.134C37.4187 124.289 37.3411 124.522 37.1858 124.677C37.1858 124.755 37.1082 124.755 36.9529 124.755Z" fill="white"/>
<path d="M78.3309 82.6783C78.2533 82.6783 78.1757 82.6783 78.1757 82.6007L65.0558 75.9243C64.9005 75.8467 64.8229 75.6914 64.8229 75.5361C64.8229 75.3809 65.9874 58.0689 65.2111 53.9544C65.2111 53.7215 65.2887 53.5662 65.5216 53.4886C65.7545 53.4886 65.9098 53.5662 65.9874 53.7991C66.7637 57.836 65.8321 73.0519 65.6769 75.3032L78.5638 81.8244C78.7967 81.902 78.952 82.0573 78.8743 82.2901C78.7967 82.523 78.5638 82.7559 78.3309 82.6783Z" fill="#231F20"/>
<path d="M82.2902 72.0427C82.2902 72.0427 85.9389 69.0927 87.1034 69.1703C88.2678 69.2479 92.6929 69.869 91.4508 70.8006C90.2086 71.7322 86.9481 71.1887 86.9481 71.1887C86.9481 71.1887 87.2586 71.5769 85.7836 72.5861" fill="white"/>
<path d="M85.8612 73.0519C85.6283 73.0519 85.4731 72.8967 85.4731 72.6638C85.4731 72.5085 85.5507 72.4309 85.6283 72.3532C86.4823 71.8098 86.6376 71.4993 86.6376 71.4216C86.5599 71.344 86.5599 71.1887 86.6376 71.1111C86.7152 70.9559 86.8705 70.8782 87.0257 70.8782C87.8797 71.0335 90.2863 71.1887 91.2179 70.5677C90.7521 70.1795 88.656 69.7914 87.1034 69.6361C86.4047 69.6361 83.9981 71.2664 82.6007 72.4309C82.4454 72.5861 82.2125 72.5085 82.0573 72.3532C81.902 72.198 81.9796 71.9651 82.1349 71.8098C82.756 71.2664 86.0165 68.7821 87.2586 68.8598C87.2586 68.8598 91.8389 69.1703 92.1494 70.4124C92.2271 70.723 92.0718 71.0335 91.7613 71.1887C90.6744 71.9651 88.3455 71.8098 87.4139 71.7322C87.1034 72.2756 86.6376 72.7414 86.0941 73.0519C85.9389 72.9743 85.8612 73.0519 85.8612 73.0519Z" fill="#231F20"/>
<path d="M217.37 144.085H166.909V157.205H217.37V144.085Z" fill="white"/>
<path d="M217.37 157.593H166.909C166.676 157.593 166.521 157.438 166.521 157.205V144.085C166.521 143.852 166.676 143.697 166.909 143.697H217.37C217.603 143.697 217.758 143.852 217.758 144.085V157.205C217.758 157.438 217.525 157.593 217.37 157.593ZM167.297 156.817H216.982V144.474H167.297V156.817Z" fill="#231F20"/>
<path d="M245.24 144.085H204.095V157.205H245.24V144.085Z" fill="#231F20"/>
<path d="M245.163 157.593H204.017C203.785 157.593 203.629 157.438 203.629 157.205V144.085C203.629 143.852 203.785 143.697 204.017 143.697H245.163C245.395 143.697 245.551 143.852 245.551 144.085V157.205C245.551 157.438 245.395 157.593 245.163 157.593ZM204.483 156.817H244.852V144.474H204.483V156.817Z" fill="#231F20"/>
<path d="M211.858 130.966H171.412V144.085H211.858V130.966Z" fill="white"/>
<path d="M211.781 144.474H171.334C171.101 144.474 170.946 144.318 170.946 144.085V130.966C170.946 130.733 171.101 130.577 171.334 130.577H211.781C212.014 130.577 212.169 130.733 212.169 130.966V144.085C212.169 144.318 212.014 144.474 211.781 144.474ZM171.8 143.697H211.47V131.354H171.8V143.697Z" fill="#231F20"/>
<path d="M238.797 130.966H211.781V144.085H238.797V130.966Z" fill="#231F20"/>
<path d="M238.797 144.474H211.781C211.548 144.474 211.393 144.318 211.393 144.085V130.966C211.393 130.733 211.548 130.577 211.781 130.577H238.797C239.03 130.577 239.185 130.733 239.185 130.966V144.085C239.185 144.318 239.03 144.474 238.797 144.474ZM212.169 143.697H238.409V131.354H212.169V143.697Z" fill="#231F20"/>
<path d="M219.932 140.437C221.518 140.437 222.804 139.151 222.804 137.564C222.804 135.978 221.518 134.692 219.932 134.692C218.346 134.692 217.06 135.978 217.06 137.564C217.06 139.151 218.346 140.437 219.932 140.437Z" fill="white"/>
<path d="M210.849 124.367H175.294V130.966H210.849V124.367Z" fill="white"/>
<path d="M210.927 131.354H175.371C175.138 131.354 174.983 131.198 174.983 130.966V124.367C174.983 124.134 175.138 123.979 175.371 123.979H210.927C211.16 123.979 211.315 124.134 211.315 124.367V130.966C211.315 131.198 211.082 131.354 210.927 131.354ZM175.682 130.577H210.461V124.755H175.682V130.577Z" fill="#231F20"/>
<path d="M232.508 124.367H198.661V130.966H232.508V124.367Z" fill="#231F20"/>
<path d="M232.508 131.354H198.661C198.428 131.354 198.273 131.198 198.273 130.966V124.367C198.273 124.134 198.428 123.979 198.661 123.979H232.508C232.741 123.979 232.897 124.134 232.897 124.367V130.966C232.897 131.198 232.741 131.354 232.508 131.354ZM199.127 130.577H232.12V124.755H199.049V130.577H199.127Z" fill="#231F20"/>
<path d="M210.461 153.557C212.047 153.557 213.333 152.271 213.333 150.684C213.333 149.098 212.047 147.812 210.461 147.812C208.875 147.812 207.589 149.098 207.589 150.684C207.589 152.271 208.875 153.557 210.461 153.557Z" fill="white"/>
<path d="M238.797 144.474H214.11C213.877 144.474 213.721 144.318 213.721 144.085C213.721 143.852 213.877 143.697 214.11 143.697H238.797C239.03 143.697 239.185 143.852 239.185 144.085C239.185 144.318 239.03 144.474 238.797 144.474Z" fill="white"/>
<path d="M232.508 131.354H211.781C211.548 131.354 211.393 131.198 211.393 130.966C211.393 130.733 211.548 130.577 211.781 130.577H232.508C232.741 130.577 232.897 130.733 232.897 130.966C232.897 131.198 232.741 131.354 232.508 131.354Z" fill="white"/>
</svg>
